<?xml version="1.0" standalone="no"?>
<!DOCTYPE svg PUBLIC "-//W3C//DTD SVG 1.1//EN" "http://www.w3.org/Graphics/SVG/1.1/DTD/svg11.dtd" >
<svg xmlns="http://www.w3.org/2000/svg" xmlns:xlink="http://www.w3.org/1999/xlink" version="1.1">
<metadata>
Created by FontForge 20170910 at Thu Nov  2 22:37:05 2017
 By Jimmy Wärting
Copyright (c) 2017 Datto, Inc. All rights reserved.
</metadata>
<defs>
<font id="D-DINExp" horiz-adv-x="572" >
  <font-face 
    font-family="D-DIN Exp"
    font-weight="400"
    font-stretch="expanded"
    units-per-em="1000"
    panose-1="2 11 5 4 2 2 2 3 2 4"
    ascent="831"
    descent="-169"
    x-height="511.999"
    cap-height="690"
    bbox="-164 -168 1242 891.001"
    underline-thickness="50"
    underline-position="-100"
    unicode-range="U+000D-FB02"
  />
<missing-glyph horiz-adv-x="600" 
d="M101 690h397v-690h-397v690zM464 34v622h-329v-622h329z" />
    <glyph glyph-name=".notdef" horiz-adv-x="600" 
d="M101 690h397v-690h-397v690zM464 34v622h-329v-622h329z" />
    <glyph glyph-name="NULL" horiz-adv-x="600" 
 />
    <glyph glyph-name="NULL" horiz-adv-x="600" 
 />
    <glyph glyph-name="nonmarkingreturn" unicode="&#xd;" horiz-adv-x="217" 
 />
    <glyph glyph-name="space" unicode=" " horiz-adv-x="217" 
 />
    <glyph glyph-name="exclam" unicode="!" horiz-adv-x="239" 
d="M69 690h101l-17 -484h-66zM69 104h101v-104h-101v104z" />
    <glyph glyph-name="quotedbl" unicode="&#x22;" horiz-adv-x="337" 
d="M48 690h81v-251h-81v251zM208 690h82v-251h-82v251z" />
    <glyph glyph-name="numbersign" unicode="#" horiz-adv-x="584" 
d="M436 423l-18 -140h119v-67h-127l-28 -216h-73l28 216h-128l-28 -216h-73l28 216h-113v67h122l18 140h-116v66h125l26 201h72l-26 -201h128l26 201h72l-26 -201h118v-66h-126zM364 423h-128l-18 -140h128z" />
    <glyph glyph-name="dollar" unicode="$" horiz-adv-x="519" 
d="M428 84c-33.333 -31.333 -80 -49.667 -140 -55v-88h-67v87c-59.333 4.66699 -105 22.667 -137 54s-49.667 75.333 -53 132h83c3.33301 -33.334 13.5 -58.667 30.5 -76s42.5 -28.333 76.5 -33v211l-10 2c-55.333 10 -97 28.167 -125 54.5s-42 63.5 -42 111.5
c0 50 15.5 90.5 46.5 121.5s74.5 49.167 130.5 54.5v81h67v-80c54 -4.66699 96.5 -21.834 127.5 -51.501s48.167 -71.167 51.5 -124.5h-83c-2.66797 30 -11.835 53.167 -27.5 69.5c-15.667 16.333 -38.5 26.5 -68.5 30.5v-198l24 -4c54.667 -10 96 -28.833 124 -56.5
s42 -66.167 42 -115.5c0 -53.333 -16.667 -95.666 -50 -126.999zM152 430.499c14.667 -14.333 37.667 -24.833 69 -31.5v186c-60.667 -8 -91 -39.333 -91 -94c0 -26 7.33301 -46.167 22 -60.5zM392 204.999c0 29.333 -8 51.332 -24 65.999s-42.667 25.667 -80 33v-200
c69.333 6.66699 104 40.334 104 101.001z" />
    <glyph glyph-name="percent" unicode="%" horiz-adv-x="917" 
d="M77.5 307.5c-23.667 27.667 -35.5 68.5 -35.5 122.5v108c0 52 12.167 91.5 36.5 118.5s59.833 40.5 106.5 40.5c95.333 0 143 -53 143 -159v-108c0 -54 -12 -94.833 -36 -122.5s-60 -41.5 -108 -41.5c-47.333 0 -82.833 13.833 -106.5 41.5zM609 692h74l-381 -692h-73z
M235 357c10 16 15 42 15 78v95c0 34.667 -5 60 -15 76s-26.667 24 -50 24s-40.166 -8 -50.499 -24s-15.5 -41.333 -15.5 -76v-95c0 -36 5.16699 -62 15.5 -78s27.166 -24 50.499 -24s40 8 50 24zM589 158v106.999c0 52.667 12 92.334 36 119.001s59.667 40 107 40
c95.333 0 143 -53 143 -159v-107c0 -109.333 -48 -164 -144 -164c-94.667 0 -142 54.667 -142 164zM782 84.999c10 16 15.001 41.667 15.001 77v95c0 35.333 -5 60.833 -15 76.5s-26.667 23.5 -50 23.5c-23.3359 0 -40.1689 -7.83301 -50.5 -23.5
c-10.333 -15.667 -15.5 -41.167 -15.5 -76.5v-95c0 -35.333 5.16699 -61 15.5 -77s27.166 -24 50.499 -24s40 8 50 24z" />
    <glyph glyph-name="ampersand" unicode="&#x26;" horiz-adv-x="663" 
d="M611 78l-0.000976562 -77.999h-34c-24.667 0 -45 4 -61 12s-33.333 22.667 -52 44l-19 23c-30 -32 -60.5 -55 -91.5 -69s-64.833 -21 -101.5 -21c-42 0 -78 8.16699 -108 24.5s-52.833 38.5 -68.5 66.5s-23.5 59.667 -23.5 95c0 40 11.5 76.833 34.5 110.5
s58.833 66.167 107.5 97.5c-28.667 35.333 -49.167 65.5 -61.5 90.5c-12.333 25.001 -18.5 49.834 -18.5 74.5c0 29.333 7 55.5 21 78.5s33.667 41.167 59 54.5s54 20 86 20c48.667 0 88.334 -14.333 119.001 -43s46 -65.667 46 -111c0 -34.667 -10 -65.334 -30 -92.001
s-52.667 -55 -98 -85l-5 -3l139 -167l90 105l57 -50l-98 -114l24 -29c11.333 -12.667 21.833 -21.5 31.5 -26.5s21.5 -7.5 35.5 -7.5h20zM220.499 607.501c-15 -15 -22.5 -34.5 -22.5 -58.5c0 -16.667 4.33301 -33.334 13 -50.001s24.667 -39.667 48 -69l5 -6l6 4
c34 22 57.833 41.833 71.5 59.5s20.5 37.834 20.5 60.501c0 24.667 -7.5 44.5 -22.5 59.5s-34.833 22.5 -59.5 22.5s-44.5 -7.5 -59.5 -22.5zM328.499 82.501c21.667 11 44.499 29.167 68.499 54.5l-156 188c-35.333 -23.333 -61.666 -46.833 -78.999 -70.5
s-26 -49.167 -26 -76.5c0 -32.667 10.667 -59.5 32 -80.5s51.333 -31.5 90 -31.5c25.333 0 48.833 5.5 70.5 16.5z" />
    <glyph glyph-name="quotesingle" unicode="'" horiz-adv-x="177" 
d="M48 690h81v-251h-81v251z" />
    <glyph glyph-name="parenleft" unicode="(" horiz-adv-x="313" 
d="M86.5 112c-23 69.333 -34.499 141.335 -34.499 216.002c0 75.333 11.667 147.833 35 217.5s57.666 134.5 102.999 194.5h71c-39.333 -58.667 -69.833 -123.834 -91.5 -195.501s-32.5 -143.834 -32.5 -216.5c0 -73.333 10.833 -145.833 32.5 -217.5
s52.167 -136.5 91.5 -194.5h-72c-45.333 61.333 -79.5 126.666 -102.5 195.999z" />
    <glyph glyph-name="parenright" unicode=")" horiz-adv-x="313" 
d="M143.5 110.5c21.667 71.667 32.501 144.165 32.501 217.498c0 72.667 -10.833 144.834 -32.5 216.501s-52.167 136.834 -91.5 195.5h71c45.333 -60 79.666 -124.833 102.999 -194.5s35 -142.167 35 -217.5c0 -74.667 -11.5 -146.667 -34.5 -216
s-57.167 -134.666 -102.5 -195.999h-72c39.333 58 69.833 122.833 91.5 194.5z" />
    <glyph glyph-name="asterisk" unicode="*" horiz-adv-x="411" 
d="M179 510l-104 -53l-23 45l102 49l-102 49l23 45l104 -52v97h53v-98l104 53l22 -45l-101 -48l102 -50l-23 -45l-104 53v-103h-53v103z" />
    <glyph glyph-name="plus" unicode="+" horiz-adv-x="509" 
d="M214 236h-161v80h161v162h81v-162h161v-80h-161v-162h-81v162z" />
    <glyph glyph-name="comma" unicode="," horiz-adv-x="177" 
d="M48 107h81v-179l-81 -73v252z" />
    <glyph glyph-name="hyphen" unicode="-" horiz-adv-x="422" 
d="M52 387h318v-81h-318v81z" />
    <glyph glyph-name="period" unicode="." horiz-adv-x="198" 
d="M48 107h102v-107h-102v107z" />
    <glyph glyph-name="slash" unicode="/" horiz-adv-x="428" 
d="M303 692h73l-251 -702h-73z" />
    <glyph glyph-name="zero" unicode="0" horiz-adv-x="549" 
d="M115 53.5c-36 42.333 -54 105.166 -54 188.499v211c0 81.333 18 142.833 54 184.5s89.333 62.5 160 62.5s124.167 -20.833 160.5 -62.5s54.5 -103.167 54.5 -184.5v-211c0 -83.333 -18.167 -146.166 -54.5 -188.499s-89.833 -63.5 -160.5 -63.5s-124 21.167 -160 63.5z
M370 113.5c19.333 28.333 29 73.5 29 135.5v192c0 62 -9.83301 107.167 -29.5 135.5s-51.167 42.5 -94.5 42.5c-42.667 0 -73.834 -14.167 -93.501 -42.5s-29.5 -73.5 -29.5 -135.5v-192c0 -62 9.83301 -107.167 29.5 -135.5s50.834 -42.5 93.501 -42.5
c44 0 75.667 14.167 95 42.5z" />
    <glyph glyph-name="one" unicode="1" horiz-adv-x="362" 
d="M192 591l-147 -92v97l147 94h91v-690h-91v591z" />
    <glyph glyph-name="two" unicode="2" horiz-adv-x="530" 
d="M56 73l254.999 289c26 28 44.167 52.5 54.5 73.5s15.5 43.5 15.5 67.5v12c0 33.333 -10.667 59.333 -32 78s-51 28 -89 28c-37.333 0 -66.166 -9.33301 -86.499 -28s-30.5 -46 -30.5 -82v-11h-88v18c0 56 18.667 100.333 56 133s87.666 49 150.999 49
c42.667 0 79.834 -7.66699 111.501 -23s56 -36.833 73 -64.5s25.5 -59.5 25.5 -95.5v-15c0 -34 -7 -65.333 -21 -94s-37.333 -60.334 -70 -95l-205 -233h302v-80h-422v73z" />
    <glyph glyph-name="three" unicode="3" horiz-adv-x="549" 
d="M112.5 36.5c-37.667 31 -56.499 74.501 -56.499 130.501v10h88v-9c0 -32 10.833 -56.5 32.5 -73.5s53.167 -25.5 94.5 -25.5s73 10 95 30s33 48.333 33 85v19c0 37.333 -11.5 65.666 -34.5 84.999s-56.833 29 -101.5 29h-41v80h40c40.667 0 71.667 9.33301 93 28
s32 45 32 79v14c0 33.333 -10.167 58.833 -30.5 76.5s-49.833 26.5 -88.5 26.5s-68 -8.66699 -88 -26s-30 -42.333 -30 -75v-10h-86v11c0 56 18.167 99.833 54.5 131.5s87.166 47.5 152.499 47.5c64.667 0 115.167 -15.5 151.5 -46.5s54.5 -74.167 54.5 -129.5v-15
c0 -34.667 -8.83301 -64.167 -26.5 -88.5s-41.834 -42.833 -72.5 -55.5c36.667 -12 64.5 -32 83.5 -60s28.5 -62.333 28.5 -103v-18c0 -60 -19.667 -107.333 -59 -142s-93 -52 -161 -52c-67.333 0 -119.833 15.5 -157.5 46.5z" />
    <glyph glyph-name="four" unicode="4" horiz-adv-x="564" 
d="M522 128h-83v-128h-91v128h-305v81l235 481h93l-235 -481h212v179h91v-179h83v-81z" />
    <glyph glyph-name="five" unicode="5" horiz-adv-x="536" 
d="M114 39c-35.333 32.667 -53.001 74.667 -53.001 126v8h87v-5c0 -28 10 -51.333 30 -70s49.333 -28 88 -28c80.667 0 121 45 121 135v35c0 44.667 -10 78.5 -30 101.5s-49.333 34.5 -88 34.5c-26 0 -48.333 -5.83301 -67 -17.5s-32.667 -28.5 -42 -50.5h-88v382h386v-81
h-305v-204c15.333 15.333 34.666 27.5 57.999 36.5s48 13.5 74 13.5c60.667 0 107.834 -18.333 141.501 -55s50.5 -88.667 50.5 -156v-43c0 -66.667 -18.667 -118.5 -56 -155.5s-89.666 -55.5 -156.999 -55.5c-64.667 0 -114.667 16.333 -150 49z" />
    <glyph glyph-name="six" unicode="6" horiz-adv-x="552" 
d="M115 45c-40 36.667 -60.001 85.667 -60.001 147v22c0 32.667 5.16699 63.667 15.5 93s27.833 63 52.5 101l169 282h99l-176 -290c9.33301 5.33691 21.5 9.66992 36.5 13c15 3.33301 31.5 5 49.5 5c38 0 72 -8.5 102 -25.5s53.5 -40.5 70.5 -70.5s25.5 -64 25.5 -102v-24
c0 -63.333 -20.167 -113.5 -60.5 -150.5s-94.166 -55.5 -161.499 -55.5c-68 0 -122 18.333 -162 55zM373.499 102.5c23.667 22.333 35.499 52.501 35.499 90.501v23c0 37.333 -11.833 67 -35.5 89s-56.167 33 -97.5 33c-40.667 0 -72.5 -10.833 -95.5 -32.5
s-34.5 -51.834 -34.5 -90.501v-23c0 -38 11.833 -68 35.5 -90s55.5 -33 95.5 -33c40.667 0 72.834 11.167 96.501 33.5z" />
    <glyph glyph-name="seven" unicode="7" horiz-adv-x="489" 
d="M454 690v-81l-262 -609h-92l263 609h-326v81h417z" />
    <glyph glyph-name="eight" unicode="8" horiz-adv-x="568" 
d="M122 43c-40.667 35.333 -60.999 82.999 -60.999 142.999v15c0 38 9 70.833 27 98.5s44.333 48.834 79 63.501c-28.667 12.667 -51 31.667 -67 57s-24 54.333 -24 87v13c0 35.333 8.66699 66.666 26 93.999s41.666 48.5 72.999 63.5s68 22.5 110 22.5
s78.833 -7.5 110.5 -22.5s56.167 -36.167 73.5 -63.5c17.333 -27.334 26 -58.667 26 -93.999v-13c0 -32.667 -8.16699 -61.667 -24.5 -87s-38.5 -44.333 -66.5 -57c34 -14.667 60 -36 78 -64s27 -60.333 27 -97v-15c0 -60 -20.5 -107.833 -61.5 -143.5
s-95.167 -53.5 -162.5 -53.5c-68 0 -122.333 17.667 -163 53zM373.501 428.999c21 18.667 31.499 44 31.499 76v15c0 31.333 -10.667 56 -32 74s-50.666 27 -87.999 27c-36.667 0 -65.667 -9 -87 -27s-32 -42.667 -32 -74v-15c0 -32 10.5 -57.333 31.5 -76
s50.167 -28 87.5 -28c38 0 67.5 9.33301 88.5 28zM383.5 100.499c23.667 21 35.5 50.167 35.5 87.5v16c0 36.667 -11.833 65.5 -35.5 86.5s-56.5 31.5 -98.5 31.5s-74.833 -10.5 -98.5 -31.5s-35.5 -49.833 -35.5 -86.5v-16c0 -37.333 11.833 -66.5 35.5 -87.5
s56.5 -31.5 98.5 -31.5s74.833 10.5 98.5 31.5z" />
    <glyph glyph-name="nine" unicode="9" horiz-adv-x="552" 
d="M340 290c-21.333 -12 -50.332 -18 -86.999 -18c-38 0 -72 8.5 -102 25.5s-53.5 40.5 -70.5 70.5s-25.5 64 -25.5 102v24c0 63.333 20.167 113.5 60.5 150.5s94.166 55.5 161.499 55.5c68 0 122 -18.333 162 -55s60 -85.667 60 -147v-22
c0 -32.667 -5.16699 -63.667 -15.5 -93s-27.5 -63 -51.5 -101l-170 -282h-98zM374.001 384.5c23.333 21.667 35.001 51.833 35.001 90.5v23c0 38 -11.833 68 -35.5 90s-55.834 33 -96.5 33c-40.667 0 -72.834 -11.167 -96.501 -33.5s-35.5 -52.5 -35.5 -90.5v-23
c0 -37.333 12 -67 36 -89s56.333 -33 97 -33s72.667 10.833 96 32.5z" />
    <glyph glyph-name="colon" unicode=":" horiz-adv-x="198" 
d="M48 396h102v-107h-102v107zM48 156h102v-107h-102v107z" />
    <glyph glyph-name="semicolon" unicode=";" horiz-adv-x="198" 
d="M48 445h102v-107h-102v107zM68 107h82v-179l-82 -73v252z" />
    <glyph glyph-name="less" unicode="&#x3c;" horiz-adv-x="509" 
d="M53 240v72l402 162v-84l-292 -114l292 -115v-84z" />
    <glyph glyph-name="equal" unicode="=" horiz-adv-x="509" 
d="M53 400h402v-81h-402v81zM53 232h402v-80h-402v80z" />
    <glyph glyph-name="greater" unicode="&#x3e;" horiz-adv-x="509" 
d="M53 161l292 115l-292 114v84l402 -162v-72l-402 -163v84z" />
    <glyph glyph-name="question" unicode="?" horiz-adv-x="485" 
d="M192 238c0 30.667 3.5 54.833 10.5 72.5s20.833 36.5 41.5 56.5l58 57c19.334 18 32.667 34.5 40 49.5s11 32.833 11 53.5c0 30 -9.83301 53 -29.5 69s-48.5 24 -86.5 24c-77.333 0 -116 -35.333 -116 -106h-87c1.33301 60 19.5 106 54.5 138s84.833 48 149.5 48
c64 0 114.167 -15.167 150.5 -45.5s54.5 -71.833 54.5 -124.5c0 -27.333 -4.83301 -52.333 -14.5 -75s-24.834 -45 -45.5 -67l-68 -68c-14 -14 -23.333 -26.833 -28 -38.5s-7 -27.5 -7 -47.5v-51h-88v55zM185 102.999h101v-103h-101v103z" />
    <glyph glyph-name="at" unicode="@" horiz-adv-x="857" 
d="M232 -83c-56.667 31.333 -100.83 75.3369 -132.497 132.004s-47.5 122 -47.5 196v76c0 73.334 15.833 138.167 47.5 194.5s76 100 133 131s122.167 46.5 195.5 46.5c72.667 0 137.667 -15.667 195 -47s102 -74.833 134 -130.5s48 -119.5 48 -191.5v-75
c0 -64 -14.333 -112.167 -43 -144.5s-66 -48.5 -112 -48.5c-28 0 -52.167 6 -72.5 18s-35.5 29 -45.5 51c-20.667 -46 -62.667 -69 -126 -69c-50 0 -87 15.5 -111 46.5s-36 74.833 -36 131.5v88c0 56.667 11.667 100.667 35 132s59.333 47 108 47
c24.667 0 46.167 -4.83301 64.5 -14.5c18.333 -9.66797 32.833 -22.835 43.5 -39.501v44h79v-289c0 -26 5.83301 -45.667 17.5 -59c11.667 -13.334 26.5 -20.001 44.5 -20.001c23.333 0 41 9.66699 53 29s18 51 18 95v76c0 59.334 -11.833 111.167 -35.5 155.5
s-57.667 78.666 -102 102.999c-44.334 24.333 -96.501 36.5 -156.501 36.5s-112 -12 -156 -36s-77.833 -58.333 -101.5 -103s-35.5 -97 -35.5 -157v-77c0 -60 11.667 -112.5 35 -157.5s57.166 -80 101.499 -105s96.5 -37.5 156.5 -37.5c42 0 79.333 4.16699 112 12.5
s65 21.166 97 38.499l31 -65c-36.667 -21.333 -73.834 -36.833 -111.501 -46.5s-80.5 -14.5 -128.5 -14.5c-74 0 -139.333 15.667 -196 47zM508.004 235.004v88.001c0 34.667 -6.83301 61.5 -20.5 80.5s-34.5 28.5 -62.5 28.5c-56 0 -84 -37 -84 -111v-82
c0 -36.667 6.5 -64.834 19.5 -84.501s34.5 -29.5 64.5 -29.5c55.333 0 83 36.667 83 110z" />
    <glyph glyph-name="A" unicode="A" horiz-adv-x="666" 
d="M501 156h-338l-62 -156h-95l288 690h77l289 -690h-96zM470 233l-138 345l-138 -345h276z" />
    <glyph glyph-name="B" unicode="B" horiz-adv-x="671" 
d="M582.5 296.5c19.667 -27.667 29.499 -62.499 29.499 -104.499c0 -62.667 -19.667 -110.334 -59 -143.001s-96.666 -49 -171.999 -49h-309v690h303c73.334 0 129.167 -15.667 167.5 -47s57.5 -77.333 57.5 -138c0 -35.333 -9 -66 -27 -92s-43.667 -45 -77 -57
c38 -12 66.833 -31.833 86.5 -59.5zM162.999 610.001v-217.001h212c45.334 0 79.167 8.83301 101.5 26.5s33.5 44.834 33.5 81.501s-11 64 -33 82s-55.333 27 -100 27h-214zM486.999 109c22.667 19.333 33.999 49 33.999 89c0 76.667 -48 115 -144 115h-214v-233h220
c46.667 0 81.334 9.66699 104.001 29z" />
    <glyph glyph-name="C" unicode="C" horiz-adv-x="680" 
d="M136.5 67.5c-50.333 51 -75.502 126.833 -75.502 227.5v101c0 100.667 25.333 176.5 76 227.5s122.334 76.5 215.001 76.5c83.333 0 149 -19.333 197 -58s72 -92.667 72 -162v-5h-91v4c0 44.667 -15.5 79 -46.5 103s-75.167 36 -132.5 36
c-67.333 0 -117.333 -18.333 -150 -55s-49 -94 -49 -172v-97c0 -75.333 16.5 -131 49.5 -167s83.167 -54 150.5 -54c57.333 0 101.333 12 132 36s46 58.667 46 104v4h90v-5c0 -69.333 -24.167 -123.5 -72.5 -162.5s-114.166 -58.5 -197.499 -58.5
c-92 0 -163.167 25.5 -213.5 76.5z" />
    <glyph glyph-name="D" unicode="D" horiz-adv-x="674" 
d="M72 690l255 -0.000976562c92 0 163 -25 213 -75s75 -124.667 75 -224v-91c0 -99.333 -25.167 -174.166 -75.5 -224.499s-121.833 -75.5 -214.5 -75.5h-253v690zM327 80.999c66.667 0 116.167 17.667 148.5 53s48.5 90 48.5 164v88c0 76 -16.167 132.167 -48.5 168.5
s-81.833 54.5 -148.5 54.5h-164v-528h164z" />
    <glyph glyph-name="E" unicode="E" horiz-adv-x="597" 
d="M163 609v-218h335v-81h-335v-229h391v-81h-482v690h482v-81h-391z" />
    <glyph glyph-name="F" unicode="F" horiz-adv-x="590" 
d="M163 609v-221h336v-81h-336v-307h-91v690h482v-81h-391z" />
    <glyph glyph-name="G" unicode="G" horiz-adv-x="680" 
d="M136.5 67.5c-50.333 51 -75.5 126.832 -75.5 227.499v101c0 100.667 25.167 176.5 75.5 227.5s121.833 76.5 214.5 76.5c82.667 0 148.167 -19.667 196.5 -59c48.333 -39.334 72.5 -92.667 72.5 -160v-5h-90v4c0 42.668 -15.667 76.335 -47 101.001
c-31.333 24.667 -75.333 37 -132 37c-67.333 0 -117.333 -18.333 -150 -55s-49 -94 -49 -172v-97c0 -75.333 16.5 -131 49.5 -167s83.167 -54 150.5 -54c119.333 0 179 56.333 179 169v41h-191v77h281v-112c0 -84 -24 -147.833 -72 -191.5s-114 -65.5 -198 -65.5
c-92.667 0 -164.167 25.5 -214.5 76.5z" />
    <glyph glyph-name="H" unicode="H" horiz-adv-x="685" 
d="M613 690v-690h-90v312h-360v-312h-91v690h91v-298h360v298h90z" />
    <glyph glyph-name="I" unicode="I" horiz-adv-x="249" 
d="M79 690h91v-690h-91v690z" />
    <glyph glyph-name="J" unicode="J" horiz-adv-x="345" 
d="M29 81h61.999c30.667 0 52.334 6.5 65.001 19.5s19 35.167 19 66.5v523h91v-535c0 -52 -13 -90.833 -39 -116.5s-65.333 -38.5 -118 -38.5h-80v81z" />
    <glyph glyph-name="K" unicode="K" horiz-adv-x="671" 
d="M319 355l-156 -166v-189h-91v690h91v-386l355 386h114l-253 -271l285 -419h-109z" />
    <glyph glyph-name="L" unicode="L" horiz-adv-x="579" 
d="M72 690h91v-609h387v-81h-478v690z" />
    <glyph glyph-name="M" unicode="M" horiz-adv-x="827" 
d="M755 690v-690h-90v522l-219 -385h-64l-219 385v-522h-91v690h91l251 -448l251 448h90z" />
    <glyph glyph-name="N" unicode="N" horiz-adv-x="721" 
d="M649 690v-690h-91l-395 534v-534h-91v690h91l395 -535v535h91z" />
    <glyph glyph-name="O" unicode="O" horiz-adv-x="695" 
d="M135.5 67.5c-49.667 51 -74.5 126.833 -74.5 227.5v101c0 100.667 25.167 176.5 75.5 227.5s121.5 76.5 213.5 76.5c91.333 0 161.833 -25.5 211.5 -76.5s74.5 -126.833 74.5 -227.5v-101c0 -100.667 -25.167 -176.5 -75.5 -227.5s-121.5 -76.5 -213.5 -76.5
c-91.333 0 -161.833 25.5 -211.5 76.5zM497 127c32.667 36 49 91.668 49 167.001v97c0 78 -16.333 135.333 -49 171.999c-32.667 36.667 -82 55 -148 55c-66.667 0 -116.167 -18.333 -148.5 -55s-48.5 -94 -48.5 -172v-97c0 -75.333 16.167 -131 48.5 -167
s81.833 -54 148.5 -54c66 0 115.333 18 148 54z" />
    <glyph glyph-name="P" unicode="P" horiz-adv-x="637" 
d="M547 637.5c40.667 -35 60.998 -86.5 60.998 -154.5c0 -66.667 -20.167 -117.667 -60.5 -153s-99.166 -53 -176.499 -53h-208v-277h-91v690h299c76.667 0 135.334 -17.5 176.001 -52.5zM481.998 387.5c23.333 19.667 35 51.167 35 94.5c0 45.333 -12 77.833 -36 97.5
s-62 29.5 -114 29.5h-204v-251h210c49.334 0 85.667 9.83301 109 29.5z" />
    <glyph glyph-name="Q" unicode="Q" horiz-adv-x="695" 
d="M523 37l80 -150l-71 -38l-83 155c-30 -8.66699 -64 -13 -102 -13c-91.333 0 -161.833 25.5 -211.5 76.5s-74.5 126.833 -74.5 227.5v101c0 100.667 25.167 176.5 75.5 227.5s121.5 76.5 213.5 76.5c91.333 0 161.833 -25.5 211.5 -76.5s74.5 -126.833 74.5 -227.5v-101
c0 -122.667 -37.667 -208.667 -113 -258zM546 391c0 78 -16.333 135.334 -49 172c-32.667 36.667 -82 55 -148 55c-66.667 0 -116.167 -18.333 -148.5 -55s-48.5 -94 -48.5 -172v-97c0 -75.333 16.167 -131 48.5 -167s81.833 -54 148.5 -54c66 0 115.333 18 148 54
s49 91.667 49 167v97z" />
    <glyph glyph-name="R" unicode="R" horiz-adv-x="665" 
d="M363 294l-200 -0.000976562v-294h-91v690h301c76 0 134.167 -17 174.5 -51s60.5 -83 60.5 -147c0 -50 -12.833 -91.167 -38.5 -123.5s-63.167 -54.166 -112.5 -65.499l171 -303h-104zM163 372.999h212c48.667 0 84.5 9.66699 107.5 29s34.5 49.333 34.5 90
c0 40 -12.167 69.5 -36.5 88.5s-61.5 28.5 -111.5 28.5h-206v-236z" />
    <glyph glyph-name="S" unicode="S" horiz-adv-x="611" 
d="M106 46c-45.333 34.667 -70.335 85.665 -75.002 152.998h88c4 -44.667 21.167 -77 51.5 -97s74.166 -30 131.499 -30c118.667 0 178 39.667 178 119c0 34.667 -11.333 61.334 -34 80.001s-57.667 30.667 -105 36l-93 11c-134 16.667 -201 78.334 -201 185.001
c0 62 22.667 110.167 68 144.5s107.333 51.5 186 51.5c76.667 0 136.834 -16.5 180.501 -49.5c43.6689 -33 68.8359 -81.833 75.501 -146.5h-88c-3.33301 40 -18.666 69.833 -45.999 89.5s-68 29.5 -122 29.5c-54.667 0 -96 -9.66699 -124 -29s-42 -47.333 -42 -84
c0 -32 10.833 -57 32.5 -75s55.5 -30 101.5 -36l97 -11c136 -18 204 -81.333 204 -190c0 -64.667 -24 -114.667 -72 -150s-114.667 -53 -200 -53c-82.667 0 -146.667 17.333 -192 52z" />
    <glyph glyph-name="T" unicode="T" horiz-adv-x="550" 
d="M543 609h-223v-609h-90v609h-223v81h536v-81z" />
    <glyph glyph-name="U" unicode="U" horiz-adv-x="692" 
d="M144.5 60.5c-48.333 44.333 -72.5 106.5 -72.5 186.5v443h91v-437c0 -119.333 61 -179 183 -179s183 59.667 183 179v437h91v-443c0 -80 -24.167 -142.167 -72.5 -186.5s-115.5 -66.5 -201.5 -66.5s-153.167 22.167 -201.5 66.5z" />
    <glyph glyph-name="V" unicode="V" horiz-adv-x="605" 
d="M6 690h95l203 -567l200 567h95l-257 -690h-76z" />
    <glyph glyph-name="W" unicode="W" horiz-adv-x="914" 
d="M908 690l-196 -690h-92l-161 577l-161 -577h-92l-200 690h90l159 -562l147 562h113l154 -562l151 562h88z" />
    <glyph glyph-name="X" unicode="X" horiz-adv-x="648" 
d="M270 359l-243 331h108l190 -261l188 261h105l-241 -328l265 -362h-108l-214 292l-209 -292h-105z" />
    <glyph glyph-name="Y" unicode="Y" horiz-adv-x="580" 
d="M335 278v-278h-90v279l-239 411h102l183 -335l181 335h102z" />
    <glyph glyph-name="Z" unicode="Z" horiz-adv-x="571" 
d="M538 82v-81h-502v81l392 528h-379v81h484v-81l-391 -528h396z" />
    <glyph glyph-name="bracketleft" unicode="[" horiz-adv-x="323" 
d="M72 740h199v-81h-113v-662h113v-81h-199v824z" />
    <glyph glyph-name="backslash" unicode="\" horiz-adv-x="428" 
d="M52 692h73l251 -702h-73z" />
    <glyph glyph-name="bracketright" unicode="]" horiz-adv-x="323" 
d="M52 -3h112v662h-112v81h199v-824h-199v81z" />
    <glyph glyph-name="asciicircum" unicode="^" horiz-adv-x="509" 
d="M218 692h73l169 -411h-73l-133 328l-132 -328h-73z" />
    <glyph glyph-name="underscore" unicode="_" horiz-adv-x="537" 
d="M0 -50h537v-59h-537v59z" />
    <glyph glyph-name="grave" unicode="`" horiz-adv-x="500" 
d="M97 705h111l115 -128h-82z" />
    <glyph glyph-name="a" unicode="a" horiz-adv-x="549" 
d="M425 471.5c38 -31.667 56.999 -77.5 56.999 -137.5v-334h-83v58c-35.333 -42.667 -91 -64 -167 -64c-62 0 -109.167 13.167 -141.5 39.5s-48.5 64.5 -48.5 114.5c0 48 16.667 84.833 50 110.5s82 38.5 146 38.5h159v35c0 77.333 -45 116 -135 116
c-39.333 0 -69.166 -7.33301 -89.499 -22s-30.5 -35.334 -30.5 -62v-3h-83v3c0 48 18 85.833 54 113.5s85.333 41.5 148 41.5c71.333 0 126 -15.833 164 -47.5zM360.999 95c24 21.333 35.999 54.001 35.999 98.001v40h-145c-43.333 0 -75.166 -6.83301 -95.499 -20.5
s-30.5 -34.834 -30.5 -63.501c0 -29.333 10 -51 30 -65s51 -21 93 -21c50.667 0 88 10.667 112 32z" />
    <glyph glyph-name="b" unicode="b" horiz-adv-x="580" 
d="M218 10c-27.334 12.667 -49.667 31.333 -67 56v-66h-84v690h85v-247c16.667 24.667 39 44 67 58s59.667 21 95 21c64.667 0 116.5 -20.667 155.5 -62s58.5 -100 58.5 -176v-54c0 -76.667 -19.5 -135.667 -58.5 -177s-90.833 -62 -155.5 -62
c-36.667 0 -68.667 6.33301 -96 19zM406 107.999c24.667 28 36.998 69.999 36.998 125.999v46c0 56 -12.333 97.667 -37 125s-60 41 -106 41s-82.167 -14.167 -108.5 -42.5s-39.5 -66.5 -39.5 -114.5v-67c0 -47.333 13.333 -85.166 40 -113.499s63.334 -42.5 110.001 -42.5
c44.667 0 79.334 14 104.001 42z" />
    <glyph glyph-name="c" unicode="c" horiz-adv-x="553" 
d="M114 52.5c-41.333 41 -61.999 100.5 -61.999 178.5v51c0 78 20.667 137.5 62 178.5s98.666 61.5 171.999 61.5c67.333 0 120 -16.5 158 -49.5s57 -78.5 57 -136.5v-5h-83v5c0 34.667 -11.333 61.667 -34 81s-55 29 -97 29c-100 0 -150 -55.333 -150 -166v-47
c0 -111.333 50 -167 150 -167c42 0 74.333 9.66699 97 29s34 46 34 80v4h83v-4c0 -56.667 -18.833 -101.5 -56.5 -134.5s-90.167 -49.5 -157.5 -49.5c-74 0 -131.667 20.5 -173 61.5z" />
    <glyph glyph-name="d" unicode="d" horiz-adv-x="580" 
d="M109 52.5c-38 41 -56.999 99.833 -56.999 176.5v55c0 76 19.167 134.667 57.5 176s89.166 62 152.499 62c36 0 68.5 -7 97.5 -21s51.833 -33 68.5 -57v246h84v-690h-84v67c-16.667 -24.667 -39 -43.5 -67 -56.5s-60.333 -19.5 -97 -19.5c-65.333 0 -117 20.5 -155 61.5z
M389.001 108c26 28 39 66 39 114v67c0 48.667 -13.167 87 -39.5 115s-62.833 42 -109.5 42c-45.333 0 -80.333 -13.833 -105 -41.5s-37 -69.5 -37 -125.5v-46c0 -56 12.5 -97.833 37.5 -125.5s60.167 -41.5 105.5 -41.5c46.667 0 83 14 109 42z" />
    <glyph glyph-name="e" unicode="e" horiz-adv-x="557" 
d="M137 235l-0.000976562 -4c0 -110.667 51.667 -166 155 -166c39.333 0 69.833 9.16699 91.5 27.5s32.834 41.5 33.501 69.5v3h84v-4c-0.666992 -32 -9.5 -60.833 -26.5 -86.5s-41.333 -46 -73 -61s-68.834 -22.5 -111.5 -22.5c-74.667 0 -133 20.833 -175 62.5
s-63 102.5 -63 182.5v41c0 78.667 20 139.167 60 181.5s95.667 63.5 167 63.5c70 0 125 -19.5 165 -58.5s60 -95.167 60 -168.5v-60h-367zM177.499 410.5c-24.333 -24.333 -37.834 -61.5 -40.501 -111.5h282v9c0 46.667 -12.167 81.5 -36.5 104.5s-58.833 34.5 -103.5 34.5
c-43.333 0 -77.166 -12.167 -101.499 -36.5z" />
    <glyph glyph-name="f" unicode="f" horiz-adv-x="364" 
d="M221.5 608.5c-13 -12.333 -19.5 -31.5 -19.5 -57.5v-39h128v-64h-128v-448h-85v448h-72v64h72v36c0 46 13 81.167 39 105.5s63.667 36.5 113 36.5h61v-63h-47c-28 0 -48.5 -6.16699 -61.5 -18.5z" />
    <glyph glyph-name="g" unicode="g" horiz-adv-x="580" 
d="M124.5 -123.5c-37 24.333 -57.501 60.166 -61.501 107.499h83c6 -24.667 19.667 -42.834 41 -54.501s52 -17.5 92 -17.5c50.667 0 88.167 10.333 112.5 31s36.5 52.334 36.5 95.001v54c-16.667 -25.333 -39 -44.5 -67 -57.5s-60.333 -19.5 -97 -19.5
c-64.667 0 -116.167 20.167 -154.5 60.5s-57.5 97.5 -57.5 171.5v39c0 75.333 19 133.5 57 174.5s89 61.5 153 61.5c36 0 68.5 -6.83301 97.5 -20.5s51.833 -32.5 68.5 -56.5v67h84v-468c0 -65.333 -20.167 -115.666 -60.5 -150.999s-98.166 -53 -173.499 -53
c-65.333 0 -116.5 12.167 -153.5 36.5zM389.499 131c25.667 26.667 38.5 64.667 38.5 114v47c0 47.333 -13.167 85 -39.5 113s-62.833 42 -109.5 42c-45.333 0 -80.333 -13.833 -105 -41.5s-37 -69.167 -37 -124.5v-29c0 -53.333 12.5 -93.5 37.5 -120.5
s59.833 -40.5 104.5 -40.5c48 0 84.833 13.333 110.5 40z" />
    <glyph glyph-name="h" unicode="h" 
d="M67 690l85 -0.000976562v-247c18 24.667 40.833 43.334 68.5 56.001s58.834 19 93.501 19c60.667 0 107.667 -17.333 141 -52s50 -82.667 50 -144v-322h-85v311c0 43.333 -10.833 76 -32.5 98s-53.167 33 -94.5 33c-42.667 0 -76.834 -12.667 -102.501 -38
s-38.5 -60 -38.5 -104v-300h-85v690z" />
    <glyph glyph-name="i" unicode="i" horiz-adv-x="234" 
d="M74 689h85v-92h-85v92zM74 512h85v-512h-85v512z" />
    <glyph glyph-name="j" unicode="j" horiz-adv-x="232" 
d="M71 690h86v-93h-86v93zM-54 -77l45 0.000976562c29.333 0 50.333 6.33301 63 19s19 34 19 64v506h85v-512c0 -50.667 -13.167 -88.834 -39.5 -114.501s-65.5 -38.5 -117.5 -38.5h-55v76z" />
    <glyph glyph-name="k" unicode="k" horiz-adv-x="558" 
d="M259 258l-107 -107v-151h-85v690h85v-437l255 259h107l-197 -196l224 -316h-101z" />
    <glyph glyph-name="l" unicode="l" horiz-adv-x="302" 
d="M105.5 37.5c-25.667 25 -38.5 63.833 -38.5 116.5v536h85v-531c0 -30 6.16699 -51.333 18.5 -64s33.833 -19 64.5 -19h44v-76h-55c-53.333 0 -92.833 12.5 -118.5 37.5z" />
    <glyph glyph-name="m" unicode="m" horiz-adv-x="912" 
d="M67 512l84 -0.000976562v-69c18 24.667 41 43.334 69 56.001s59 19 93 19c34.667 0 65.667 -7.16699 93 -21.5s49 -34.5 65 -60.5c21.333 28 46.5 48.667 75.5 62s63.5 20 103.5 20c62 0 109.833 -17.167 143.5 -51.5s50.5 -82.5 50.5 -144.5v-322h-85v311
c0 43.333 -10.667 76 -32 98s-52.333 33 -93 33c-43.334 0 -76.667 -11.5 -99.999 -34.5c-23.333 -23 -35 -55.833 -35 -98.5v-309h-86v312c0 42.667 -10.5 75 -31.5 97s-50.5 33 -88.5 33c-42.667 0 -76.834 -12.667 -102.501 -38s-38.5 -60 -38.5 -104v-300h-85v512z" />
    <glyph glyph-name="n" unicode="n" 
d="M67 512l84.001 -0.000976562v-69c18 24.667 41 43.334 69 56.001s59.333 19 94 19c60.667 0 107.667 -17.333 141 -52s50 -82.667 50 -144v-322h-85v311c0 43.333 -10.833 76 -32.5 98s-53.167 33 -94.5 33c-42.667 0 -76.834 -12.667 -102.501 -38s-38.5 -60 -38.5 -104
v-300h-85v512z" />
    <glyph glyph-name="o" unicode="o" 
d="M114.5 52.5c-41.667 41 -62.5 100.499 -62.5 178.499v51c0 78 20.833 137.5 62.5 178.5s99.167 61.5 172.5 61.5c72.667 0 129.667 -20.667 171 -62s62 -100.666 62 -177.999v-51c0 -78 -20.667 -137.5 -62 -178.5s-98.333 -61.5 -171 -61.5
c-73.333 0 -130.833 20.5 -172.5 61.5zM435 232.999v47c0 110.667 -49.667 166 -149 166s-149 -55.333 -149 -166v-47c0 -111.333 49.667 -167 149 -167s149 55.667 149 167z" />
    <glyph glyph-name="p" unicode="p" horiz-adv-x="580" 
d="M67 512l84 -0.000976562v-69c17.333 24.667 40 43.834 68 57.501s59.667 20.5 95 20.5c64.667 0 116.5 -20.5 155.5 -61.5s58.5 -99.5 58.5 -175.5v-54c0 -76.667 -19.5 -135.667 -58.5 -177s-90.833 -62 -155.5 -62c-73.333 0 -127.333 25 -162 75v-228h-85v674z
M406 107.999c24.667 28 36.998 69.999 36.998 125.999v45c0 56 -12.333 97.833 -37 125.5s-60 41.5 -106 41.5s-82.167 -14.167 -108.5 -42.5s-39.5 -66.5 -39.5 -114.5v-67c0 -47.333 13.333 -85.166 40 -113.499s63.334 -42.5 110.001 -42.5
c44.667 0 79.334 14 104.001 42z" />
    <glyph glyph-name="q" unicode="q" horiz-adv-x="580" 
d="M428 67c-16.667 -24.667 -39.168 -43.5 -67.501 -56.5s-60.5 -19.5 -96.5 -19.5c-65.333 0 -117 20.5 -155 61.5s-57 99.833 -57 176.5v55c0 76 19.167 134.5 57.5 175.5s89.5 61.5 153.5 61.5c36 0 68.333 -6.83301 97 -20.5s51.334 -32.5 68.001 -56.5v68h84v-674h-84
v229zM388.999 108c26 28 39 66 39 114v67c0 48.667 -13.167 87 -39.5 115s-62.833 42 -109.5 42c-45.333 0 -80.333 -13.833 -105 -41.5s-37 -69.5 -37 -125.5v-46c0 -56 12.5 -97.833 37.5 -125.5s60.167 -41.5 105.5 -41.5c46.667 0 83 14 109 42z" />
    <glyph glyph-name="r" unicode="r" horiz-adv-x="378" 
d="M67 512h83.999v-72c17.333 26.667 40 46.5 68 59.5s59.667 19.5 95 19.5c14.667 0 28.334 -1 41.001 -3v-81c-18 5.33301 -36.667 8 -56 8c-44 0 -79.5 -13.333 -106.5 -40s-40.5 -62.667 -40.5 -108v-295h-85v512z" />
    <glyph glyph-name="s" unicode="s" horiz-adv-x="517" 
d="M99 36.5c-38 28.333 -56.998 67.167 -56.998 116.5v3h81v-2c0 -27.333 11.333 -49 34 -65s57.667 -24 105 -24c42.667 0 76.167 7 100.5 21s36.5 34.333 36.5 61c0 22 -8.83301 38.667 -26.5 50s-45.834 19 -84.5 23l-73 9c-56.667 6.66699 -98.334 21.167 -125.001 43.5
s-40 53.833 -40 94.5c0 47.333 18.667 84.5 56 111.5s88 40.5 152 40.5c66.667 0 119 -13.667 157 -41s57 -64.333 57 -111v-4h-81v3c0 27.334 -11.5 48.167 -34.5 62.5s-55.5 21.5 -97.5 21.5c-42.667 0 -74.667 -6.66699 -96 -20s-32 -32.333 -32 -57
c0 -21.333 7.66699 -37.5 23 -48.5s41.666 -18.5 78.999 -22.5l78 -10c57.333 -6.66699 99.833 -21.334 127.5 -44c27.667 -22.667 41.5 -54.667 41.5 -96c0 -50 -19.833 -88.833 -59.5 -116.5s-93.834 -41.5 -162.5 -41.5c-68 0 -121 14.167 -159 42.5z" />
    <glyph glyph-name="t" unicode="t" horiz-adv-x="383" 
d="M206 448v-296c0 -28 6.33301 -48 19 -60s33.667 -18 63 -18h43v-74h-57c-102 0 -153 49 -153 147v301h-90v64h90v111l85 35v-146h136v-64h-136z" />
    <glyph glyph-name="u" unicode="u" 
d="M123 47.5c-37.333 36.333 -56 88.166 -56 155.499v309h85v-300c0 -95.333 44.667 -143 134 -143c46 0 79.833 11.833 101.5 35.5s32.5 59.5 32.5 107.5v300h85v-309c0 -67.333 -18.833 -119.166 -56.5 -155.499s-92.167 -54.5 -163.5 -54.5
c-70.667 0 -124.667 18.167 -162 54.5z" />
    <glyph glyph-name="v" unicode="v" horiz-adv-x="513" 
d="M13 512h91l153 -406l152 406h91l-202 -512h-83z" />
    <glyph glyph-name="w" unicode="w" horiz-adv-x="820" 
d="M13 512h91l130 -404l141 404h69l142 -404l130 404h91l-177 -512h-84l-137 390l-137 -390h-83z" />
    <glyph glyph-name="x" unicode="x" horiz-adv-x="488" 
d="M384 0l-141 199l-139 -199h-91l185 262l-176 250h91l130 -184l129 184h91l-176 -247l188 -265h-91z" />
    <glyph glyph-name="y" unicode="y" horiz-adv-x="513" 
d="M500 512l-221 -563c-14 -36 -34.333 -62 -61 -78s-61.667 -24 -105 -24h-36v77h36c30 0 52.333 4.33301 67 13s26 24 34 46l6 17l-207 512h91l157 -403l150 403h89z" />
    <glyph glyph-name="z" unicode="z" horiz-adv-x="500" 
d="M448 436l-298 -361h298v-75h-396v75l296 361h-296v76h396v-76z" />
    <glyph glyph-name="braceleft" unicode="{" horiz-adv-x="377" 
d="M140 31l0.000976562 179.999c0 29.333 -6.33301 50 -19 62s-35.667 18.333 -69 19v77c33.333 0.666992 56.333 7 69 19s19 32.333 19 61v176c0 76.667 37.333 115 112 115h73v-73h-50c-17.333 0 -29.833 -4 -37.5 -12s-11.5 -21 -11.5 -39v-164
c0 -37.333 -4.66699 -64.833 -14 -82.5c-9.33398 -17.667 -25.667 -30.834 -49 -39.5c23.333 -8.66699 39.666 -21.667 48.999 -39s14 -44.666 14 -81.999v-169c0 -18 3.83301 -31 11.5 -39s20.167 -12 37.5 -12h50v-73h-73c-74.667 0 -112 38.333 -112 115z" />
    <glyph glyph-name="bar" unicode="|" horiz-adv-x="290" 
d="M104 740h82v-823h-82v823z" />
    <glyph glyph-name="braceright" unicode="}" horiz-adv-x="377" 
d="M52 -11h50.001c17.333 0 29.833 4 37.5 12s11.5 21 11.5 39v169c0 37.333 4.66699 64.666 14 81.999s25.666 30.333 48.999 39c-23.334 8.66699 -39.667 21.834 -49 39.501s-14 45.167 -14 82.5v164c0 18 -3.83301 31 -11.5 39s-20.167 12 -37.5 12h-50v73h72
c37.333 0 65.333 -9.5 84 -28.5s28 -47.833 28 -86.5v-176c0 -28.667 6.33301 -49 19 -61s36 -18.333 70 -19v-77c-34 -0.666992 -57.333 -7 -70 -19s-19 -32.667 -19 -62v-180c0 -38.667 -9.33301 -67.5 -28 -86.5s-46.667 -28.5 -84 -28.5h-72v73z" />
    <glyph glyph-name="asciitilde" unicode="~" horiz-adv-x="509" 
d="M43 245c14.667 32 33.1689 56.168 55.502 72.501s47.166 24.5 74.499 24.5c17.333 0 33 -3 47 -9s29.333 -14.333 46 -25c16.667 -9.33301 29.5 -16 38.5 -20s18.5 -6 28.5 -6c15.333 0 28.5 4.33301 39.5 13s22.5 24 34.5 46l58 -36
c-14.668 -32 -33.335 -56.333 -56.001 -73c-22.667 -16.667 -47.667 -25 -75 -25c-16.667 0 -31.834 2.83301 -45.5 8.5c-13.667 5.66699 -29.5 14.167 -47.5 25.5c-14 9.33301 -26 16.166 -36 20.499s-20 6.5 -30 6.5c-15.333 0 -28.333 -4.16699 -39 -12.5
s-22 -23.5 -34 -45.5z" />
    <glyph glyph-name="uni00A0" unicode="&#xa0;" horiz-adv-x="217" 
 />
    <glyph glyph-name="exclamdown" unicode="&#xa1;" horiz-adv-x="239" 
d="M69 512h102v-106h-102v106zM87 306h66l17 -459h-101z" />
    <glyph glyph-name="cent" unicode="&#xa2;" horiz-adv-x="553" 
d="M418 331l-0.000976562 5c0 30.667 -8.83301 55.334 -26.5 74.001s-42.834 30 -75.5 34v-376c32.667 4 57.834 15.333 75.501 34s26.5 43 26.5 73v4h83v-4c0 -52.667 -16.167 -95.167 -48.5 -127.5s-77.833 -50.833 -136.5 -55.5v-92h-61v92
c-64 6 -113.833 29.333 -149.5 70s-53.5 97 -53.5 169v51c0 72 17.833 128.333 53.5 169s85.5 64 149.5 70v90h61v-90c58.667 -4.66699 104.167 -23.334 136.5 -56.001s48.5 -75.667 48.5 -129v-5h-83zM254.999 68v376c-78.667 -11.333 -118 -66 -118 -164v-47
c0 -98.667 39.333 -153.667 118 -165z" />
    <glyph glyph-name="sterling" unicode="&#xa3;" horiz-adv-x="501" 
d="M471 82v-81.999h-417v77c18.667 8.66699 32 20.667 40 36s12 36.333 12 63v111h-75v80h75v135c0 64 15.667 113 47 147s77 51 137 51c57.333 0 101.333 -14.5 132 -43.5s46 -70.5 46 -124.5h-87c0 30 -7.5 52.167 -22.5 66.5s-38.167 21.5 -69.5 21.5
c-61.333 0 -92 -35.333 -92 -106v-147h170v-80h-170v-101c0 -23.333 -3 -43.333 -9 -60s-15.333 -31.334 -28 -44.001h311z" />
    <glyph glyph-name="currency" unicode="&#xa4;" horiz-adv-x="606" 
d="M413 157c-32.667 -22 -69.667 -32.999 -111 -32.999s-78.333 11 -111 33l-69 -68l-55 56l68 68c-21.333 33.333 -32 70 -32 110c0 42 11 78.667 33 110l-69 70l55 55l69 -68c33.333 21.333 70.333 32 111 32c41.333 0 78 -10.667 110 -32l70 68l55 -55l-69 -69
c22.667 -33.333 34 -70.333 34 -111s-11 -77.334 -33 -110.001l69 -69l-55 -56zM390.5 233.001c23 24 34.5 54 34.5 90s-11.5 66 -34.5 90s-52.5 36 -88.5 36c-35.333 0 -64.666 -12 -87.999 -36s-35 -54 -35 -90s11.667 -66 35 -90s52.666 -36 87.999 -36
c36 0 65.5 12 88.5 36z" />
    <glyph glyph-name="yen" unicode="&#xa5;" horiz-adv-x="532" 
d="M221 143h-163v66h163v62h-163v67h142l-191 352h100l158 -311l156 311h100l-190 -352h143v-67h-164v-62h164v-66h-164v-143h-91v143z" />
    <glyph glyph-name="brokenbar" unicode="&#xa6;" horiz-adv-x="290" 
d="M104 725h82v-352h-82v352zM104 285h82v-353h-82v353z" />
    <glyph glyph-name="section" unicode="&#xa7;" horiz-adv-x="559" 
d="M136 -124.5c-32.667 29 -49.001 70.165 -49.001 123.498h82c0 -61.333 36 -92 108 -92c34.667 0 60.834 6.83301 78.501 20.5s26.5 33.834 26.5 60.501c0 30.667 -11.5 53 -34.5 67s-61.167 26.667 -114.5 38c-107.333 24.667 -161 84.334 -161 179.001
c0 39.333 9.33301 72.833 28 100.5s46.334 47.834 83.001 60.501c-30.667 12.667 -52.667 29.667 -66 51s-20 47 -20 77c0 46.668 16.667 83.835 50 111.5c33.333 27.667 78.666 41.5 135.999 41.5c59.334 0 104.667 -14.167 136 -42.5s47 -67.833 47 -118.5h-82
c0 57.333 -34 86 -102 86c-32 0 -56.5 -6.66699 -73.5 -20c-17 -13.3359 -25.5 -32.6689 -25.5 -58c0 -20.667 5.33301 -37.334 16 -50.001c10.667 -12.6689 26 -22.8359 46 -30.501c20 -7.66699 47.667 -15.167 83 -22.5c45.334 -10.667 83.167 -29.5 113.5 -56.5
s45.5 -67.833 45.5 -122.5c0 -40.667 -9.33301 -74.667 -28 -102s-45.334 -46.666 -80 -57.999c30 -12.667 52.333 -29.667 67 -51s22 -48.333 22 -81c0 -48.667 -17.167 -86.667 -51.5 -114s-80.833 -41 -139.5 -41c-61.333 0 -108.333 14.5 -141 43.5zM369.999 194.998
c20.667 18.667 31 45.332 31 79.999c0 35.333 -10.333 62.333 -31 81s-50.667 28 -90 28c-40 0 -70.333 -9.33301 -91 -28s-31 -45.667 -31 -81s10.333 -62.166 31 -80.499s51 -27.5 91 -27.5c39.333 0 69.333 9.33301 90 28z" />
    <glyph glyph-name="dieresis" unicode="&#xa8;" horiz-adv-x="500" 
d="M100 676h85v-95h-85v95zM315 676h84v-95h-84v95z" />
    <glyph glyph-name="copyright" unicode="&#xa9;" horiz-adv-x="803" 
d="M224 35c-52 29.333 -92.167 70.5 -120.5 123.5s-42.5 113.833 -42.5 182.5s14.167 129.5 42.5 182.5s68.5 94.167 120.5 123.5s111.667 44 179 44c67.334 0 126.834 -14.667 178.5 -44c51.667 -29.333 91.667 -70.5 120 -123.5s42.5 -113.833 42.5 -182.5
c0 -69.333 -14.167 -130.333 -42.5 -183s-68.333 -93.667 -120 -123s-111.167 -44 -178.5 -44s-127 14.667 -179 44zM549.5 86c41.668 24 73.8359 58.001 96.501 102.001c22.667 44 34 95 34 153s-11.333 109 -34 153s-54.834 77.833 -96.501 101.5s-90.5 35.5 -146.5 35.5
s-105 -11.833 -147 -35.5s-74.333 -57.5 -97 -101.5s-34 -95 -34 -153c0 -58.667 11.333 -109.834 34 -153.501s55 -77.5 97 -101.5s91 -36 147 -36s104.833 12 146.5 36zM280.501 192.501c-31 29.667 -46.5 72.833 -46.5 129.5v41c0 56 15.5 99 46.5 129
s72.833 45 125.5 45c49.334 0 88.167 -11.667 116.5 -35s42.5 -55 42.5 -95v-4h-66v3c0 23.333 -8.16699 41.333 -24.5 54s-38.833 19 -67.5 19c-34 0 -60.167 -9.66699 -78.5 -29s-27.5 -49 -27.5 -89v-37c0 -79.333 35.667 -119 107 -119c28.667 0 51 6.33301 67 19
s24 30.667 24 54v4h65v-4c0 -40 -14.167 -71.667 -42.5 -95s-66.833 -35 -115.5 -35c-52.667 0 -94.5 14.833 -125.5 44.5z" />
    <glyph glyph-name="ordfeminine" unicode="&#xaa;" horiz-adv-x="382" 
d="M327 632v-201.999h-68v33c-24.667 -24.667 -58 -37 -100 -37c-37.333 0 -66 8.5 -86 25.5s-30 40.5 -30 70.5c0 30.6689 10.667 53.8359 32 69.5c21.333 15.667 52.333 23.5 93 23.5h88v21c0 19.333 -5.83301 33.666 -17.5 42.999s-29.5 14 -53.5 14
c-21.333 0 -37.666 -3.5 -48.999 -10.5s-17 -16.833 -17 -29.5v-2h-66v2c0 30 11.667 53.333 35 70s56.666 25 99.999 25c92.667 0 139 -38.667 139 -116zM236.5 500.501c13 11 19.501 28.167 19.501 51.5v14h-78c-22.667 0 -39.334 -3.33301 -50.001 -10s-16 -17 -16 -31
c0 -27.333 21 -41 63 -41c28 0 48.5 5.5 61.5 16.5zM8.00098 700.001z" />
    <glyph glyph-name="guillemotleft" unicode="&#xab;" horiz-adv-x="552" 
d="M23 264l233 205v-91l-132 -114l132 -114v-91zM252 264l233 205v-91l-132 -114l132 -114v-91z" />
    <glyph glyph-name="logicalnot" unicode="&#xac;" horiz-adv-x="509" 
d="M370 261h-317v77h403v-209h-86v132z" />
    <glyph glyph-name="uni00AD" unicode="&#xad;" horiz-adv-x="422" 
d="M52 387h318v-81h-318v81z" />
    <glyph glyph-name="registered" unicode="&#xae;" horiz-adv-x="519" 
d="M162.5 332c-28.333 16.667 -50.5 39.5 -66.5 68.5s-24 61.833 -24 98.5c0 36 8 68.5 24 97.5s38.333 51.833 67 68.5s60.667 25 96 25c36 0 68.167 -8.33301 96.5 -25c28.334 -16.667 50.667 -39.5 67 -68.5s24.5 -61.5 24.5 -97.5c0 -36.667 -8 -69.5 -24 -98.5
s-38.333 -51.833 -67 -68.5s-61 -25 -97 -25s-68.167 8.33301 -96.5 25zM368.5 385c28.333 29.333 42.5 67.333 42.5 114c0 46 -14.333 83.667 -43 113s-65 44 -109 44c-44.667 0 -80.834 -14.667 -108.501 -44s-41.5 -67 -41.5 -113c0 -46.667 13.833 -84.667 41.5 -114
s63.834 -44 108.501 -44s81.167 14.667 109.5 44zM188 607l82 0.000976562c22.667 0 40.167 -5.5 52.5 -16.5s18.5 -26.833 18.5 -47.5c0 -28.667 -12.333 -48.334 -37 -59.001l42 -91h-43l-40 86h-34v-86h-41v214zM268 514.001c22 0 33 9.66699 33 29
c0 18.667 -11 28 -33 28h-39v-57h39z" />
    <glyph glyph-name="macron" unicode="&#xaf;" horiz-adv-x="500" 
d="M98 667h305v-77h-305v77z" />
    <glyph glyph-name="degree" unicode="&#xb0;" horiz-adv-x="401" 
d="M101 459.5c-26.667 27 -40.001 60.5 -40.001 100.5s13.333 73.333 40 100s60.334 40 101.001 40c39.333 0 72.5 -13.333 99.5 -40s40.5 -60 40.5 -100c0 -26 -6.16699 -49.833 -18.5 -71.5s-29.166 -38.667 -50.499 -51s-45 -18.5 -71 -18.5
c-40.667 0 -74.334 13.5 -101.001 40.5zM259.999 500c15.333 16 23.001 36 23.001 60c0 24.667 -7.66699 45 -23 61c-15.334 16 -34.667 24 -58 24c-24 0 -43.667 -8 -59 -24s-23 -36.333 -23 -61c0 -24 7.66699 -44 23 -60s35 -24 59 -24c23.333 0 42.666 8 57.999 24z" />
    <glyph glyph-name="plusminus" unicode="&#xb1;" horiz-adv-x="509" 
d="M214 280h-161v81h161v161h81v-161h161v-81h-161v-161h-81v161zM53 70h403v-81h-403v81z" />
    <glyph glyph-name="uni00B2" unicode="&#xb2;" horiz-adv-x="375" 
d="M51 490l159 166.001c13.333 13.333 23 25.5 29 36.5s9 22.833 9 35.5v6c0 18 -5.16699 31.833 -15.5 41.5s-25.833 14.5 -46.5 14.5s-36.5 -4.83301 -47.5 -14.5s-16.5 -23.834 -16.5 -42.501v-7h-75v9c0 37.333 12.5 66.5 37.5 87.5s59.5 31.5 103.5 31.5
c43.333 0 77.166 -10.5 101.499 -31.5s36.5 -49.5 36.5 -85.5v-8c0 -22 -4.66699 -42 -14 -60s-24.666 -37.333 -45.999 -58l-107 -114h169v-67h-277v60z" />
    <glyph glyph-name="uni00B3" unicode="&#xb3;" horiz-adv-x="373" 
d="M82 453.5c-24 19.667 -36.001 47.498 -36.001 83.498v8h69v-6c0 -34.667 22.667 -52 68 -52s68 19 68 57v8c0 20.667 -6 36 -18 46s-30.667 15 -56 15h-24v65h24c44.667 0 67 17.667 67 53v7c0 34.667 -21 52 -63 52c-20.667 0 -36.5 -4.33301 -47.5 -13
s-16.5 -21 -16.5 -37v-7h-69v7c0 36 12 64 36 84s57.333 30 100 30s75.834 -9.66699 99.501 -29c23.667 -19.3359 35.5 -45.6689 35.5 -78.999v-8c0 -41.333 -19.333 -70.333 -58 -87c43.333 -16 65 -48.667 65 -98v-9c0 -37.333 -12.667 -66.666 -38 -87.999
s-60 -32 -104 -32s-78 9.83301 -102 29.5z" />
    <glyph glyph-name="acute" unicode="&#xb4;" horiz-adv-x="500" 
d="M268 705h105l-135 -128h-79z" />
    <glyph glyph-name="uni00B5" unicode="&#xb5;" horiz-adv-x="571" 
d="M67 512l85 -0.000976562v-313c0 -42 11.5 -74.167 34.5 -96.5s54.833 -33.5 95.5 -33.5c42.667 0 76 12.833 100 38.5s36 61.834 36 108.501v296h86v-512h-84v66c-34.667 -48 -84.667 -72 -150 -72c-52 0 -91.333 13 -118 39v-186h-85v665z" />
    <glyph glyph-name="paragraph" unicode="&#xb6;" horiz-adv-x="681" 
d="M325 269l-2.00098 -0.000976562c-80.667 0 -142.667 18.333 -186 55s-65 88.334 -65 155.001c0 67.333 20.833 119.333 62.5 156s99.834 55 174.501 55h264v-843h-80v767h-88v-767h-80v422z" />
    <glyph glyph-name="periodcentered" unicode="&#xb7;" horiz-adv-x="198" 
d="M48 326h102v-107h-102v107z" />
    <glyph glyph-name="cedilla" unicode="&#xb8;" horiz-adv-x="500" 
d="M247 12h73l-72 -164h-86z" />
    <glyph glyph-name="uni00B9" unicode="&#xb9;" horiz-adv-x="265" 
d="M124 767l-85 -53v81l85 52h78v-417h-78v337z" />
    <glyph glyph-name="ordmasculine" unicode="&#xba;" horiz-adv-x="382" 
d="M84 463c-25.333 24.667 -38 60.334 -38 107.001v35c0 46 12.833 81.333 38.5 106s61.167 37 106.5 37s81 -12.333 107 -37s39 -60 39 -106v-35c0 -46.667 -12.833 -82.334 -38.5 -107.001s-61.5 -37 -107.5 -37s-81.667 12.333 -107 37zM246 510
c12.667 13.333 19 33.333 19 60v35c0 26 -6.33301 45.667 -19 59s-31 20 -55 20s-42.333 -6.66699 -55 -20s-19 -33 -19 -59v-35c0 -26.667 6.33301 -46.667 19 -60s31 -20 55 -20s42.333 6.66699 55 20zM5 700z" />
    <glyph glyph-name="guillemotright" unicode="&#xbb;" horiz-adv-x="552" 
d="M67 150l132 114l-132 114v91l234 -205l-234 -205v91zM296 150l132 114l-132 114v91l234 -205l-234 -205v91z" />
    <glyph glyph-name="onequarter" unicode="&#xbc;" horiz-adv-x="806" 
d="M588 692l-381 -692h-73l380 692h74zM114 273v336l-86 -53v82l86 52h78v-417h-78zM770 70h-41v-70h-78v70h-193v67l139 280h78l-138 -280h114v95h78v-95h41v-67z" />
    <glyph glyph-name="onehalf" unicode="&#xbd;" horiz-adv-x="817" 
d="M509 692h74l-381 -692h-73zM114 609l-86 -53v82l86 52h78v-417h-78v336zM493 60l159 166c13.333 13.333 23 25.5 29 36.5s9 22.833 9 35.5v6c0 18 -5.16699 31.833 -15.5 41.5s-25.833 14.5 -46.5 14.5s-36.5 -4.83301 -47.5 -14.5s-16.5 -23.834 -16.5 -42.5v-7h-75v9
c0 37.333 12.5 66.5 37.5 87.5s59.5 31.5 103.5 31.5c43.333 0 77.166 -10.5 101.499 -31.5s36.5 -49.5 36.5 -85.5v-8c0 -22 -4.66699 -42 -14 -60c-9.33594 -18 -24.6689 -37.333 -45.999 -58l-107 -114h169v-67h-277v60z" />
    <glyph glyph-name="threequarters" unicode="&#xbe;" horiz-adv-x="909" 
d="M287 298c-25.333 -21.333 -59.666 -32 -102.999 -32c-44.667 0 -79 10 -103 30s-36 48 -36 84v7h69v-6c0 -16.667 5.83301 -29.334 17.5 -38c11.667 -8.66699 28.5 -13 50.5 -13c46 0 69 18.667 69 56v9c0 40.667 -24.667 61 -74 61h-25v64h24c45.333 0 68 18 68 54v7
c0 34.667 -21.333 52 -64 52c-20.667 0 -36.334 -4.33301 -47.001 -13s-16 -21.334 -16 -38.001v-6h-70v7c0 36 12 64 36 84s57.333 30 100 30s76 -9.66699 100 -29s36 -46 36 -80v-7c0 -41.333 -19.333 -70.333 -58 -87c42.667 -15.333 64 -48.333 64 -99v-9
c0 -37.333 -12.667 -66.666 -38 -87.999zM691 692l-381 -692h-73l380 692h74zM873 70h-41v-70h-78v70h-193v67l139 280h78l-138 -280h114v95h78v-95h41v-67z" />
    <glyph glyph-name="questiondown" unicode="&#xbf;" horiz-adv-x="485" 
d="M199 512h101v-104h-101v104zM96.5 -118c-36.333 30 -54.499 71.333 -54.499 124c0 28 4.83301 53.5 14.5 76.5s25.5 45.5 47.5 67.5l65 62c14.667 14 24.5 27.167 29.5 39.5s7.5 28.833 7.5 49.5v29h88v-33c0 -30.667 -3.66699 -55.167 -11 -73.5s-22 -37.833 -44 -58.5
l-56 -52c-18.667 -18 -31.834 -34.667 -39.501 -50s-11.5 -33 -11.5 -53c0 -30 10 -53 30 -69s49 -24 87 -24c76.667 0 115 35.333 115 106h87c-1.33301 -60 -19.5 -106 -54.5 -138s-84.833 -48 -149.5 -48c-64 0 -114.167 15 -150.5 45z" />
    <glyph glyph-name="Agrave" unicode="&#xc0;" horiz-adv-x="666" 
d="M501 156h-338l-62 -156h-95l288 690h77l289 -690h-96zM470 233l-138 345l-138 -345h276zM180 878h108l111 -128h-80z" />
    <glyph glyph-name="Aacute" unicode="&#xc1;" horiz-adv-x="666" 
d="M501 156h-338l-62 -156h-95l288 690h77l289 -690h-96zM470 233l-138 345l-138 -345h276zM358 878h107l-139 -128h-80z" />
    <glyph glyph-name="Acircumflex" unicode="&#xc2;" horiz-adv-x="666" 
d="M501 156h-338l-62 -156h-95l288 690h77l289 -690h-96zM470 233l-138 345l-138 -345h276zM300 891h65l131 -146h-80l-83 90l-84 -90h-80z" />
    <glyph glyph-name="Atilde" unicode="&#xc3;" horiz-adv-x="666" 
d="M501 156h-338l-62 -156h-95l288 690h77l289 -690h-96zM470 233l-138 345l-138 -345h276zM186 819c13.333 12.667 26.3311 22 38.998 28s27 9 43 9c13.333 0 25.166 -1.66699 35.499 -5s22.166 -8.33301 35.499 -15c12.667 -6 23.5 -10.5 32.5 -13.5
s19.167 -4.5 30.5 -4.5c15.333 0 28.5 3 39.5 9s23.5 15.667 37.5 29v-72c-23.333 -24 -50.666 -36 -81.999 -36c-14 0 -26.167 1.66699 -36.5 5s-22.166 8.33301 -35.499 15c-13.333 6 -24.166 10.5 -32.499 13.5s-18.166 4.5 -29.499 4.5c-14.667 0 -27.5 -3 -38.5 -9
s-23.833 -15.667 -38.5 -29v71z" />
    <glyph glyph-name="Adieresis" unicode="&#xc4;" horiz-adv-x="666" 
d="M501 156h-338l-62 -156h-95l288 690h77l289 -690h-96zM470 233l-138 345l-138 -345h276zM183 854h85v-95h-85v95zM398 854h84v-95h-84v95z" />
    <glyph glyph-name="Aring" unicode="&#xc5;" horiz-adv-x="666" 
d="M501 156h-338l-62 -156h-95l287 689c-16.667 7.33301 -29.834 18.5 -39.5 33.5c-9.66699 15 -14.5 32.5 -14.5 52.5c0 27.333 8.83301 50 26.5 68s40.167 27 67.5 27c26.667 0 49 -9 67 -27s27 -40.667 27 -68c0 -20 -5 -37.5 -15 -52.5s-23.333 -26.167 -40 -33.5
l288 -689h-96zM297 812.5c-9.33301 -9.66699 -14 -22.167 -14 -37.5c0 -14.667 4.66699 -27 14 -37s21.333 -15 36 -15s26.667 5 36 15s14 22.333 14 37c0 15.333 -4.66699 27.833 -14 37.5s-21.333 14.5 -36 14.5s-26.667 -4.83301 -36 -14.5zM470 233l-138 345l-138 -345
h276z" />
    <glyph glyph-name="AE" unicode="&#xc6;" horiz-adv-x="1000" 
d="M572 609v-218h330v-81h-330v-229h385v-81h-476v161h-276l-98 -161h-101l425 690h526v-81h-385zM481 238v376l-229 -376h229z" />
    <glyph glyph-name="Ccedilla" unicode="&#xc7;" horiz-adv-x="680" 
d="M530 475l-0.000976562 4c0 44.667 -15.5 79 -46.5 103s-75.167 36 -132.5 36c-67.333 0 -117.333 -18.333 -150 -55s-49 -94 -49 -172v-97c0 -75.333 16.5 -131 49.5 -167s83.167 -54 150.5 -54c57.333 0 101.333 12 132 36s46 58.667 46 104v4h90v-5
c0 -60 -18.333 -108.833 -55 -146.5s-87.667 -61.167 -153 -70.5l-65 -147h-86l74 143c-87.333 3.33301 -154.833 30.333 -202.5 81s-71.5 125 -71.5 223v101c0 100.667 25.333 176.5 76 227.5s122.334 76.5 215.001 76.5c83.333 0 149 -19.333 197 -58s72 -92.667 72 -162
v-5h-91z" />
    <glyph glyph-name="Egrave" unicode="&#xc8;" horiz-adv-x="597" 
d="M163 609v-218h335v-81h-335v-229h391v-81h-482v690h482v-81h-391zM157 878h108l111 -128h-80z" />
    <glyph glyph-name="Eacute" unicode="&#xc9;" horiz-adv-x="597" 
d="M163 609v-218h335v-81h-335v-229h391v-81h-482v690h482v-81h-391zM343 878h107l-139 -128h-80z" />
    <glyph glyph-name="Ecircumflex" unicode="&#xca;" horiz-adv-x="597" 
d="M163 609v-218h335v-81h-335v-229h391v-81h-482v690h482v-81h-391zM277 891h65l131 -146h-80l-83 90l-84 -90h-80z" />
    <glyph glyph-name="Edieresis" unicode="&#xcb;" horiz-adv-x="597" 
d="M163 609v-218h335v-81h-335v-229h391v-81h-482v690h482v-81h-391zM160 854h85v-95h-85v95zM375 854h84v-95h-84v95z" />
    <glyph glyph-name="Igrave" unicode="&#xcc;" horiz-adv-x="249" 
d="M79 690h91v-690h-91v690zM-28 878h108l111 -128h-80z" />
    <glyph glyph-name="Iacute" unicode="&#xcd;" horiz-adv-x="249" 
d="M79 690h91v-690h-91v690zM158 878h107l-139 -128h-80z" />
    <glyph glyph-name="Icircumflex" unicode="&#xce;" horiz-adv-x="249" 
d="M79 690h91v-690h-91v690zM92 891h65l131 -146h-80l-83 90l-84 -90h-80z" />
    <glyph glyph-name="Idieresis" unicode="&#xcf;" horiz-adv-x="249" 
d="M79 690h91v-690h-91v690zM-25 854h85v-95h-85v95zM190 854h84v-95h-84v95z" />
    <glyph glyph-name="Eth" unicode="&#xd0;" horiz-adv-x="725" 
d="M591 615c50 -50 75 -124.668 75 -224.001v-91c0 -99.333 -25.167 -174.166 -75.5 -224.499c-50.334 -50.333 -121.834 -75.5 -214.5 -75.5h-253v310h-89v81h89v299h255c92 0 163 -25 213 -75zM575 385.999c0 76 -16.167 132.167 -48.5 168.5s-81.833 54.5 -148.5 54.5
h-164v-218h170v-81h-170v-229h164c66.667 0 116.167 17.667 148.5 53s48.5 90 48.5 164v88z" />
    <glyph glyph-name="Ntilde" unicode="&#xd1;" horiz-adv-x="721" 
d="M649 690v-690h-91l-395 534v-534h-91v690h91l395 -535v535h91zM211 819c13.333 12.667 26.3291 22 38.9961 28s27 9 43 9c13.334 0 25.167 -1.66699 35.5 -5c10.334 -3.33301 22.167 -8.33301 35.5 -15c12.667 -6 23.5 -10.5 32.5 -13.5s19.167 -4.5 30.5 -4.5
c15.333 0 28.5 3 39.5 9s23.5 15.667 37.5 29v-72c-23.333 -24 -50.666 -36 -81.999 -36c-14 0 -26.167 1.66699 -36.5 5s-22.166 8.33301 -35.499 15c-13.333 6 -24.166 10.5 -32.499 13.5s-18.166 4.5 -29.499 4.5c-14.667 0 -27.5 -3 -38.5 -9s-23.833 -15.667 -38.5 -29
v71z" />
    <glyph glyph-name="Ograve" unicode="&#xd2;" horiz-adv-x="695" 
d="M135.5 67.5c-49.667 51 -74.5 126.833 -74.5 227.5v101c0 100.667 25.167 176.5 75.5 227.5s121.5 76.5 213.5 76.5c91.333 0 161.833 -25.5 211.5 -76.5s74.5 -126.833 74.5 -227.5v-101c0 -100.667 -25.167 -176.5 -75.5 -227.5s-121.5 -76.5 -213.5 -76.5
c-91.333 0 -161.833 25.5 -211.5 76.5zM497 127c32.667 36 49 91.668 49 167.001v97c0 78 -16.333 135.333 -49 171.999c-32.667 36.667 -82 55 -148 55c-66.667 0 -116.167 -18.333 -148.5 -55s-48.5 -94 -48.5 -172v-97c0 -75.333 16.167 -131 48.5 -167
s81.833 -54 148.5 -54c66 0 115.333 18 148 54zM196 878.001h108l111 -128h-80z" />
    <glyph glyph-name="Oacute" unicode="&#xd3;" horiz-adv-x="695" 
d="M135.5 67.5c-49.667 51 -74.5 126.833 -74.5 227.5v101c0 100.667 25.167 176.5 75.5 227.5s121.5 76.5 213.5 76.5c91.333 0 161.833 -25.5 211.5 -76.5s74.5 -126.833 74.5 -227.5v-101c0 -100.667 -25.167 -176.5 -75.5 -227.5s-121.5 -76.5 -213.5 -76.5
c-91.333 0 -161.833 25.5 -211.5 76.5zM497 127c32.667 36 49 91.668 49 167.001v97c0 78 -16.333 135.333 -49 171.999c-32.667 36.667 -82 55 -148 55c-66.667 0 -116.167 -18.333 -148.5 -55s-48.5 -94 -48.5 -172v-97c0 -75.333 16.167 -131 48.5 -167
s81.833 -54 148.5 -54c66 0 115.333 18 148 54zM372 878.001h107l-139 -128h-80z" />
    <glyph glyph-name="Ocircumflex" unicode="&#xd4;" horiz-adv-x="695" 
d="M135.5 67.5c-49.667 51 -74.5 126.833 -74.5 227.5v101c0 100.667 25.167 176.5 75.5 227.5s121.5 76.5 213.5 76.5c91.333 0 161.833 -25.5 211.5 -76.5s74.5 -126.833 74.5 -227.5v-101c0 -100.667 -25.167 -176.5 -75.5 -227.5s-121.5 -76.5 -213.5 -76.5
c-91.333 0 -161.833 25.5 -211.5 76.5zM497 127c32.667 36 49 91.668 49 167.001v97c0 78 -16.333 135.333 -49 171.999c-32.667 36.667 -82 55 -148 55c-66.667 0 -116.167 -18.333 -148.5 -55s-48.5 -94 -48.5 -172v-97c0 -75.333 16.167 -131 48.5 -167
s81.833 -54 148.5 -54c66 0 115.333 18 148 54zM316 891.001h65l131 -146h-80l-83 90l-84 -90h-80z" />
    <glyph glyph-name="Otilde" unicode="&#xd5;" horiz-adv-x="695" 
d="M135.5 67.5c-49.667 51 -74.5 126.833 -74.5 227.5v101c0 100.667 25.167 176.5 75.5 227.5s121.5 76.5 213.5 76.5c91.333 0 161.833 -25.5 211.5 -76.5s74.5 -126.833 74.5 -227.5v-101c0 -100.667 -25.167 -176.5 -75.5 -227.5s-121.5 -76.5 -213.5 -76.5
c-91.333 0 -161.833 25.5 -211.5 76.5zM497 127c32.667 36 49 91.668 49 167.001v97c0 78 -16.333 135.333 -49 171.999c-32.667 36.667 -82 55 -148 55c-66.667 0 -116.167 -18.333 -148.5 -55s-48.5 -94 -48.5 -172v-97c0 -75.333 16.167 -131 48.5 -167
s81.833 -54 148.5 -54c66 0 115.333 18 148 54zM202 819.001c13.333 12.667 26.3291 22 38.9961 28s27 9 43 9c13.334 0 25.167 -1.66699 35.5 -5c10.334 -3.33301 22.167 -8.33301 35.5 -15c12.667 -6 23.5 -10.5 32.5 -13.5s19.167 -4.5 30.5 -4.5c15.333 0 28.5 3 39.5 9
s23.5 15.667 37.5 29v-72c-23.333 -24 -50.666 -36 -81.999 -36c-14 0 -26.167 1.66699 -36.5 5s-22.166 8.33301 -35.499 15c-13.333 6 -24.166 10.5 -32.499 13.5s-18.166 4.5 -29.499 4.5c-14.667 0 -27.5 -3 -38.5 -9s-23.833 -15.667 -38.5 -29v71z" />
    <glyph glyph-name="Odieresis" unicode="&#xd6;" horiz-adv-x="695" 
d="M135.5 67.5c-49.667 51 -74.5 126.833 -74.5 227.5v101c0 100.667 25.167 176.5 75.5 227.5s121.5 76.5 213.5 76.5c91.333 0 161.833 -25.5 211.5 -76.5s74.5 -126.833 74.5 -227.5v-101c0 -100.667 -25.167 -176.5 -75.5 -227.5s-121.5 -76.5 -213.5 -76.5
c-91.333 0 -161.833 25.5 -211.5 76.5zM497 127c32.667 36 49 91.668 49 167.001v97c0 78 -16.333 135.333 -49 171.999c-32.667 36.667 -82 55 -148 55c-66.667 0 -116.167 -18.333 -148.5 -55s-48.5 -94 -48.5 -172v-97c0 -75.333 16.167 -131 48.5 -167
s81.833 -54 148.5 -54c66 0 115.333 18 148 54zM199 854.001h85v-95h-85v95zM414 854.001h84v-95h-84v95z" />
    <glyph glyph-name="multiply" unicode="&#xd7;" horiz-adv-x="509" 
d="M81 156l120 121l-120 120l54 54l120 -120l120 120l54 -54l-120 -120l120 -121l-54 -54l-120 120l-120 -120z" />
    <glyph glyph-name="Oslash" unicode="&#xd8;" horiz-adv-x="695" 
d="M636 396l-0.000976562 -101c0 -100.667 -25.167 -176.5 -75.5 -227.5s-121.5 -76.5 -213.5 -76.5c-67.333 0 -123.666 14 -168.999 42l-35 -53h-72l60 92c-46.667 52 -70 126.333 -70 223v101c0 100.667 25.167 176.5 75.5 227.5s121.5 76.5 213.5 76.5
c68 0 124.333 -14 169 -42l35 54h71l-60 -92c47.333 -51.333 71 -126 71 -224zM182.999 150l288 436c-30 21.333 -70.667 32 -122 32c-66.667 0 -116.167 -18.333 -148.5 -55s-48.5 -94 -48.5 -172v-97c0 -61.333 10.333 -109.333 31 -144zM545.999 391
c0 64 -11 114 -33 150l-288 -436c30 -21.333 71.333 -32 124 -32c66 0 115.333 18 148 54s49 91.667 49 167v97z" />
    <glyph glyph-name="Ugrave" unicode="&#xd9;" horiz-adv-x="692" 
d="M144.5 60.5c-48.333 44.333 -72.5 106.5 -72.5 186.5v443h91v-437c0 -119.333 61 -179 183 -179s183 59.667 183 179v437h91v-443c0 -80 -24.167 -142.167 -72.5 -186.5s-115.5 -66.5 -201.5 -66.5s-153.167 22.167 -201.5 66.5zM193 878h108l111 -128h-80z" />
    <glyph glyph-name="Uacute" unicode="&#xda;" horiz-adv-x="692" 
d="M144.5 60.5c-48.333 44.333 -72.5 106.5 -72.5 186.5v443h91v-437c0 -119.333 61 -179 183 -179s183 59.667 183 179v437h91v-443c0 -80 -24.167 -142.167 -72.5 -186.5s-115.5 -66.5 -201.5 -66.5s-153.167 22.167 -201.5 66.5zM379 878h107l-139 -128h-80z" />
    <glyph glyph-name="Ucircumflex" unicode="&#xdb;" horiz-adv-x="692" 
d="M144.5 60.5c-48.333 44.333 -72.5 106.5 -72.5 186.5v443h91v-437c0 -119.333 61 -179 183 -179s183 59.667 183 179v437h91v-443c0 -80 -24.167 -142.167 -72.5 -186.5s-115.5 -66.5 -201.5 -66.5s-153.167 22.167 -201.5 66.5zM313 891h65l131 -146h-80l-83 90l-84 -90
h-80z" />
    <glyph glyph-name="Udieresis" unicode="&#xdc;" horiz-adv-x="692" 
d="M144.5 60.5c-48.333 44.333 -72.5 106.5 -72.5 186.5v443h91v-437c0 -119.333 61 -179 183 -179s183 59.667 183 179v437h91v-443c0 -80 -24.167 -142.167 -72.5 -186.5s-115.5 -66.5 -201.5 -66.5s-153.167 22.167 -201.5 66.5zM196 854h85v-95h-85v95zM411 854h84v-95
h-84v95z" />
    <glyph glyph-name="Yacute" unicode="&#xdd;" horiz-adv-x="580" 
d="M335 278v-278h-90v279l-239 411h102l183 -335l181 335h102zM323 878h107l-139 -128h-80z" />
    <glyph glyph-name="Thorn" unicode="&#xde;" horiz-adv-x="637" 
d="M545 515.5c40.667 -35 60.998 -86.5 60.998 -154.5c0 -66.667 -20.167 -117.667 -60.5 -153s-99.166 -53 -176.499 -53h-206v-155h-91v690h91v-122h206c76.667 0 135.334 -17.5 176.001 -52.5zM480.498 266c23.667 20 35.5 51.333 35.5 94c0 44.667 -12 77 -36 97
s-62 30 -114 30h-203v-251h208c49.333 0 85.833 10 109.5 30z" />
    <glyph glyph-name="germandbls" unicode="&#xdf;" horiz-adv-x="560" 
d="M277 71l31 -0.000976562c31.334 0 55.167 4.83301 71.5 14.5c16.334 9.66699 27.667 25.334 34 47.001s9.5 52.5 9.5 92.5c0 40.667 -3.33301 72 -10 94s-18.667 38 -36 48s-42.666 15 -75.999 15h-25v75h31c38 0 65.333 6.5 82 19.5s25 33.5 25 61.5
c0 29.333 -10 50.666 -30 63.999s-51.333 20 -94 20c-48.667 0 -83.834 -9.16699 -105.501 -27.5c-21.667 -18.334 -32.5 -49.167 -32.5 -92.499v-502h-85v493c0 68.667 17.667 120 53 154s91 51 167 51c68 0 120.333 -13.5 157 -40.5s55 -65.833 55 -116.5
c0 -29.333 -6 -53.5 -18 -72.5s-30.333 -34.167 -55 -45.5c31.333 -12.667 52.833 -33.334 64.5 -62c11.667 -28.667 17.5 -73 17.5 -133c0 -58.667 -5.83301 -104.5 -17.5 -137.5s-31.5 -57 -59.5 -72s-67.333 -22.5 -118 -22.5h-36v75z" />
    <glyph glyph-name="agrave" unicode="&#xe0;" horiz-adv-x="549" 
d="M425 471.5c38 -31.667 56.999 -77.5 56.999 -137.5v-334h-83v58c-35.333 -42.667 -91 -64 -167 -64c-62 0 -109.167 13.167 -141.5 39.5s-48.5 64.5 -48.5 114.5c0 48 16.667 84.833 50 110.5s82 38.5 146 38.5h159v35c0 77.333 -45 116 -135 116
c-39.333 0 -69.166 -7.33301 -89.499 -22s-30.5 -35.334 -30.5 -62v-3h-83v3c0 48 18 85.833 54 113.5s85.333 41.5 148 41.5c71.333 0 126 -15.833 164 -47.5zM360.999 95c24 21.333 35.999 54.001 35.999 98.001v40h-145c-43.333 0 -75.166 -6.83301 -95.499 -20.5
s-30.5 -34.834 -30.5 -63.501c0 -29.333 10 -51 30 -65s51 -21 93 -21c50.667 0 88 10.667 112 32zM110.998 700.001h108l111 -128h-80z" />
    <glyph glyph-name="aacute" unicode="&#xe1;" horiz-adv-x="549" 
d="M425 471.5c38 -31.667 56.999 -77.5 56.999 -137.5v-334h-83v58c-35.333 -42.667 -91 -64 -167 -64c-62 0 -109.167 13.167 -141.5 39.5s-48.5 64.5 -48.5 114.5c0 48 16.667 84.833 50 110.5s82 38.5 146 38.5h159v35c0 77.333 -45 116 -135 116
c-39.333 0 -69.166 -7.33301 -89.499 -22s-30.5 -35.334 -30.5 -62v-3h-83v3c0 48 18 85.833 54 113.5s85.333 41.5 148 41.5c71.333 0 126 -15.833 164 -47.5zM360.999 95c24 21.333 35.999 54.001 35.999 98.001v40h-145c-43.333 0 -75.166 -6.83301 -95.499 -20.5
s-30.5 -34.834 -30.5 -63.501c0 -29.333 10 -51 30 -65s51 -21 93 -21c50.667 0 88 10.667 112 32zM291.998 700.001h107l-139 -128h-80z" />
    <glyph glyph-name="acircumflex" unicode="&#xe2;" horiz-adv-x="549" 
d="M425 471.5c38 -31.667 56.999 -77.5 56.999 -137.5v-334h-83v58c-35.333 -42.667 -91 -64 -167 -64c-62 0 -109.167 13.167 -141.5 39.5s-48.5 64.5 -48.5 114.5c0 48 16.667 84.833 50 110.5s82 38.5 146 38.5h159v35c0 77.333 -45 116 -135 116
c-39.333 0 -69.166 -7.33301 -89.499 -22s-30.5 -35.334 -30.5 -62v-3h-83v3c0 48 18 85.833 54 113.5s85.333 41.5 148 41.5c71.333 0 126 -15.833 164 -47.5zM360.999 95c24 21.333 35.999 54.001 35.999 98.001v40h-145c-43.333 0 -75.166 -6.83301 -95.499 -20.5
s-30.5 -34.834 -30.5 -63.501c0 -29.333 10 -51 30 -65s51 -21 93 -21c50.667 0 88 10.667 112 32zM230.998 713.001h65l131 -146h-80l-83 90l-84 -90h-80z" />
    <glyph glyph-name="atilde" unicode="&#xe3;" horiz-adv-x="549" 
d="M425 471.5c38 -31.667 56.999 -77.5 56.999 -137.5v-334h-83v58c-35.333 -42.667 -91 -64 -167 -64c-62 0 -109.167 13.167 -141.5 39.5s-48.5 64.5 -48.5 114.5c0 48 16.667 84.833 50 110.5s82 38.5 146 38.5h159v35c0 77.333 -45 116 -135 116
c-39.333 0 -69.166 -7.33301 -89.499 -22s-30.5 -35.334 -30.5 -62v-3h-83v3c0 48 18 85.833 54 113.5s85.333 41.5 148 41.5c71.333 0 126 -15.833 164 -47.5zM360.999 95c24 21.333 35.999 54.001 35.999 98.001v40h-145c-43.333 0 -75.166 -6.83301 -95.499 -20.5
s-30.5 -34.834 -30.5 -63.501c0 -29.333 10 -51 30 -65s51 -21 93 -21c50.667 0 88 10.667 112 32zM116.998 641.001c13.333 12.667 26.333 22 39 28s27 9 43 9c13.333 0 25.166 -1.66699 35.499 -5s22.166 -8.33301 35.499 -15c12.667 -6 23.5 -10.5 32.5 -13.5
s19.167 -4.5 30.5 -4.5c15.333 0 28.5 3 39.5 9s23.5 15.667 37.5 29v-72c-23.333 -24 -50.666 -36 -81.999 -36c-14 0 -26.167 1.66699 -36.5 5s-22.166 8.33301 -35.499 15c-13.334 6 -24.167 10.5 -32.5 13.5c-8.33398 3 -18.167 4.5 -29.5 4.5
c-14.667 0 -27.5 -3 -38.5 -9s-23.833 -15.667 -38.5 -29v71z" />
    <glyph glyph-name="adieresis" unicode="&#xe4;" horiz-adv-x="549" 
d="M425 471.5c38 -31.667 56.999 -77.5 56.999 -137.5v-334h-83v58c-35.333 -42.667 -91 -64 -167 -64c-62 0 -109.167 13.167 -141.5 39.5s-48.5 64.5 -48.5 114.5c0 48 16.667 84.833 50 110.5s82 38.5 146 38.5h159v35c0 77.333 -45 116 -135 116
c-39.333 0 -69.166 -7.33301 -89.499 -22s-30.5 -35.334 -30.5 -62v-3h-83v3c0 48 18 85.833 54 113.5s85.333 41.5 148 41.5c71.333 0 126 -15.833 164 -47.5zM360.999 95c24 21.333 35.999 54.001 35.999 98.001v40h-145c-43.333 0 -75.166 -6.83301 -95.499 -20.5
s-30.5 -34.834 -30.5 -63.501c0 -29.333 10 -51 30 -65s51 -21 93 -21c50.667 0 88 10.667 112 32zM113.998 676.001h85v-95h-85v95zM328.998 676.001h84v-95h-84v95z" />
    <glyph glyph-name="aring" unicode="&#xe5;" horiz-adv-x="549" 
d="M425 471.5c38 -31.667 56.999 -77.5 56.999 -137.5v-334h-83v58c-35.333 -42.667 -91 -64 -167 -64c-62 0 -109.167 13.167 -141.5 39.5s-48.5 64.5 -48.5 114.5c0 48 16.667 84.833 50 110.5s82 38.5 146 38.5h159v35c0 77.333 -45 116 -135 116
c-39.333 0 -69.166 -7.33301 -89.499 -22s-30.5 -35.334 -30.5 -62v-3h-83v3c0 48 18 85.833 54 113.5s85.333 41.5 148 41.5c71.333 0 126 -15.833 164 -47.5zM360.999 95c24 21.333 35.999 54.001 35.999 98.001v40h-145c-43.333 0 -75.166 -6.83301 -95.499 -20.5
s-30.5 -34.834 -30.5 -63.501c0 -29.333 10 -51 30 -65s51 -21 93 -21c50.667 0 88 10.667 112 32zM196.498 588.501c-17.667 17.667 -26.5 40.167 -26.5 67.5s8.83301 50 26.5 68s40.167 27 67.5 27c26.667 0 49 -9 67 -27s27 -40.667 27 -68
c0 -26.667 -8.83301 -49 -26.5 -67s-40.167 -27 -67.5 -27s-49.833 8.83301 -67.5 26.5zM299.998 619.001c9.33301 10 14 22.333 14 37c0 15.333 -4.66699 27.833 -14 37.5s-21.333 14.5 -36 14.5s-26.667 -4.83301 -36 -14.5s-14 -22.167 -14 -37.5
c0 -14.667 4.66699 -27 14 -37s21.333 -15 36 -15s26.667 5 36 15z" />
    <glyph glyph-name="ae" unicode="&#xe6;" horiz-adv-x="901" 
d="M482 235v-3.99902c0 -110.667 51.667 -166 155 -166c38.668 0 68.835 9 90.5 27c21.667 18 33.167 41.333 34.5 70v3h84v-4c-0.666992 -31.333 -9.33398 -60 -26.001 -86s-40.667 -46.5 -72 -61.5s-68.333 -22.5 -111 -22.5c-88.667 0 -153.667 28.667 -195 86
c-39.333 -56 -105 -84 -197 -84c-64 0 -113.833 13.667 -149.5 41s-53.5 65.666 -53.5 114.999c0 48 16.667 84.833 50 110.5s82 38.5 146 38.5h159v34c0 77.333 -45 116 -135 116c-39.333 0 -69.166 -7.33301 -89.499 -22s-30.5 -35.334 -30.5 -62v-3h-83v3
c0 48 18 85.833 54 113.5s85.333 41.5 148 41.5c87.334 0 149.667 -23.667 187 -71c19.333 24 43.833 42.333 73.5 55s63.5 19 101.5 19c70.667 0 126 -19.5 166 -58.5s60 -95.5 60 -169.5v-59h-367zM522.5 410.501c-24.333 -24.333 -37.834 -61.5 -40.501 -111.5h282v8
c0 47.333 -12 82.5 -36 105.5s-58.667 34.5 -104 34.5c-43.334 0 -77.167 -12.167 -101.499 -36.5zM360.999 96.501c24 22.333 36.001 55.168 36.001 98.501v40h-145c-42.667 0 -74.334 -6.83301 -95.001 -20.5s-31 -35.167 -31 -64.5c0 -28.667 10.667 -50.334 32 -65.001
s53.333 -22 96 -22c47.333 0 83 11.167 107 33.5z" />
    <glyph glyph-name="ccedilla" unicode="&#xe7;" horiz-adv-x="553" 
d="M418 331l0.000976562 5.00098c0 34.667 -11.333 61.667 -34 81s-55 29 -97 29c-100 0 -150 -55.333 -150 -166v-47c0 -111.333 50 -167 150 -167c42 0 74.333 9.66699 97 29s34 46 34 80v4h83v-4c0 -48.667 -14.167 -88.834 -42.5 -120.501s-67.833 -51.5 -118.5 -59.5
l-65 -147h-86l74 144c-66.667 4 -118.5 26.333 -155.5 67s-55.5 98 -55.5 172v51c0 78 20.667 137.5 62 178.5s98.666 61.5 171.999 61.5c67.333 0 120 -16.5 158 -49.5s57 -78.5 57 -136.5v-5h-83z" />
    <glyph glyph-name="egrave" unicode="&#xe8;" horiz-adv-x="557" 
d="M137 235l-0.000976562 -4c0 -110.667 51.667 -166 155 -166c39.333 0 69.833 9.16699 91.5 27.5s32.834 41.5 33.501 69.5v3h84v-4c-0.666992 -32 -9.5 -60.833 -26.5 -86.5s-41.333 -46 -73 -61s-68.834 -22.5 -111.5 -22.5c-74.667 0 -133 20.833 -175 62.5
s-63 102.5 -63 182.5v41c0 78.667 20 139.167 60 181.5s95.667 63.5 167 63.5c70 0 125 -19.5 165 -58.5s60 -95.167 60 -168.5v-60h-367zM177.499 410.5c-24.333 -24.333 -37.834 -61.5 -40.501 -111.5h282v9c0 46.667 -12.167 81.5 -36.5 104.5s-58.833 34.5 -103.5 34.5
c-43.333 0 -77.166 -12.167 -101.499 -36.5zM125.998 700h108l111 -128h-80z" />
    <glyph glyph-name="eacute" unicode="&#xe9;" horiz-adv-x="557" 
d="M137 235l-0.000976562 -4c0 -110.667 51.667 -166 155 -166c39.333 0 69.833 9.16699 91.5 27.5s32.834 41.5 33.501 69.5v3h84v-4c-0.666992 -32 -9.5 -60.833 -26.5 -86.5s-41.333 -46 -73 -61s-68.834 -22.5 -111.5 -22.5c-74.667 0 -133 20.833 -175 62.5
s-63 102.5 -63 182.5v41c0 78.667 20 139.167 60 181.5s95.667 63.5 167 63.5c70 0 125 -19.5 165 -58.5s60 -95.167 60 -168.5v-60h-367zM177.499 410.5c-24.333 -24.333 -37.834 -61.5 -40.501 -111.5h282v9c0 46.667 -12.167 81.5 -36.5 104.5s-58.833 34.5 -103.5 34.5
c-43.333 0 -77.166 -12.167 -101.499 -36.5zM304.998 700h107l-139 -128h-80z" />
    <glyph glyph-name="ecircumflex" unicode="&#xea;" horiz-adv-x="557" 
d="M137 235l-0.000976562 -4c0 -110.667 51.667 -166 155 -166c39.333 0 69.833 9.16699 91.5 27.5s32.834 41.5 33.501 69.5v3h84v-4c-0.666992 -32 -9.5 -60.833 -26.5 -86.5s-41.333 -46 -73 -61s-68.834 -22.5 -111.5 -22.5c-74.667 0 -133 20.833 -175 62.5
s-63 102.5 -63 182.5v41c0 78.667 20 139.167 60 181.5s95.667 63.5 167 63.5c70 0 125 -19.5 165 -58.5s60 -95.167 60 -168.5v-60h-367zM177.499 410.5c-24.333 -24.333 -37.834 -61.5 -40.501 -111.5h282v9c0 46.667 -12.167 81.5 -36.5 104.5s-58.833 34.5 -103.5 34.5
c-43.333 0 -77.166 -12.167 -101.499 -36.5zM245.998 713h65l131 -146h-80l-83 90l-84 -90h-80z" />
    <glyph glyph-name="edieresis" unicode="&#xeb;" horiz-adv-x="557" 
d="M137 235l-0.000976562 -4c0 -110.667 51.667 -166 155 -166c39.333 0 69.833 9.16699 91.5 27.5s32.834 41.5 33.501 69.5v3h84v-4c-0.666992 -32 -9.5 -60.833 -26.5 -86.5s-41.333 -46 -73 -61s-68.834 -22.5 -111.5 -22.5c-74.667 0 -133 20.833 -175 62.5
s-63 102.5 -63 182.5v41c0 78.667 20 139.167 60 181.5s95.667 63.5 167 63.5c70 0 125 -19.5 165 -58.5s60 -95.167 60 -168.5v-60h-367zM177.499 410.5c-24.333 -24.333 -37.834 -61.5 -40.501 -111.5h282v9c0 46.667 -12.167 81.5 -36.5 104.5s-58.833 34.5 -103.5 34.5
c-43.333 0 -77.166 -12.167 -101.499 -36.5zM128.998 676h85v-95h-85v95zM343.998 676h84v-95h-84v95z" />
    <glyph glyph-name="igrave" unicode="&#xec;" horiz-adv-x="234" 
d="M74 512h85v-512h-85v512zM-36 700h108l111 -128h-80z" />
    <glyph glyph-name="iacute" unicode="&#xed;" horiz-adv-x="234" 
d="M74 512h85v-512h-85v512zM160 700h107l-139 -128h-80z" />
    <glyph glyph-name="icircumflex" unicode="&#xee;" horiz-adv-x="234" 
d="M74 512h85v-512h-85v512zM84 713h65l131 -146h-80l-83 90l-84 -90h-80z" />
    <glyph glyph-name="idieresis" unicode="&#xef;" horiz-adv-x="234" 
d="M74 512h85v-512h-85v512zM-33 676h85v-95h-85v95zM182 676h84v-95h-84v95z" />
    <glyph glyph-name="eth" unicode="&#xf0;" horiz-adv-x="548" 
d="M476 364c13.333 -35.333 20 -73.6689 20 -115.002v-29c0 -73.333 -19.667 -130.166 -59 -170.499s-94 -60.5 -164 -60.5c-69.333 0 -123.5 20 -162.5 60s-58.5 96.333 -58.5 169v29c0 70 18.5 125 55.5 165s87.833 60 152.5 60c25.333 0 47 -4 65 -12l-72 89l-119 -32
l-17 62l91 24l-72 89h98l55 -68l124 33l17 -61l-97 -26l74 -91c32.667 -41.333 55.667 -79.666 69 -114.999zM412 246.997c0 49.333 -11.668 86.833 -35.001 112.5s-57.666 38.5 -102.999 38.5s-79.833 -12.833 -103.5 -38.5s-35.5 -62.834 -35.5 -111.5v-29
c0 -50 11.833 -88 35.5 -114s58.167 -39 103.5 -39c45.334 0 79.667 13 103 39s35 64 35 114v28z" />
    <glyph glyph-name="ntilde" unicode="&#xf1;" 
d="M67 512l84.001 -0.000976562v-69c18 24.667 41 43.334 69 56.001s59.333 19 94 19c60.667 0 107.667 -17.333 141 -52s50 -82.667 50 -144v-322h-85v311c0 43.333 -10.833 76 -32.5 98s-53.167 33 -94.5 33c-42.667 0 -76.834 -12.667 -102.501 -38s-38.5 -60 -38.5 -104
v-300h-85v512zM140.001 640.999c13.333 12.667 26.3311 22 38.998 28s27 9 43 9c13.333 0 25.166 -1.66699 35.499 -5c10.334 -3.33301 22.167 -8.33301 35.5 -15c12.667 -6 23.5 -10.5 32.5 -13.5s19.167 -4.5 30.5 -4.5c15.333 0 28.5 3 39.5 9s23.5 15.667 37.5 29v-72
c-23.333 -24 -50.666 -36 -81.999 -36c-14 0 -26.167 1.66699 -36.5 5s-22.166 8.33301 -35.499 15c-13.333 6 -24.166 10.5 -32.499 13.5c-8.33398 3 -18.167 4.5 -29.5 4.5c-14.667 0 -27.5 -3 -38.5 -9s-23.833 -15.667 -38.5 -29v71z" />
    <glyph glyph-name="ograve" unicode="&#xf2;" 
d="M114.5 52.5c-41.667 41 -62.5 100.499 -62.5 178.499v51c0 78 20.833 137.5 62.5 178.5s99.167 61.5 172.5 61.5c72.667 0 129.667 -20.667 171 -62s62 -100.666 62 -177.999v-51c0 -78 -20.667 -137.5 -62 -178.5s-98.333 -61.5 -171 -61.5
c-73.333 0 -130.833 20.5 -172.5 61.5zM435 232.999v47c0 110.667 -49.667 166 -149 166s-149 -55.333 -149 -166v-47c0 -111.333 49.667 -167 149 -167s149 55.667 149 167zM133 699.999h108l111 -128h-80z" />
    <glyph glyph-name="oacute" unicode="&#xf3;" 
d="M114.5 52.5c-41.667 41 -62.5 100.499 -62.5 178.499v51c0 78 20.833 137.5 62.5 178.5s99.167 61.5 172.5 61.5c72.667 0 129.667 -20.667 171 -62s62 -100.666 62 -177.999v-51c0 -78 -20.667 -137.5 -62 -178.5s-98.333 -61.5 -171 -61.5
c-73.333 0 -130.833 20.5 -172.5 61.5zM435 232.999v47c0 110.667 -49.667 166 -149 166s-149 -55.333 -149 -166v-47c0 -111.333 49.667 -167 149 -167s149 55.667 149 167zM313 699.999h107l-139 -128h-80z" />
    <glyph glyph-name="ocircumflex" unicode="&#xf4;" 
d="M114.5 52.5c-41.667 41 -62.5 100.499 -62.5 178.499v51c0 78 20.833 137.5 62.5 178.5s99.167 61.5 172.5 61.5c72.667 0 129.667 -20.667 171 -62s62 -100.666 62 -177.999v-51c0 -78 -20.667 -137.5 -62 -178.5s-98.333 -61.5 -171 -61.5
c-73.333 0 -130.833 20.5 -172.5 61.5zM435 232.999v47c0 110.667 -49.667 166 -149 166s-149 -55.333 -149 -166v-47c0 -111.333 49.667 -167 149 -167s149 55.667 149 167zM253 712.999h65l131 -146h-80l-83 90l-84 -90h-80z" />
    <glyph glyph-name="otilde" unicode="&#xf5;" 
d="M114.5 52.5c-41.667 41 -62.5 100.499 -62.5 178.499v51c0 78 20.833 137.5 62.5 178.5s99.167 61.5 172.5 61.5c72.667 0 129.667 -20.667 171 -62s62 -100.666 62 -177.999v-51c0 -78 -20.667 -137.5 -62 -178.5s-98.333 -61.5 -171 -61.5
c-73.333 0 -130.833 20.5 -172.5 61.5zM435 232.999v47c0 110.667 -49.667 166 -149 166s-149 -55.333 -149 -166v-47c0 -111.333 49.667 -167 149 -167s149 55.667 149 167zM139 640.999c13.333 12.667 26.3311 22 38.998 28s27 9 43 9c13.333 0 25.166 -1.66699 35.499 -5
c10.334 -3.33301 22.167 -8.33301 35.5 -15c12.667 -6 23.5 -10.5 32.5 -13.5s19.167 -4.5 30.5 -4.5c15.333 0 28.5 3 39.5 9s23.5 15.667 37.5 29v-72c-23.333 -24 -50.666 -36 -81.999 -36c-14 0 -26.167 1.66699 -36.5 5s-22.166 8.33301 -35.499 15
c-13.333 6 -24.166 10.5 -32.499 13.5c-8.33398 3 -18.167 4.5 -29.5 4.5c-14.667 0 -27.5 -3 -38.5 -9s-23.833 -15.667 -38.5 -29v71z" />
    <glyph glyph-name="odieresis" unicode="&#xf6;" 
d="M114.5 52.5c-41.667 41 -62.5 100.499 -62.5 178.499v51c0 78 20.833 137.5 62.5 178.5s99.167 61.5 172.5 61.5c72.667 0 129.667 -20.667 171 -62s62 -100.666 62 -177.999v-51c0 -78 -20.667 -137.5 -62 -178.5s-98.333 -61.5 -171 -61.5
c-73.333 0 -130.833 20.5 -172.5 61.5zM435 232.999v47c0 110.667 -49.667 166 -149 166s-149 -55.333 -149 -166v-47c0 -111.333 49.667 -167 149 -167s149 55.667 149 167zM136 675.999h85v-95h-85v95zM351 675.999h84v-95h-84v95z" />
    <glyph glyph-name="divide" unicode="&#xf7;" horiz-adv-x="509" 
d="M216.5 387.5c-10.333 10.335 -15.5 23.167 -15.5 38.499c0 14.667 5.16699 27.167 15.5 37.5s22.833 15.5 37.5 15.5c15.334 0 28.167 -5.16699 38.499 -15.5c10.333 -10.333 15.5 -22.833 15.5 -37.5c0 -15.333 -5.16699 -28.166 -15.5 -38.499
s-23.166 -15.5 -38.499 -15.5c-14.667 0 -27.167 5.16699 -37.5 15.5zM53 315.999h403v-80h-403v80zM216.5 90.499c-10.333 10.333 -15.5 22.833 -15.5 37.5c0 15.333 5.16699 28.166 15.5 38.499s22.833 15.5 37.5 15.5c15.334 0 28.167 -5.16699 38.499 -15.5
c10.333 -10.333 15.5 -23.166 15.5 -38.499c0 -14.667 -5.16699 -27.167 -15.5 -37.5s-23.166 -15.5 -38.499 -15.5c-14.667 0 -27.167 5.16699 -37.5 15.5z" />
    <glyph glyph-name="oslash" unicode="&#xf8;" 
d="M520 282v-51c0 -78 -20.667 -137.5 -62 -178.5s-98.333 -61.5 -171 -61.5c-49.333 0 -92.333 9.66699 -129 29l-34 -50h-64l56 81c-42.667 41.333 -64 101.333 -64 180v51c0 78 20.833 137.5 62.5 178.5s99.167 61.5 172.5 61.5c50.667 0 93.667 -10 129 -30l32 46h64
l-54 -78c41.333 -42.667 62 -102 62 -178zM164 122l206.999 304c-23.333 13.333 -51.666 20 -84.999 20c-99.333 0 -149 -55.333 -149 -166v-47c0 -46.667 9 -83.667 27 -111zM434.999 280c0 44.667 -8.33301 80.667 -25 108l-207 -303c21.333 -12.667 49 -19 83 -19
c99.333 0 149 55.667 149 167v47z" />
    <glyph glyph-name="ugrave" unicode="&#xf9;" 
d="M123 47.5c-37.333 36.333 -56 88.166 -56 155.499v309h85v-300c0 -95.333 44.667 -143 134 -143c46 0 79.833 11.833 101.5 35.5s32.5 59.5 32.5 107.5v300h85v-309c0 -67.333 -18.833 -119.166 -56.5 -155.499s-92.167 -54.5 -163.5 -54.5
c-70.667 0 -124.667 18.167 -162 54.5zM133 700h108l111 -128h-80z" />
    <glyph glyph-name="uacute" unicode="&#xfa;" 
d="M123 47.5c-37.333 36.333 -56 88.166 -56 155.499v309h85v-300c0 -95.333 44.667 -143 134 -143c46 0 79.833 11.833 101.5 35.5s32.5 59.5 32.5 107.5v300h85v-309c0 -67.333 -18.833 -119.166 -56.5 -155.499s-92.167 -54.5 -163.5 -54.5
c-70.667 0 -124.667 18.167 -162 54.5zM314 700h107l-139 -128h-80z" />
    <glyph glyph-name="ucircumflex" unicode="&#xfb;" 
d="M123 47.5c-37.333 36.333 -56 88.166 -56 155.499v309h85v-300c0 -95.333 44.667 -143 134 -143c46 0 79.833 11.833 101.5 35.5s32.5 59.5 32.5 107.5v300h85v-309c0 -67.333 -18.833 -119.166 -56.5 -155.499s-92.167 -54.5 -163.5 -54.5
c-70.667 0 -124.667 18.167 -162 54.5zM253 713h65l131 -146h-80l-83 90l-84 -90h-80z" />
    <glyph glyph-name="udieresis" unicode="&#xfc;" 
d="M123 47.5c-37.333 36.333 -56 88.166 -56 155.499v309h85v-300c0 -95.333 44.667 -143 134 -143c46 0 79.833 11.833 101.5 35.5s32.5 59.5 32.5 107.5v300h85v-309c0 -67.333 -18.833 -119.166 -56.5 -155.499s-92.167 -54.5 -163.5 -54.5
c-70.667 0 -124.667 18.167 -162 54.5zM136 676h85v-95h-85v95zM351 676h84v-95h-84v95z" />
    <glyph glyph-name="yacute" unicode="&#xfd;" horiz-adv-x="513" 
d="M500 512l-221 -563c-14 -36 -34.333 -62 -61 -78s-61.667 -24 -105 -24h-36v77h36c30 0 52.333 4.33301 67 13s26 24 34 46l6 17l-207 512h91l157 -403l150 403h89zM289 700h107l-139 -128h-80z" />
    <glyph glyph-name="thorn" unicode="&#xfe;" horiz-adv-x="580" 
d="M67 690l85 -0.000976562v-247c16.667 24.667 39 44 67 58s59.667 21 95 21c64.667 0 116.5 -20.667 155.5 -62s58.5 -100 58.5 -176v-54c0 -76.667 -19.5 -135.667 -58.5 -177s-90.833 -62 -155.5 -62c-36.667 0 -68.667 6.33301 -96 19
c-27.334 12.667 -49.667 31.334 -67 56.001v-219h-84v843zM406 107.999c24.667 28 36.998 69.999 36.998 125.999v46c0 56 -12.333 97.667 -37 125s-60 41 -106 41s-82.167 -14.167 -108.5 -42.5s-39.5 -66.5 -39.5 -114.5v-67c0 -47.333 13.333 -85.166 40 -113.499
s63.334 -42.5 110.001 -42.5c44.667 0 79.334 14 104.001 42z" />
    <glyph glyph-name="ydieresis" unicode="&#xff;" horiz-adv-x="513" 
d="M500 512l-221 -563c-14 -36 -34.333 -62 -61 -78s-61.667 -24 -105 -24h-36v77h36c30 0 52.333 4.33301 67 13s26 24 34 46l6 17l-207 512h91l157 -403l150 403h89zM106 676h85v-95h-85v95zM321 676h84v-95h-84v95z" />
    <glyph glyph-name="dotlessi" unicode="&#x131;" horiz-adv-x="234" 
d="M74 512h85v-512h-85v512z" />
    <glyph glyph-name="OE" unicode="&#x152;" horiz-adv-x="1060" 
d="M636 609v-218h325v-81h-325v-229h380v-81h-468v60c-50 -46 -117.667 -69 -203 -69c-91.333 0 -161.5 25.5 -210.5 76.5s-73.5 126.833 -73.5 227.5v101c0 100.667 24.833 176.5 74.5 227.5s120.167 76.5 211.5 76.5c84.667 0 151.667 -22.667 201 -68v58h468v-81h-380z
M546 391c0 78 -16.333 135.334 -49 172c-32.667 36.667 -82 55 -148 55c-66.667 0 -116.167 -18.333 -148.5 -55s-48.5 -94 -48.5 -172v-97c0 -75.333 16.167 -131 48.5 -167s81.833 -54 148.5 -54c66 0 115.333 18 148 54s49 91.667 49 167v97z" />
    <glyph glyph-name="oe" unicode="&#x153;" horiz-adv-x="939" 
d="M520 235l0.00195312 -4c0 -110.667 51.667 -166 155 -166c38.6689 0 68.8359 9.16699 90.5 27.5c21.667 18.333 33.167 41.5 34.5 69.5v3h84v-4c-0.666992 -32 -9.5 -60.833 -26.5 -86.5s-41.333 -46 -73 -61s-68.834 -22.5 -111.501 -22.5
c-88.667 0 -153.667 28.667 -195 86c-20 -28.667 -46.167 -50.167 -78.5 -64.5s-69.833 -21.5 -112.5 -21.5c-73.333 0 -130.833 20.5 -172.5 61.5s-62.5 100.5 -62.5 178.5v51c0 78 20.833 137.5 62.5 178.5s99.167 61.5 172.5 61.5c42 0 79.167 -7.16699 111.5 -21.5
s58.5 -35.5 78.5 -63.5c19.333 28 44.666 49.167 75.999 63.5s67.333 21.5 108 21.5c70.667 0 126 -19.5 166 -58.5s60 -95.167 60 -168.5v-60h-367zM560.502 410.5c-24.333 -24.333 -37.833 -61.5 -40.5 -111.5h282v9c0 46.667 -12.167 81.5 -36.5 104.5
s-58.833 34.5 -103.5 34.5c-43.335 0 -77.168 -12.167 -101.5 -36.5zM435.002 280c0 110.667 -49.667 166 -149 166s-149 -55.333 -149 -166v-47c0 -111.333 49.667 -167 149 -167s149 55.667 149 167v47z" />
    <glyph glyph-name="Scaron" unicode="&#x160;" horiz-adv-x="611" 
d="M106 46c-45.333 34.667 -70.335 85.665 -75.002 152.998h88c4 -44.667 21.167 -77 51.5 -97s74.166 -30 131.499 -30c118.667 0 178 39.667 178 119c0 34.667 -11.333 61.334 -34 80.001s-57.667 30.667 -105 36l-93 11c-134 16.667 -201 78.334 -201 185.001
c0 62 22.667 110.167 68 144.5s107.333 51.5 186 51.5c76.667 0 136.834 -16.5 180.501 -49.5c43.6689 -33 68.8359 -81.833 75.501 -146.5h-88c-3.33301 40 -18.666 69.833 -45.999 89.5s-68 29.5 -122 29.5c-54.667 0 -96 -9.66699 -124 -29s-42 -47.333 -42 -84
c0 -32 10.833 -57 32.5 -75s55.5 -30 101.5 -36l97 -11c136 -18 204 -81.333 204 -190c0 -64.667 -24 -114.667 -72 -150s-114.667 -53 -200 -53c-82.667 0 -146.667 17.333 -192 52zM137.998 889.998h80l84 -90l83 90h80l-131 -146h-65z" />
    <glyph glyph-name="scaron" unicode="&#x161;" horiz-adv-x="517" 
d="M99 36.5c-38 28.333 -56.998 67.167 -56.998 116.5v3h81v-2c0 -27.333 11.333 -49 34 -65s57.667 -24 105 -24c42.667 0 76.167 7 100.5 21s36.5 34.333 36.5 61c0 22 -8.83301 38.667 -26.5 50s-45.834 19 -84.5 23l-73 9c-56.667 6.66699 -98.334 21.167 -125.001 43.5
s-40 53.833 -40 94.5c0 47.333 18.667 84.5 56 111.5s88 40.5 152 40.5c66.667 0 119 -13.667 157 -41s57 -64.333 57 -111v-4h-81v3c0 27.334 -11.5 48.167 -34.5 62.5s-55.5 21.5 -97.5 21.5c-42.667 0 -74.667 -6.66699 -96 -20s-32 -32.333 -32 -57
c0 -21.333 7.66699 -37.5 23 -48.5s41.666 -18.5 78.999 -22.5l78 -10c57.333 -6.66699 99.833 -21.334 127.5 -44c27.667 -22.667 41.5 -54.667 41.5 -96c0 -50 -19.833 -88.833 -59.5 -116.5s-93.834 -41.5 -162.5 -41.5c-68 0 -121 14.167 -159 42.5zM96.002 712.001h80
l84 -90l83 90h80l-131 -146h-65z" />
    <glyph glyph-name="Ydieresis" unicode="&#x178;" horiz-adv-x="580" 
d="M335 278v-278h-90v279l-239 411h102l183 -335l181 335h102zM140 854h85v-95h-85v95zM355 854h84v-95h-84v95z" />
    <glyph glyph-name="Zcaron" unicode="&#x17d;" horiz-adv-x="571" 
d="M538 82v-81h-502v81l392 528h-379v81h484v-81l-391 -528h396zM125 890h80l84 -90l83 90h80l-131 -146h-65z" />
    <glyph glyph-name="zcaron" unicode="&#x17e;" horiz-adv-x="500" 
d="M448 436l-298 -361h298v-75h-396v75l296 361h-296v76h396v-76zM86 712h80l84 -90l83 90h80l-131 -146h-65z" />
    <glyph glyph-name="florin" unicode="&#x192;" horiz-adv-x="468" 
d="M12 -72h45c30.667 0 52.834 6.16699 66.501 18.5s22.834 35.833 27.5 70.5l47 320h-103v77h115l17 111c9.33301 60 27.166 102.5 53.499 127.5s66.833 37.5 121.5 37.5h55v-80h-51c-29.333 0 -50.833 -6.33301 -64.5 -19s-23.167 -35.667 -28.5 -69l-16 -108h124v-77
h-136l-48 -323c-9.33398 -61.333 -27.167 -104.5 -53.5 -129.5s-66.833 -37.5 -121.5 -37.5h-50v81z" />
    <glyph glyph-name="circumflex" unicode="&#x2c6;" horiz-adv-x="500" 
d="M217 713h65l131 -146h-80l-83 90l-84 -90h-80z" />
    <glyph glyph-name="caron" unicode="&#x2c7;" horiz-adv-x="500" 
d="M86 712h80l84 -90l83 90h80l-131 -146h-65z" />
    <glyph glyph-name="dotaccent" unicode="&#x2d9;" horiz-adv-x="500" 
d="M207 685h86v-93h-86v93z" />
    <glyph glyph-name="ring" unicode="&#x2da;" horiz-adv-x="500" 
d="M182 591c-18 18 -27 40.334 -27 67.001c0 27.333 9 50.166 27 68.499s40.667 27.5 68 27.5c26.667 0 49 -9.16699 67 -27.5c18 -18.3359 27 -41.1689 27 -68.5c0 -26.667 -9 -49 -27 -67s-40.333 -27 -67 -27c-27.333 0 -50 9 -68 27zM285.5 621.501
c9.66699 9.67188 14.501 21.8389 14.501 36.501c0 14.667 -4.83301 27.167 -14.5 37.5s-21.5 15.5 -35.5 15.5c-14.667 0 -26.834 -5 -36.501 -15s-14.5 -22.667 -14.5 -38c0 -14.667 4.83301 -26.834 14.5 -36.501s21.834 -14.5 36.5 -14.5c14 0 25.833 4.83301 35.5 14.5z
" />
    <glyph glyph-name="tilde" unicode="&#x2dc;" horiz-adv-x="500" 
d="M103 646c13.333 12.667 26.333 22 39 28s27 9 43 9c13.333 0 25.166 -1.66699 35.499 -5s22.166 -8.33301 35.499 -15c12.667 -6 23.5 -10.5 32.5 -13.5s19.167 -4.5 30.5 -4.5c15.333 0 28.5 3 39.5 9s23.5 15.667 37.5 29v-72c-22.667 -24 -50 -36 -82 -36
c-14 0 -26.167 1.66699 -36.5 5s-22.166 8.33301 -35.499 15c-13.333 6 -24.166 10.5 -32.499 13.5c-8.33398 3 -18.167 4.5 -29.5 4.5c-14.667 0 -27.5 -3 -38.5 -9s-23.833 -15.667 -38.5 -29v71z" />
    <glyph glyph-name="gravecomb" unicode="&#x300;" horiz-adv-x="0" 
d="M-153 700h108l111 -128h-80z" />
    <glyph glyph-name="acutecomb" unicode="&#x301;" horiz-adv-x="0" 
d="M33 700h107l-139 -128h-80z" />
    <glyph glyph-name="uni0302" unicode="&#x302;" horiz-adv-x="0" 
d="M-33 713h65l131 -146h-80l-83 90l-84 -90h-80z" />
    <glyph glyph-name="tildecomb" unicode="&#x303;" horiz-adv-x="0" 
d="M-147 641c13.333 12.667 26.3311 22 38.998 28s27 9 43 9c13.333 0 25.166 -1.66699 35.499 -5s22.166 -8.33301 35.499 -15c12.667 -6 23.5 -10.5 32.5 -13.5s19.167 -4.5 30.5 -4.5c15.333 0 28.5 3 39.5 9s23.5 15.667 37.5 29v-72
c-23.333 -24 -50.666 -36 -81.999 -36c-14 0 -26.167 1.66699 -36.5 5s-22.166 8.33301 -35.499 15c-13.333 6 -24.166 10.5 -32.499 13.5s-18.166 4.5 -29.499 4.5c-14.667 0 -27.5 -3 -38.5 -9s-23.833 -15.667 -38.5 -29v71z" />
    <glyph glyph-name="uni0308" unicode="&#x308;" horiz-adv-x="0" 
d="M-150 676h85v-95h-85v95zM65 676h84v-95h-84v95z" />
    <glyph glyph-name="uni030A" unicode="&#x30a;" horiz-adv-x="0" 
d="M-67.5 593.5c-17.667 17.667 -26.5 40.167 -26.5 67.5s8.83301 50 26.5 68s40.167 27 67.5 27c26.667 0 49 -9 67 -27s27 -40.667 27 -68c0 -26.667 -8.83301 -49 -26.5 -67s-40.167 -27 -67.5 -27s-49.833 8.83301 -67.5 26.5zM36 624c9.33301 10 14 22.333 14 37
c0 15.333 -4.66699 27.833 -14 37.5s-21.333 14.5 -36 14.5s-26.667 -4.83301 -36 -14.5s-14 -22.167 -14 -37.5c0 -14.667 4.66699 -27 14 -37s21.333 -15 36 -15s26.667 5 36 15z" />
    <glyph glyph-name="endash" unicode="&#x2013;" horiz-adv-x="482" 
d="M0 387h482v-81h-482v81z" />
    <glyph glyph-name="emdash" unicode="&#x2014;" horiz-adv-x="963" 
d="M0 387h963v-81h-963v81z" />
    <glyph glyph-name="quoteleft" unicode="&#x2018;" horiz-adv-x="177" 
d="M48 654l81 73v-251h-81v178z" />
    <glyph glyph-name="quoteright" unicode="&#x2019;" horiz-adv-x="177" 
d="M48 690h81v-178l-81 -73v251z" />
    <glyph glyph-name="quotesinglbase" unicode="&#x201a;" horiz-adv-x="177" 
d="M48 107h81v-179l-81 -73v252z" />
    <glyph glyph-name="quotedblleft" unicode="&#x201c;" horiz-adv-x="338" 
d="M47 654l82 73v-251h-82v178zM208 654l82 73v-251h-82v178z" />
    <glyph glyph-name="quotedblright" unicode="&#x201d;" horiz-adv-x="338" 
d="M48 691h81v-179l-81 -73v252zM209 691h82v-179l-82 -73v252z" />
    <glyph glyph-name="quotedblbase" unicode="&#x201e;" horiz-adv-x="337" 
d="M208 107h81v-179l-81 -73v252zM48 107h81v-179l-81 -73v252z" />
    <glyph glyph-name="dagger" unicode="&#x2020;" horiz-adv-x="586" 
d="M519 375h-180v-528h-91v528h-181v81h181v234h91v-234h180v-81z" />
    <glyph glyph-name="daggerdbl" unicode="&#x2021;" horiz-adv-x="586" 
d="M339 379v-218h180v-81h-180v-233h-91v233h-181v81h181v218h-181v81h181v230h91v-230h180v-81h-180z" />
    <glyph glyph-name="bullet" unicode="&#x2022;" horiz-adv-x="461" 
d="M137.5 215.5c-24.333 24.333 -36.5 55.165 -36.5 92.498c0 37.334 12.167 68.167 36.5 92.5s55.166 36.5 92.499 36.5s68.333 -12.167 93 -36.5s37 -55.166 37 -92.499s-12.333 -68.166 -37 -92.499s-55.667 -36.5 -93 -36.5s-68.166 12.167 -92.499 36.5z" />
    <glyph glyph-name="ellipsis" unicode="&#x2026;" horiz-adv-x="703" 
d="M48 107h102v-107h-102v107zM553 107h102v-107h-102v107zM301 107h102v-107h-102v107z" />
    <glyph glyph-name="perthousand" unicode="&#x2030;" horiz-adv-x="1284" 
d="M77.5 307.5c-23.667 27.667 -35.5 68.5 -35.5 122.5v108c0 52 12.167 91.5 36.5 118.5s59.833 40.5 106.5 40.5c95.333 0 143 -53 143 -159v-108c0 -54 -12 -94.833 -36 -122.5s-60 -41.5 -108 -41.5c-47.333 0 -82.833 13.833 -106.5 41.5zM609 692h74l-381 -692h-73z
M235 357c10 16 15 42 15 78v95c0 34.667 -5 60 -15 76s-26.667 24 -50 24s-40.166 -8 -50.499 -24s-15.5 -41.333 -15.5 -76v-95c0 -36 5.16699 -62 15.5 -78s27.166 -24 50.499 -24s40 8 50 24zM589 158v106.999c0 52.667 12 92.334 36 119.001s59.667 40 107 40
c95.333 0 143 -53 143 -159v-107c0 -109.333 -48 -164 -144 -164c-94.667 0 -142 54.667 -142 164zM956 157.999v106.999c0 52.667 12 92.334 36 119.001s59.667 40 107 40c95.333 0 143 -53 143 -159v-107c0 -109.333 -48 -164 -144 -164c-94.667 0 -142 54.667 -142 164z
M782 84.998c10 16 15.001 41.667 15.001 77v95c0 35.333 -5 60.833 -15 76.5s-26.667 23.5 -50 23.5c-23.3359 0 -40.1689 -7.83301 -50.5 -23.5c-10.333 -15.667 -15.5 -41.167 -15.5 -76.5v-95c0 -35.333 5.16699 -61 15.5 -77s27.166 -24 50.499 -24s40 8 50 24z
M1149 84.998c10 16 14.999 41.667 14.999 77v95c0 35.333 -5 60.833 -15 76.5s-26.667 23.5 -50 23.5s-40.166 -7.83301 -50.499 -23.5s-15.5 -41.167 -15.5 -76.5v-95c0 -35.333 5.16699 -61 15.5 -77c10.3418 -16 27.1748 -24 50.5 -24c23.333 0 40 8 50 24z" />
    <glyph glyph-name="guilsinglleft" unicode="&#x2039;" horiz-adv-x="323" 
d="M23 264l233 205v-91l-132 -114l132 -114v-91z" />
    <glyph glyph-name="guilsinglright" unicode="&#x203a;" horiz-adv-x="335" 
d="M67 150l132 114l-132 114v91l234 -205l-234 -205v91z" />
    <glyph glyph-name="Euro" unicode="&#x20ac;" horiz-adv-x="606" 
d="M161 53.5c-40 42.333 -60 101.167 -60 176.5v21h-67v64h67v65h-67v64h67v23c0 72.667 20 129.667 60 171s97 62 171 62c62 0 112 -15 150 -45s58.333 -72 61 -126h-81c-10 61.333 -53 92 -129 92c-95.333 0 -143 -51 -143 -153v-24h244l-13 -64h-231v-65h217l-13 -64
h-204v-23c0 -106 48.333 -159 145 -159c38 0 67.667 7.83301 89 23.5s34.333 38.5 39 68.5h84c-4 -54 -25.167 -96 -63.5 -126s-88.5 -45 -150.5 -45c-74.667 0 -132 21.167 -172 63.5z" />
    <glyph glyph-name="trademark" unicode="&#x2122;" horiz-adv-x="902" 
d="M168 629h-132v61h333v-61h-132v-333h-69v333zM433 690h63l135 -254h4l131 254h63v-394h-64v257h-3l-106 -199h-48l-108 199h-3v-257h-64v394z" />
    <glyph glyph-name="fi" unicode="&#xfb01;" horiz-adv-x="561" 
d="M221.5 608.5c-13 -12.333 -19.5 -31.5 -19.5 -57.5v-39h128v-64h-128v-448h-85v448h-72v64h72v36c0 46 13 81.167 39 105.5s63.667 36.5 113 36.5h61v-63h-47c-28 0 -48.5 -6.16699 -61.5 -18.5zM400 689h85v-92h-85v92zM400 512h85v-512h-85v512z" />
    <glyph glyph-name="fl" unicode="&#xfb02;" horiz-adv-x="628" 
d="M221.5 608.5c-13 -12.333 -19.5 -31.5 -19.5 -57.5v-39h128v-64h-128v-448h-85v448h-72v64h72v36c0 46 13 81.167 39 105.5s63.667 36.5 113 36.5h61v-63h-47c-28 0 -48.5 -6.16699 -61.5 -18.5zM431.5 37.5c-25.667 25 -38.5 63.833 -38.5 116.5v536h85v-531
c0 -30 6.16699 -51.333 18.5 -64s33.833 -19 64.5 -19h44v-76h-55c-53.333 0 -92.833 12.5 -118.5 37.5z" />
    <glyph glyph-name=".null" horiz-adv-x="0" 
 />
    </font>
</defs>
</svg>
