<?xml version="1.0" encoding="UTF-8"?>
<svg width="56px" height="103px" viewBox="0 0 56 103" version="1.1" xmlns="http://www.w3.org/2000/svg" xmlns:xlink="http://www.w3.org/1999/xlink">
    <!-- Generator: Sketch 53 (72520) - https://sketchapp.com -->
    <title>right-arrow-6 copy</title>
    <desc>Created with Sketch.</desc>
    <g id="Page-1" stroke="none" stroke-width="1" fill="none" fill-rule="evenodd">
        <g id="PArtea-9-Copy-2" transform="translate(-7.000000, -5124.000000)" fill="#010101" fill-rule="nonzero">
            <g id="right-arrow-6-copy" transform="translate(35.000000, 5175.500000) scale(-1, 1) translate(-35.000000, -5175.500000) translate(7.000000, 5124.000000)">
                <path d="M6.31239936,101.934483 C5.59098229,102.644828 4.68921095,103 3.69726248,103 C2.70531401,103 1.80354267,102.644828 1.0821256,101.934483 C-0.360708535,100.513793 -0.360708535,98.2051724 1.0821256,96.7844828 L47.0724638,51.5 L1.0821256,6.21551724 C-0.360708535,4.79482759 -0.360708535,2.4862069 1.0821256,1.06551724 C2.52495974,-0.355172414 4.86956522,-0.355172414 6.31239936,1.06551724 L54.9178744,48.925 C56.3607085,50.3456897 56.3607085,52.6543103 54.9178744,54.075 L6.31239936,101.934483 L6.31239936,101.934483 Z" id="Path"></path>
            </g>
        </g>
    </g>
</svg>