<?xml version="1.0" encoding="UTF-8"?>
<svg width="32px" height="23px" viewBox="0 0 32 23" version="1.1" xmlns="http://www.w3.org/2000/svg" xmlns:xlink="http://www.w3.org/1999/xlink">
    <!-- Generator: Sketch 52.2 (67145) - http://www.bohemiancoding.com/sketch -->
    <title>Shape</title>
    <desc>Created with Sketch.</desc>
    <g id="-Main-ppage" stroke="none" stroke-width="1" fill="none" fill-rule="evenodd">
        <g id="Desktop-HD-Copy-10" transform="translate(-40.000000, -995.000000)" fill="#4EFF00" fill-rule="nonzero">
            <g id="HEAD-#1" transform="translate(-12.000000, -7.000000)">
                <path d="M73.221,1023.808 C72.777,1024.252 72.078,1024.252 71.634,1023.808 C71.205,1023.379 71.205,1022.665 71.634,1022.237 L79.681,1014.19 L53.127,1014.19 C52.508,1014.19 52,1013.698 52,1013.079 C52,1012.46 52.508,1011.952 53.127,1011.952 L79.681,1011.952 L71.634,1003.92 C71.205,1003.476 71.205,1002.761 71.634,1002.333 C72.078,1001.889 72.777,1001.889 73.221,1002.333 L83.173,1012.285 C83.602,1012.714 83.602,1013.428 83.173,1013.856 L73.221,1023.808 Z" id="Shape"></path>
            </g>
        </g>
    </g>
</svg>