<?xml version="1.0" encoding="UTF-8"?>
<svg width="40px" height="34px" viewBox="0 0 40 34" version="1.1" xmlns="http://www.w3.org/2000/svg" xmlns:xlink="http://www.w3.org/1999/xlink">
    <!-- Generator: Sketch 53 (72520) - https://sketchapp.com -->
    <title>Group 10</title>
    <desc>Created with Sketch.</desc>
    <defs>
        <polygon id="path-1" points="0 0.870517241 39.4145882 0.870517241 39.4145882 34 0 34"></polygon>
    </defs>
    <g id="Page-1" stroke="none" stroke-width="1" fill="none" fill-rule="evenodd">
        <g id="PArtea-9-Copy" transform="translate(-1230.000000, -977.000000)">
            <g id="Group-10" transform="translate(1230.000000, 977.000000)">
                <g id="Group-3">
                    <mask id="mask-2" fill="white">
                        <use xlink:href="#path-1"></use>
                    </mask>
                    <g id="Clip-2"></g>
                    <path d="M36.9863529,0.870517241 L2.42870588,0.870517241 C1.08988235,0.870517241 -0.000705882353,1.95617241 -0.000705882353,3.29037931 L-0.000705882353,26.6601034 C-0.000705882353,27.9943103 1.08988235,29.0799655 2.42870588,29.0799655 L14.1169412,29.0799655 L13.644,32.8492759 L11.6851765,32.8492759 C11.3663529,32.8492759 11.1075294,33.1072069 11.1075294,33.424931 C11.1075294,33.7426552 11.3663529,34.0005862 11.6851765,34.0005862 L27.7298824,34.0005862 C28.0487059,34.0005862 28.3075294,33.7426552 28.3075294,33.424931 C28.3075294,33.1072069 28.0487059,32.8492759 27.7298824,32.8492759 L25.7710588,32.8492759 L25.2981176,29.0799655 L36.9863529,29.0799655 C38.3251765,29.0799655 39.4145882,27.9943103 39.4145882,26.6601034 L39.4145882,3.29037931 C39.4145882,1.95617241 38.3251765,0.870517241 36.9863529,0.870517241 L36.9863529,0.870517241 Z M14.8075294,32.8492759 L15.2804706,29.0799655 L17.4051765,29.0799655 L17.6134118,29.9112069 C17.8545882,30.8702414 18.7157647,31.5396897 19.7075294,31.5396897 C20.6992941,31.5396897 21.5604706,30.8702414 21.8016471,29.9112069 L22.0098824,29.0799655 L24.1345882,29.0799655 L24.6075294,32.8492759 L14.8075294,32.8492759 Z M18.5957647,29.0799655 L20.8192941,29.0799655 L20.6804706,29.6321724 C20.5687059,30.0776897 20.1687059,30.3895517 19.7075294,30.3895517 C19.2463529,30.3895517 18.8463529,30.0776897 18.7334118,29.6321724 L18.5957647,29.0799655 Z M38.2604706,26.6601034 L38.2604706,26.6601034 C38.2604706,27.3600345 37.6887059,27.9298276 36.9863529,27.9298276 L2.42870588,27.9298276 C1.72635294,27.9298276 1.15458824,27.3600345 1.15458824,26.6601034 L1.15458824,3.29037931 C1.15458824,2.59044828 1.72635294,2.02182759 2.42870588,2.02182759 L36.9863529,2.02182759 C37.6887059,2.02182759 38.2604706,2.59044828 38.2604706,3.29037931 L38.2604706,26.6601034 Z" id="Fill-1" fill="#23232F" mask="url(#mask-2)"></path>
                </g>
                <path d="M32.4181575,4 L2.58184251,4 C2.26070336,4 2,4.25471936 2,4.56848729 L2,26.4315127 C2,26.7452806 2.26070336,27 2.58184251,27 L3.82492355,27 C4.14606269,27 4.40676606,26.7452806 4.40676606,26.4315127 C4.40676606,26.1177448 4.14606269,25.8630254 3.82492355,25.8630254 L3.16368502,25.8630254 L3.16368502,5.13697458 L32.4181575,5.13697458 C32.7392966,5.13697458 33,4.88225522 33,4.56848729 C33,4.25471936 32.7392966,4 32.4181575,4" id="Fill-4" fill="#23232F"></path>
                <path d="M36.4181575,4 L35.1750765,4 C34.8539373,4 34.5932339,4.25471936 34.5932339,4.56848729 C34.5932339,4.88225522 34.8539373,5.13697458 35.1750765,5.13697458 L35.836315,5.13697458 L35.836315,25.8630254 L6.58184251,25.8630254 C6.26070336,25.8630254 6,26.1177448 6,26.4315127 C6,26.7452806 6.26070336,27 6.58184251,27 L36.4181575,27 C36.7392966,27 37,26.7452806 37,26.4315127 L37,4.56848729 C37,4.25471936 36.7392966,4 36.4181575,4" id="Fill-6" fill="#23232F"></path>
                <path d="M27.8785483,9.69557636 C27.7762204,9.56234348 27.6215658,9.48216794 27.4552829,9.47391457 L14.0363749,8.85609128 C14.0259095,8.85491223 14.0154441,8.85491223 14.0049788,8.85491223 C13.9259072,8.59080457 13.7572988,8.36088941 13.5305495,8.20761264 L11.8874891,7.09694558 C11.6246924,6.92008777 11.271196,6.99200995 11.0956107,7.25729667 C10.9211881,7.52376244 10.99212,7.88219427 11.2537538,8.06023113 L12.897977,9.17089819 C12.9049539,9.1756144 12.910768,9.18386776 12.9130936,9.19330018 L15.0061642,16.6213283 C15.0724448,16.8524225 15.179424,17.0611147 15.3177992,17.2403306 L14.5515028,18.7931422 C14.3666149,19.1669017 14.3863828,19.603151 14.6026667,19.9580456 C14.6817383,20.0877414 14.7817405,20.1973932 14.8956966,20.2846431 C14.7456932,20.5499298 14.6596448,20.8576624 14.6596448,21.1842598 C14.6596448,22.185275 15.4631513,23 16.4503829,23 C17.4376146,23 18.2411211,22.185275 18.2411211,21.1842598 C18.2411211,20.9519865 18.196934,20.7303248 18.1190253,20.5263487 L23.3214685,20.5263487 C23.242397,20.7303248 23.1993727,20.9519865 23.1993727,21.1842598 C23.1993727,22.185275 24.0017165,23 24.9889481,23 C25.9773425,23 26.7796863,22.185275 26.7796863,21.1842598 C26.7796863,20.894213 26.7122429,20.6194939 26.5924727,20.3754301 C26.7075916,20.2704944 26.7796863,20.1172177 26.7796863,19.9474342 C26.7796863,19.6279111 26.5250293,19.3685196 26.2099059,19.3685196 L15.6073406,19.3685196 C15.5992009,19.3685196 15.5852471,19.3685196 15.5736189,19.3496548 C15.5619907,19.3307899 15.5689676,19.3189994 15.5724561,19.3107461 L16.2771232,17.8805559 C16.4213125,17.9182855 16.5713159,17.9383294 16.7236449,17.9383294 C16.7945768,17.9383294 16.8655086,17.9336132 16.9376032,17.9253599 L24.9563892,16.9691486 C25.9912963,16.8453482 26.8250361,16.0659947 27.0296919,15.0284289 L27.9890159,10.1660181 C28.0215748,9.9997718 27.9808762,9.82880925 27.8785483,9.69557636 L27.8785483,9.69557636 Z M24.9889481,20.5263487 C25.3470957,20.5263487 25.6389628,20.8211118 25.6389628,21.1842598 C25.6389628,21.5474078 25.3470957,21.8421709 24.9889481,21.8421709 C24.6308005,21.8421709 24.3400962,21.5474078 24.3400962,21.1842598 C24.3400962,20.8211118 24.6308005,20.5263487 24.9889481,20.5263487 L24.9889481,20.5263487 Z M16.4503829,20.5263487 C16.8085306,20.5263487 17.0992348,20.8211118 17.0992348,21.1842598 C17.0992348,21.5474078 16.8085306,21.8421709 16.4503829,21.8421709 C16.0922353,21.8421709 15.801531,21.5474078 15.801531,21.1842598 C15.801531,20.8211118 16.0922353,20.5263487 16.4503829,20.5263487 L16.4503829,20.5263487 Z M15.0503513,12.5653891 L14.3352188,10.028069 L16.6166658,10.1330047 L17.0131864,12.5653891 L15.0503513,12.5653891 Z M16.8038793,16.7757841 C16.4852674,16.8135138 16.1922376,16.615433 16.1038635,16.3029842 L15.3771028,13.7232183 L17.2003999,13.7232183 L17.6806433,16.6720275 L16.8038793,16.7757841 Z M20.1493038,16.3772645 L18.8155527,16.5364365 L18.3574028,13.7232183 L20.1493038,13.7232183 L20.1493038,16.3772645 Z M20.1493038,12.5653891 L18.1690264,12.5653891 L17.7829712,10.1872411 L20.1493038,10.2957139 L20.1493038,12.5653891 Z M23.038904,16.0318022 L21.2900272,16.2404944 L21.2900272,13.7232183 L23.2458854,13.7232183 L23.038904,16.0318022 Z M23.3482133,12.5653891 L21.2900272,12.5653891 L21.2900272,10.3487712 L23.5377525,10.4525278 L23.3482133,12.5653891 Z M25.9098992,14.8020509 C25.80292,15.3455939 25.3657008,15.754725 24.8226653,15.8195729 L24.1970697,15.8938531 L24.3912602,13.7232183 L26.1226947,13.7232183 L25.9098992,14.8020509 Z M26.3517696,12.5653891 L24.4947509,12.5653891 L24.678476,10.5044061 L26.7389877,10.5999093 L26.3517696,12.5653891 Z" id="Fill-8" fill="#23232F"></path>
            </g>
        </g>
    </g>
</svg>