<?xml version="1.0" encoding="UTF-8"?>
<svg width="64px" height="63px" viewBox="0 0 64 63" version="1.1" xmlns="http://www.w3.org/2000/svg" xmlns:xlink="http://www.w3.org/1999/xlink">
    <!-- Generator: Sketch 53 (72520) - https://sketchapp.com -->
    <title>Group 8</title>
    <desc>Created with Sketch.</desc>
    <defs>
        <polygon id="path-1" points="0 0.5616 63.5344 0.5616 63.5344 63 0 63"></polygon>
    </defs>
    <g id="Page-1" stroke="none" stroke-width="1" fill="none" fill-rule="evenodd">
        <g id="PArtea-9-Copy" transform="translate(-1305.000000, -14585.000000)">
            <g id="Group-8" transform="translate(1305.000000, 14585.000000)">
                <g id="Group-3">
                    <mask id="mask-2" fill="white">
                        <use xlink:href="#path-1"></use>
                    </mask>
                    <g id="Clip-2"></g>
                    <path d="M46.992,4.9432 C46.4832,2.4472 44.2704,0.5608 41.6256,0.5608 C41.0208,0.5608 40.5296,1.0504 40.5296,1.6568 C40.5296,2.2632 41.0208,2.7528 41.6256,2.7528 C43.4368,2.7528 44.912,4.2264 44.912,6.0392 C44.912,7.8504 43.4368,9.3256 41.6256,9.3256 C41.0208,9.3256 40.5296,9.8152 40.5296,10.42 C40.5296,11.0264 41.0208,11.516 41.6256,11.516 C44.2704,11.516 46.4832,9.6312 46.992,7.1336 L61.3424,7.1336 L61.3424,14.8024 L48.1984,14.8024 L46.008,14.8024 L32.8624,14.8024 L30.672,14.8024 L17.5264,14.8024 L15.336,14.8024 L2.1904,14.8024 L2.1904,7.1336 L17.5264,7.1336 L20.8128,7.1336 C21.4176,7.1336 21.9088,6.644 21.9088,6.0392 C21.9088,5.4328 21.4176,4.9432 20.8128,4.9432 L18.824,4.9432 C19.2768,3.6696 20.4816,2.7528 21.9088,2.7528 C23.72,2.7528 25.1952,4.2264 25.1952,6.0392 C25.1952,7.8504 23.72,9.3256 21.9088,9.3256 C21.304,9.3256 20.8128,9.8152 20.8128,10.42 C20.8128,11.0264 21.304,11.516 21.9088,11.516 C24.928,11.516 27.3856,9.0584 27.3856,6.0392 C27.3856,3.0184 24.928,0.5608 21.9088,0.5608 C19.264,0.5608 17.0512,2.4472 16.5424,4.9432 L0,4.9432 L0,14.8024 L0,18.0888 L0,30.1384 L0,32.3288 L0,45.4728 L0,47.6648 L0,63.0008 L15.336,63.0008 L17.5264,63.0008 L30.672,63.0008 L32.8624,63.0008 L46.008,63.0008 L48.1984,63.0008 L63.5344,63.0008 L63.5344,47.6648 L63.5344,45.4728 L63.5344,32.3288 L63.5344,30.1384 L63.5344,18.0888 L63.5344,14.8024 L63.5344,4.9432 L46.992,4.9432 Z M32.8624,30.1384 L46.008,30.1384 L46.008,16.9928 L32.8624,16.9928 L32.8624,30.1384 Z M32.8624,45.4728 L46.008,45.4728 L46.008,32.3272 L32.8624,32.3272 L32.8624,45.4728 Z M17.5264,45.4744 L30.672,45.4744 L30.672,32.3288 L17.5264,32.3288 L17.5264,45.4744 Z M17.5264,30.1384 L30.672,30.1384 L30.672,16.9928 L17.5264,16.9928 L17.5264,30.1384 Z M2.1904,18.0888 L2.1904,16.9928 L15.336,16.9928 L15.336,30.1384 L2.1904,30.1384 L2.1904,18.0888 Z M2.1904,45.4744 L15.336,45.4744 L15.336,32.3288 L2.1904,32.3288 L2.1904,45.4744 Z M2.1904,60.8104 L15.336,60.8104 L15.336,47.6648 L2.1904,47.6648 L2.1904,60.8104 Z M17.5264,60.8104 L30.672,60.8104 L30.672,47.6648 L17.5264,47.6648 L17.5264,60.8104 Z M32.8624,60.8104 L46.008,60.8104 L46.008,47.6648 L32.8624,47.6648 L32.8624,60.8104 Z M48.1968,60.8088 L61.3424,60.8088 L61.3424,47.6632 L48.1968,47.6632 L48.1968,60.8088 Z M48.1968,45.4728 L61.3424,45.4728 L61.3424,32.3272 L48.1968,32.3272 L48.1968,45.4728 Z M48.1984,30.1384 L48.1984,16.9928 L61.3424,16.9928 L61.3424,18.0888 L61.3424,30.1384 L48.1984,30.1384 Z" id="Fill-1" fill="#23232F" mask="url(#mask-2)"></path>
                </g>
                <path d="M28.1672347,3.19967864 C30.0961538,3.19967864 31.6672347,4.68112767 31.6672347,6.5 C31.6672347,8.31887233 30.0961538,9.80032136 28.1672347,9.80032136 C27.5231256,9.80032136 27,10.2919953 27,10.8993573 C27,11.508326 27.5231256,12 28.1672347,12 C31.384372,12 34,9.53198948 34,6.5 C34,3.46640374 31.384372,1 28.1672347,1 C27.5231256,1 27,1.49167397 27,2.09903593 C27,2.70800467 27.5231256,3.19967864 28.1672347,3.19967864" id="Fill-4" fill="#28537A"></path>
                <path d="M35.1672347,3.19967864 C37.0961538,3.19967864 38.6672347,4.68112767 38.6672347,6.5 C38.6672347,8.31887233 37.0961538,9.80032136 35.1672347,9.80032136 C34.5231256,9.80032136 34,10.2919953 34,10.8993573 C34,11.508326 34.5231256,12 35.1672347,12 C38.384372,12 41,9.53198948 41,6.5 C41,3.46640374 38.384372,1 35.1672347,1 C34.5231256,1 34,1.49167397 34,2.09903593 C34,2.70800467 34.5231256,3.19967864 35.1672347,3.19967864" id="Fill-6" fill="#28537A"></path>
            </g>
        </g>
    </g>
</svg>