<?xml version="1.0" encoding="UTF-8"?>
<svg width="44px" height="32px" viewBox="0 0 44 32" version="1.1" xmlns="http://www.w3.org/2000/svg" xmlns:xlink="http://www.w3.org/1999/xlink">
    <!-- Generator: Sketch 53 (72520) - https://sketchapp.com -->
    <title>Group 42</title>
    <desc>Created with Sketch.</desc>
    <defs>
        <polygon id="path-1" points="0.00030495803 0.0112903226 43.7831429 0.0112903226 43.7831429 32 0.00030495803 32"></polygon>
    </defs>
    <g id="Page-1" stroke="none" stroke-width="1" fill="none" fill-rule="evenodd">
        <g id="PArtea-9-Copy" transform="translate(-66.000000, -11762.000000)">
            <g id="Group-42" transform="translate(66.000000, 11762.000000)">
                <path d="M43,4.92484975 L43,4.93486978 L11.1637019,4.98496995 L1.00311506,5 L1.00000594,3.69238561 C0.996896826,2.25150476 2.21463342,1.07014279 3.70493573,1.06613478 L40.2826338,1.00000256 C41.7729361,0.99799855 42.9937818,2.1743505 42.9979273,3.61523135 L43,4.92484975 Z" id="Fill-1" fill="#D6DEED"></path>
                <path d="M40.3329934,2 C40.7011729,2 41,2.22341239 41,2.50038256 C41,2.63810252 40.9245283,2.76358072 40.8041815,2.85386381 C40.6838348,2.9441469 40.5175931,3 40.3329934,3 L39.6659867,3 C39.2978072,3 39,2.77658761 39,2.50038256 C39,2.36189748 39.0744518,2.23718439 39.1947986,2.14613619 C39.3151453,2.05661821 39.4824069,2 39.6659867,2 L40.3329934,2 Z" id="Fill-3" fill="#F0F2FA"></path>
                <path d="M37.3329934,2 C37.7011729,2 38,2.22341239 38,2.50038256 C38,2.63810252 37.9245283,2.76358072 37.8041815,2.85386381 C37.6838348,2.9441469 37.5175931,3 37.3329934,3 L36.6659867,3 C36.2978072,3 36,2.77658761 36,2.50038256 C36,2.36189748 36.0744518,2.23718439 36.1947986,2.14613619 C36.3151453,2.05661821 36.4824069,2 36.6659867,2 L37.3329934,2 Z" id="Fill-5" fill="#F0F2FA"></path>
                <path d="M34.3457691,2 C34.7068966,2 35,2.22341239 35,2.50038256 C35,2.63810252 34.9259739,2.76358072 34.8079322,2.85386381 C34.6898905,2.9441469 34.526833,3 34.3457691,3 L18.6542309,3 C18.2921031,3 18,2.77658761 18,2.50038256 C18,2.36189748 18.0740261,2.23718439 18.1910674,2.14613619 C18.3101095,2.05661821 18.473167,2 18.6542309,2 L34.3457691,2 Z" id="Fill-7" fill="#F0F2FA"></path>
                <path d="M14.3329934,2 C14.7011729,2 15,2.22341239 15,2.50038256 C15,2.63810252 14.9245283,2.76358072 14.8041815,2.85386381 C14.6838348,2.9441469 14.5175931,3 14.3329934,3 L13.6659867,3 C13.2978072,3 13,2.77658761 13,2.50038256 C13,2.36189748 13.0744518,2.23718439 13.1947986,2.14613619 C13.3151453,2.05661821 13.4824069,2 13.6659867,2 L14.3329934,2 Z" id="Fill-9" fill="#F0F2FA"></path>
                <path d="M12.3329934,2 C12.7011729,2 13,2.22341239 13,2.50038256 C13,2.63810252 12.9245283,2.76358072 12.8041815,2.85386381 C12.6838348,2.9441469 12.5175931,3 12.3329934,3 L11.6659867,3 C11.2978072,3 11,2.77658761 11,2.50038256 C11,2.36189748 11.0744518,2.23718439 11.1947986,2.14613619 C11.3151453,2.05661821 11.4824069,2 11.6659867,2 L12.3329934,2 Z" id="Fill-11" fill="#F0F2FA"></path>
                <path d="M10.9522891,5 L11,31.9858631 L3.7012486,31.9999889 C2.24149833,32.0043354 1.04466552,30.7275732 1.04263527,29.1650336 L1,5.0173857 L10.9522891,5 Z" id="Fill-13" fill="#F0F2FA"></path>
                <g id="Group-17">
                    <mask id="mask-2" fill="white">
                        <use xlink:href="#path-1"></use>
                    </mask>
                    <g id="Clip-16"></g>
                    <path d="M43.7394571,4.83163226 L43.7394571,4.83163226 L43.7394571,4.83056774 L43.7373619,3.44030968 C43.7331714,1.54866452 42.2172667,0.0104387097 40.3493619,0.0104387097 L3.37469524,0.0817612903 C2.47479048,0.0828258065 1.62726667,0.442632258 0.988219048,1.09411613 C0.349171429,1.74666452 -0.00178095238,2.60892258 0.000314285713,3.52334194 L0.00240952381,4.91466452 L0.00240952381,4.91466452 L0.00240952381,4.91572903 L0.0464095238,28.5714065 C0.049552381,30.4619871 1.56650476,32.0002129 3.42707619,32.0002129 L3.4333619,32.0002129 L40.4090762,31.9288903 C42.2727905,31.9256968 43.7866,30.3821484 43.7834571,28.4873097 L43.7394571,4.83163226 Z M3.43126667,30.6951161 L3.42707619,31.3476645 L3.42707619,30.6951161 C2.2726,30.6951161 1.3318381,29.7413097 1.32974286,28.5682129 L1.2878381,5.56508387 L10.2743143,5.54805161 L10.3214571,30.6823419 L3.43126667,30.6951161 Z M40.4059333,30.6248581 L11.6047905,30.6802129 L11.5586952,5.54485806 L38.3054571,5.49376129 C38.6606,5.49376129 38.9466,5.20101935 38.9466,4.84014839 C38.9455524,4.48034194 38.6585048,4.18972903 38.3044095,4.18972903 L38.3033619,4.18972903 L1.28574286,4.2599871 L1.28364762,3.5212129 C1.2826,2.95489032 1.50050476,2.42050323 1.89755238,2.01492258 C2.2946,1.61040645 2.81945714,1.38685806 3.37679048,1.38579355 L40.3566952,1.31553548 C41.5101238,1.31553548 42.4508857,2.26934194 42.452981,3.44243871 L42.4540286,4.1812129 L41.0418381,4.18440645 C40.6877429,4.18547097 40.4006952,4.47714839 40.4017429,4.83801935 C40.4017429,5.19782581 40.6898381,5.48843871 41.0428857,5.48843871 L41.044981,5.48843871 L42.4571714,5.48630968 L42.4990762,28.4905032 C42.5011714,29.6646645 41.5625048,30.622729 40.4059333,30.6248581 L40.4059333,30.6248581 Z" id="Fill-15" fill="#23232F" mask="url(#mask-2)"></path>
                </g>
                <path d="M3.5,2 C3.36867863,2 3.23980424,2.05383361 3.14681892,2.14681892 C3.05383361,2.23980424 3,2.36867863 3,2.5 C3,2.63213703 3.05383361,2.76019576 3.14681892,2.85399674 C3.23980424,2.94616639 3.36867863,3 3.5,3 C3.63213703,3 3.76019576,2.94616639 3.85399674,2.85399674 C3.94616639,2.76019576 4,2.63213703 4,2.5 C4,2.36867863 3.94616639,2.23980424 3.85399674,2.14681892 C3.76019576,2.05301794 3.63213703,2 3.5,2" id="Fill-18" fill="#23232F"></path>
                <path d="M5.5,2 C5.36867863,2 5.23980424,2.05301794 5.14681892,2.14681892 C5.05383361,2.23898858 5,2.36786297 5,2.5 C5,2.63132137 5.05383361,2.76019576 5.14681892,2.85318108 C5.23980424,2.94616639 5.36867863,3 5.5,3 C5.63132137,3 5.76019576,2.94616639 5.85399674,2.85318108 C5.94616639,2.76019576 6,2.63132137 6,2.5 C6,2.36786297 5.94616639,2.23898858 5.85399674,2.14681892 C5.76019576,2.05301794 5.63132137,2 5.5,2" id="Fill-20" fill="#23232F"></path>
                <path d="M7.5,2 C7.36867863,2 7.23980424,2.05301794 7.14681892,2.14600326 C7.05383361,2.23898858 7,2.36786297 7,2.5 C7,2.63132137 7.05383361,2.7593801 7.14681892,2.85318108 C7.23980424,2.94616639 7.36867863,3 7.5,3 C7.63132137,3 7.76019576,2.94616639 7.85318108,2.85318108 C7.94616639,2.76019576 8,2.63132137 8,2.5 C8,2.36786297 7.94616639,2.23898858 7.85318108,2.14600326 C7.76019576,2.05301794 7.63213703,2 7.5,2" id="Fill-22" fill="#23232F"></path>
                <path d="M3.63402832,8 L3.63506262,8 L8.36700316,7.99351702 C8.7176322,7.99270665 9.00103148,7.76985413 8.99999718,7.49594814 C8.99896287,7.22123177 8.71556359,7 8.36596886,7 L8.36493456,7 L3.63299401,7.00648298 C3.28236498,7.00729335 3,7.23014587 3,7.50405186 C3.0010343,7.77795786 3.28443358,8 3.63402832,8" id="Fill-24" fill="#23232F"></path>
                <path d="M3.63402832,11 L3.63506262,11 L8.36700316,10.9927066 C8.7176322,10.9927066 9.00103148,10.7698541 8.99999718,10.4959481 C8.99896287,10.2212318 8.71556359,10 8.36596886,10 L8.36493456,10 L3.63299401,10.006483 C3.28236498,10.0072934 3,10.2301459 3,10.5040519 C3.0010343,10.7779579 3.28443358,11 3.63402832,11" id="Fill-26" fill="#23232F"></path>
                <path d="M8.36597168,12 L8.36493738,12 L3.63299684,12.0072934 C3.2823678,12.0072934 2.99896852,12.2301459 3.00000282,12.5040519 C3.00103713,12.7787682 3.28443641,13 3.63403114,13 L3.63506544,13 L8.36700599,12.993517 C8.71763502,12.9927066 9,12.7698541 9,12.4959481 C8.9989657,12.2220421 8.71556642,12 8.36597168,12" id="Fill-28" fill="#23232F"></path>
                <path d="M3.63854121,17 L3.63958288,17 L6.36353928,16.995935 C6.71562236,16.995122 7.00103882,16.7723577 6.99999716,16.496748 C6.99999716,16.2219512 6.71353903,16 6.36249761,16 L6.36041428,16 L3.63749955,16.003252 C3.2843748,16.004065 3,16.2276423 3,16.502439 C3.00104167,16.7772358 3.28645813,17 3.63854121,17" id="Fill-30" fill="#23232F"></path>
                <path d="M6.36145879,19 L6.36041712,19 L3.63646072,19.004065 C3.28437764,19.004878 2.99896118,19.2276423 3.00000284,19.503252 C3.00000284,19.7780488 3.28646097,20 3.63750239,20 L3.63958572,20 L6.36250045,19.996748 C6.7156252,19.995935 7,19.7723577 7,19.497561 C6.99895833,19.2227642 6.71354187,19 6.36145879,19" id="Fill-32" fill="#23232F"></path>
                <path d="M4.34752623,21 L4.34646183,21 L3.65034789,21.000815 C3.29058258,21.00163 2.99893851,21.2257539 3.0000029,21.5012225 C3.0000029,21.7766911 3.29164697,22 3.65141228,22 L3.65354107,22 L4.34859062,21.999185 C4.70942033,21.99837 5,21.7742461 5,21.4987775 C4.99893561,21.2233089 4.70729154,21 4.34752623,21" id="Fill-34" fill="#23232F"></path>
                <path d="M19.9433117,20.8171609 C19.3133877,21.4385603 18.475508,21.7820175 17.5831156,21.7830101 L17.5770586,21.7830101 C16.6866852,21.7830101 15.849815,21.4435236 15.2198909,20.8260948 C14.5869384,20.2066807 14.2386631,19.3827806 14.2366441,18.5052773 C14.2346251,17.627774 14.5808815,16.8018885 15.2108055,16.1804891 C15.8407295,15.5590897 16.6786093,15.2156326 17.5710017,15.2146399 L17.5770586,15.2146399 C18.467432,15.2146399 19.3043023,15.5541265 19.9342263,16.1715553 C20.1765048,16.4087988 20.5681883,16.4087988 20.8094573,16.1705626 C21.0507263,15.9323264 21.0497168,15.5471779 20.8074383,15.3099344 C19.019625,13.5588984 16.1153118,13.5638617 14.334565,15.3218462 C13.4714479,16.1735406 12.9969859,17.3051625 13.0000144,18.5072626 C13.0020334,19.7093627 13.4805334,20.8389992 14.3466789,21.6877157 C15.2108055,22.5344468 16.3575903,23 17.5770586,23 L17.5851346,23 C18.8086409,22.9980147 19.9564351,22.5274982 20.8195522,21.6758039 C21.0608212,21.4375677 21.0598117,21.0524192 20.8185427,20.8151756 C20.5762642,20.5789247 20.1845807,20.5789247 19.9433117,20.8171609" id="Fill-36" fill="#23232F"></path>
                <path d="M28.8413493,20.1573727 C29.2588559,19.9976857 29.6428322,19.7626185 29.9716457,19.4601058 C30.6303544,18.8540886 30.9916166,18.0497024 30.9894533,17.1947322 C30.9862085,15.4322239 29.4210994,14 27.4990546,14 L27.4925649,14 C27.4925649,14 24.7960778,14.0049592 24.6662829,14.0049592 C24.6662829,14.0049592 24.6652013,14.0049592 24.6641197,14.0049592 C24.6630381,14.0049592 24.6630381,14.0049592 24.6619564,14.0049592 C24.2974494,14.0069429 23.9989213,14.2787084 24.0000029,14.613952 C24.0000029,14.6337888 24.0010846,14.6546176 24.0032478,14.6744545 L24.0194722,22.392991 C24.0194722,22.7282345 24.315837,23 24.6814257,23 L24.6835889,23 C25.0491776,22.9990082 25.3455424,22.7262508 25.3444608,22.3910073 L25.3303997,15.2189773 L27.4947281,15.2160018 L27.4990546,15.2160018 C28.6910036,15.2160018 29.6623014,16.1037029 29.6644647,17.1967159 C29.6655463,17.7273529 29.4405686,18.2262508 29.0327966,18.60216 C28.6250246,18.9780692 28.080968,19.1853648 27.5033811,19.1863566 C27.2351385,19.1863566 26.9939365,19.3351333 26.8911823,19.5622658 C26.7895097,19.7893983 26.8468357,20.0512453 27.0361198,20.2248182 L29.8699731,22.8125413 C30.1295627,23.0495922 30.548151,23.0486004 30.806659,22.8105576 C31.065167,22.5735067 31.0640853,22.1886709 30.8055773,21.95162 L28.8413493,20.1573727 Z" id="Fill-38" fill="#23232F"></path>
                <path d="M39.5113145,14.0193193 C39.2335369,13.9499475 38.9413561,14.0718437 38.8024674,14.3136541 L36.0010294,19.1924768 L33.1800442,14.3235644 C33.0401266,14.081754 32.7489746,13.9628308 32.4701683,14.0322027 C32.1923908,14.1015745 31.9989753,14.3443759 32.0000041,14.6208723 L32.0144074,22.3934919 C32.0154362,22.7284588 32.2973289,23 32.6450653,23 L32.6460941,23 C32.9948592,22.999009 33.276752,22.7264767 33.2757232,22.3915098 L33.2654351,16.9616765 L35.452676,20.7394689 C35.5648158,20.931728 35.7746922,21.0506512 36.0030871,21.0506512 L36.0051447,21.0506512 C36.2335395,21.0496602 36.4444447,20.929746 36.5555557,20.7374869 L38.7283934,16.9517662 L38.7386814,22.3815996 C38.7397102,22.7165665 39.021603,22.9871167 39.3693393,22.9871167 L39.3703681,22.9871167 C39.7191332,22.9871167 40.001026,22.7145844 39.9999972,22.3796175 L39.9845651,14.6060069 C39.9845651,14.3295106 39.789092,14.0877001 39.5113145,14.0193193" id="Fill-40" fill="#23232F"></path>
            </g>
        </g>
    </g>
</svg>