<?xml version="1.0" encoding="UTF-8"?>
<svg width="47px" height="42px" viewBox="0 0 47 42" version="1.1" xmlns="http://www.w3.org/2000/svg" xmlns:xlink="http://www.w3.org/1999/xlink">
    <!-- Generator: Sketch 53 (72520) - https://sketchapp.com -->
    <title>Group 8</title>
    <desc>Created with Sketch.</desc>
    <defs>
        <polygon id="path-1" points="0.868416525 0.2545 30.2732956 0.2545 30.2732956 37.6676875 0.868416525 37.6676875"></polygon>
    </defs>
    <g id="Page-1" stroke="none" stroke-width="1" fill="none" fill-rule="evenodd">
        <g id="PArtea-9-Copy" transform="translate(-717.000000, -12861.000000)">
            <g id="Group-8" transform="translate(717.000000, 12861.000000)">
                <path d="M23.5,19 C26.5331295,19 29,16.7560727 29,14.0008493 C29,11.2439273 26.5331295,9 23.5,9 C20.4668705,9 18,11.2439273 18,14.0008493 C18,16.7560727 20.4668705,19 23.5,19 M23.5,10.4285714 C25.6659871,10.4285714 27.4283045,12.030406 27.4283045,14.0008493 C27.4283045,15.969594 25.6659871,17.5714286 23.5,17.5714286 C21.3340129,17.5714286 19.5716955,15.969594 19.5716955,14.0008493 C19.5716955,12.030406 21.3340129,10.4285714 23.5,10.4285714" id="Fill-1" fill="#23232F"></path>
                <g id="Group-5" transform="translate(8.000000, 0.000000)">
                    <mask id="mask-2" fill="white">
                        <use xlink:href="#path-1"></use>
                    </mask>
                    <g id="Clip-4"></g>
                    <path d="M15.5723941,37.6676875 L27.3341588,22.5291875 C31.7471,17.2869375 31.1088647,8.6711875 25.9701588,4.0919375 C23.1929235,1.6170625 19.5002765,0.2536875 15.5723941,0.2536875 C11.6445118,0.2536875 7.95186471,1.6170625 5.17462941,4.0919375 C0.0359235294,8.6711875 -0.602311765,17.2869375 3.79239412,22.5080625 L15.5723941,37.6676875 Z M6.25962941,5.0588125 C8.74692353,2.8423125 12.0548059,1.6203125 15.5723941,1.6203125 C19.0899824,1.6203125 22.3978647,2.8423125 24.8851588,5.0588125 C29.5242176,9.1911875 30.0949824,16.9716875 26.0905118,21.7296875 L15.5723941,35.2659375 L5.03604118,21.7085625 C1.04980588,16.9716875 1.62239412,9.1911875 6.25962941,5.0588125 L6.25962941,5.0588125 Z" id="Fill-3" fill="#23232F" mask="url(#mask-2)"></path>
                </g>
                <path d="M32.9920327,30.0055233 C32.5616775,29.958519 32.1723085,30.2355083 32.1220073,30.6232934 C32.071706,31.0110784 32.3791026,31.3619315 32.8094577,31.4072571 C41.0458221,32.2818718 45.4332091,34.6354416 45.4332091,36.0002435 C45.4332091,37.9156666 37.0887902,40.5881939 23.5,40.5881939 C9.91120977,40.5881939 1.56679087,37.9156666 1.56679087,36.0002435 C1.56679087,34.6354416 5.9541779,32.2818718 14.1924053,31.4072571 C14.6208974,31.3619315 14.928294,31.0110784 14.8779927,30.6232934 C14.8276915,30.2355083 14.4383225,29.9568403 14.0079673,30.0055233 C5.76042492,30.880138 0,33.3461823 0,36.0002435 C0,38.9816558 8.07241953,42 23.5,42 C38.9275805,42 47,38.9816558 47,36.0002435 C47,33.3461823 41.2395751,30.880138 32.9920327,30.0055233" id="Fill-6" fill="#23232F"></path>
            </g>
        </g>
    </g>
</svg>