<?xml version="1.0" encoding="UTF-8"?>
<svg width="49px" height="52px" viewBox="0 0 49 52" version="1.1" xmlns="http://www.w3.org/2000/svg" xmlns:xlink="http://www.w3.org/1999/xlink">
    <!-- Generator: Sketch 53 (72520) - https://sketchapp.com -->
    <title>Group 16</title>
    <desc>Created with Sketch.</desc>
    <defs>
        <polygon id="path-1" points="0.67076 0.567 16.57016 0.567 16.57016 19.634475 0.67076 19.634475"></polygon>
    </defs>
    <g id="Page-1" stroke="none" stroke-width="1" fill="none" fill-rule="evenodd">
        <g id="PArtea-9-Copy" transform="translate(-66.000000, -13913.000000)">
            <g id="Group-16" transform="translate(66.000000, 13913.000000)">
                <path d="M11.4813767,43.7076641 L10.0005661,43.7076641 L10.0005661,42.8566315 L10.9855089,41.7422671 C11.5459074,41.1074805 11.8566738,40.2843506 11.8566738,39.4263424 L11.8566738,36.6674621 C11.8566738,34.6445158 10.2535945,33 8.28370882,33 L6.71629118,33 C4.74640552,33 3.14502434,34.6445158 3.14502434,36.6674621 L3.14502434,39.4263424 C3.14502434,40.2843506 3.45409261,41.1074805 4.01618929,41.7422671 L5.00113212,42.8566315 L5.00113212,43.7076641 L3.51862334,43.7076641 C1.57930488,43.7076641 0,45.3295089 0,47.3210647 L0,51.2256999 C0,51.6529601 0.337937281,52 0.755688894,52 L14.2460093,52 C14.6620627,52 15,51.6529601 15,51.2256999 L15,47.3210647 C15,45.3295089 13.4223933,43.7076641 11.4813767,43.7076641 L11.4813767,43.7076641 Z M13.4903204,50.4496558 L1.50967961,50.4496558 L1.50967961,47.3210647 C1.50967961,46.1840294 2.41141175,45.2580083 3.51862334,45.2580083 L5.75512283,45.2580083 C6.17287445,45.2580083 6.51081173,44.9109683 6.51081173,44.4837081 L6.51081173,42.5305186 C6.51081173,42.2689307 6.38514661,42.0369894 6.1915544,41.895732 L5.13358995,40.6994034 C4.82452168,40.3506196 4.65470395,39.8989445 4.65470395,39.4263424 L4.65470395,36.6674621 C4.65470395,35.5007802 5.58021057,34.5503442 6.71629118,34.5503442 L8.28370882,34.5503442 C9.4214876,34.5503442 10.345296,35.5007802 10.345296,36.6674621 L10.345296,39.4263424 C10.345296,39.8989445 10.1754783,40.3506196 9.86641005,40.6994034 L8.8084456,41.895732 C8.61655157,42.0369894 8.48918827,42.2689307 8.48918827,42.5305186 L8.48918827,44.4837081 C8.48918827,44.9109683 8.82712555,45.2580083 9.24487717,45.2580083 L11.4813767,45.2580083 C12.5885882,45.2580083 13.4903204,46.1840294 13.4903204,47.3210647 L13.4903204,50.4496558 Z" id="Fill-1" fill="#23232F"></path>
                <g id="Group-5" transform="translate(32.000000, 0.000000)">
                    <mask id="mask-2" fill="white">
                        <use xlink:href="#path-1"></use>
                    </mask>
                    <g id="Clip-4"></g>
                    <path d="M12.84056,11.313225 L11.27096,11.313225 L11.27096,10.459225 L12.31496,9.340975 C12.90896,8.703975 13.23836,7.877975 13.23836,7.016975 L13.23836,4.248475 C13.23836,2.218475 11.53916,0.566475 9.45116,0.566475 L7.78976,0.566475 C5.70176,0.566475 4.00436,2.218475 4.00436,4.248475 L4.00436,7.016975 C4.00436,7.877975 4.33196,8.703975 4.92776,9.340975 L5.97176,10.459225 L5.97176,11.313225 L4.40036,11.313225 C2.34476,11.313225 0.67076,12.940725 0.67076,14.939225 L0.67076,18.855725 C0.67076,19.286225 1.02896,19.634475 1.47176,19.634475 L15.77096,19.634475 C16.21196,19.634475 16.57016,19.286225 16.57016,18.855725 L16.57016,14.939225 C16.57016,12.940725 14.89796,11.313225 12.84056,11.313225 L12.84056,11.313225 Z M2.27096,18.078725 L2.27096,14.939225 C2.27096,13.798225 3.22676,12.868975 4.40036,12.868975 L6.77096,12.868975 C7.21376,12.868975 7.57196,12.520725 7.57196,12.091975 L7.57196,10.130225 C7.57196,9.867725 7.43876,9.636725 7.23356,9.494975 L6.11216,8.294475 C5.78456,7.944475 5.60456,7.489475 5.60456,7.016975 L5.60456,4.248475 C5.60456,3.077725 6.58556,2.123975 7.78976,2.123975 L9.45116,2.123975 C10.65716,2.123975 11.63636,3.075975 11.63636,4.248475 L11.63636,7.016975 C11.63636,7.491225 11.45636,7.944475 11.12876,8.294475 L10.00736,9.494975 C9.80396,9.636725 9.66896,9.869475 9.66896,10.131975 L9.66896,12.091975 C9.66896,12.520725 10.02716,12.868975 10.46996,12.868975 L12.84056,12.868975 C14.01416,12.868975 14.96996,13.798225 14.96996,14.939225 L14.96996,18.078725 L2.27096,18.078725 Z" id="Fill-3" fill="#23232F" mask="url(#mask-2)"></path>
                </g>
                <path d="M32.7742754,9.4761434 L29.3745158,6.21603621 C29.0723921,5.92798793 28.5844798,5.92798793 28.2823561,6.21603621 C27.9819687,6.50574952 27.9819687,6.97361986 28.2823561,7.26333316 L30.3642313,9.25969093 L7.77267263,9.25969093 C7.34553226,9.25969093 7,9.59102971 7,9.99895936 L7,12.2600552 C7,12.6679848 7.34553226,12.9993236 7.77267263,12.9993236 C8.19981301,12.9993236 8.54534527,12.6696498 8.54534527,12.2600552 L8.54534527,10.7398928 L30.3642313,10.7398928 L28.2823561,12.7362506 C27.9819687,13.0259639 27.9819687,13.4938342 28.2823561,13.7835475 C28.4334179,13.9267392 28.631361,14 28.8293041,14 C29.0272472,14 29.223454,13.9267392 29.3745158,13.7835475 L32.7742754,10.5234403 C32.9183919,10.3852438 33,10.1954316 33,9.99895936 C33,9.80248712 32.9183919,9.616005 32.7742754,9.4761434" id="Fill-6" fill="#23232F"></path>
                <path d="M7.89,16 C7.398,16 7,16.3451266 7,16.7717655 L7,30.2282345 C7,30.6548734 7.398,31 7.89,31 C8.382,31 8.78,30.6548734 8.78,30.2282345 L8.78,16.7717655 C8.78,16.3451266 8.382,16 7.89,16" id="Fill-8" fill="#23232F"></path>
                <path d="M41.2099423,21 C40.7731913,21 40.4198846,21.3411579 40.4198846,21.7628907 L40.4198846,42.119214 L17.6946294,42.119214 L19.8233466,40.0636951 C20.1322681,39.7671106 20.1322681,39.2836608 19.8233466,38.985362 C19.5144252,38.6887775 19.0155348,38.6887775 18.7066134,38.985362 L15.2303595,42.342081 C14.9232135,42.6403798 14.9232135,43.1221153 15.2303595,43.4204141 L18.7066134,46.7771331 C18.8610741,46.9262825 19.0634709,47 19.2658677,47 C19.4664891,47 19.6688859,46.9262825 19.8233466,46.7771331 C20.1322681,46.4788342 20.1322681,45.9970988 19.8233466,45.6987999 L17.6946294,43.643281 L41.2099423,43.643281 C41.6466933,43.643281 42,43.3021232 42,42.8821047 L42,21.7628907 C42,21.3411579 41.6466933,21 41.2099423,21" id="Fill-10" fill="#23232F"></path>
                <path d="M29.9970431,22.8374296 C29.9188546,20.7668715 28.2314385,19.0810271 26.1548985,19.0029956 C25.0566233,18.9612578 24.016535,19.3568596 23.2255587,20.1153988 C22.4345824,20.8757528 22,21.8974217 22,22.991678 C22,23.4380911 22.3618489,23.7992139 22.8091597,23.7992139 C23.2546521,23.7992139 23.616501,23.4380911 23.616501,22.991678 C23.616501,22.3402053 23.8765231,21.7304704 24.3474722,21.2786133 C24.8184213,20.8267562 25.4366556,20.5908469 26.093075,20.6162525 C27.3295437,20.6616197 28.3350837,21.6651417 28.3805421,22.899129 C28.4241822,24.0133469 27.7023027,24.9969074 26.6258476,25.2872574 C25.7821395,25.5159079 25.1911802,26.2889647 25.1911802,27.1636439 L25.1911802,29.1924642 C25.1911802,29.6388772 25.5530292,30 26.0003399,30 C26.4458323,30 26.8076812,29.6388772 26.8076812,29.1924642 L26.8076812,27.1636439 C26.8076812,27.0148396 26.9076897,26.8841821 27.0495199,26.844259 C28.8569462,26.3561081 30.0679582,24.7083721 29.9970431,22.8374296" id="Fill-12" fill="#23232F"></path>
                <path d="M25.5,30 C24.6734694,30 24,30.6722192 24,31.500806 C24,32.3277808 24.6734694,33 25.5,33 C26.3265306,33 27,32.3277808 27,31.500806 C27,30.6738313 26.3265306,30 25.5,30 M25.5,31.5668995 C25.4629431,31.5668995 25.433942,31.5378829 25.433942,31.500806 C25.433942,31.4637292 25.4629431,31.4331005 25.5,31.4331005 C25.5370569,31.4331005 25.566058,31.4637292 25.566058,31.500806 C25.566058,31.5378829 25.5370569,31.5668995 25.5,31.5668995" id="Fill-14" fill="#23232F"></path>
            </g>
        </g>
    </g>
</svg>