<?xml version="1.0" encoding="UTF-8"?>
<svg width="40px" height="20px" viewBox="0 0 40 20" version="1.1" xmlns="http://www.w3.org/2000/svg" xmlns:xlink="http://www.w3.org/1999/xlink">
    <!-- Generator: Sketch 53 (72520) - https://sketchapp.com -->
    <title>Group 3</title>
    <desc>Created with Sketch.</desc>
    <g id="Page-1" stroke="none" stroke-width="1" fill="none" fill-rule="evenodd">
        <g id="PArtea-9-Copy" transform="translate(-70.000000, -78.000000)" fill="#23232F">
            <g id="Group-3" transform="translate(70.000000, 78.000000)">
                <polygon id="Fill-1" points="0 0 0 20 22 20 22 17.3328248 19.2508194 17.3328248 19.2508194 10.6674294 16.5003278 10.6674294 16.5003278 17.3328248 13.7511471 17.3328248 13.7511471 8.00025426 11.0006555 8.00025426 11.0006555 17.3328248 8.25016388 17.3328248 8.25016388 3.99949148 5.49967225 3.99949148 5.49967225 17.3328248 2.75049163 17.3328248 2.75049163 0"></polygon>
                <polygon id="Fill-2" points="33.4340568 2 33.4340568 4.6786486 35.5162771 4.6786486 32.1218698 8.14250638 29.4949917 5.46385779 22 13.1065606 23.8568447 15 29.4949917 9.25073659 32.1218698 11.9281084 37.3731219 6.572088 37.3731219 8.69534473 40 8.69534473 40 2"></polygon>
            </g>
        </g>
    </g>
</svg>