<?xml version="1.0" encoding="UTF-8"?>
<svg width="265px" height="1421px" viewBox="0 0 265 1421" version="1.1" xmlns="http://www.w3.org/2000/svg" xmlns:xlink="http://www.w3.org/1999/xlink">
    <!-- Generator: Sketch 53 (72520) - https://sketchapp.com -->
    <title>Group 3</title>
    <desc>Created with Sketch.</desc>
    <defs>
        <polygon id="path-1" points="0 0 265 0 265 1479 0 1479"></polygon>
        <linearGradient x1="50%" y1="0%" x2="50%" y2="100%" id="linearGradient-3">
            <stop stop-color="#B3055D" offset="0%"></stop>
            <stop stop-color="#0A34B8" offset="100%"></stop>
        </linearGradient>
        <path d="M209.2459,1118.75516 C207.672288,1103.11036 200.936267,1088.38913 191.345378,1075.90102 L40.7319032,879.792728 C37.6715006,875.815638 32.9408079,873.483373 27.9263454,873.490571 L27.850913,873.490571 C12.9979028,873.490571 0.860461052,861.843638 0.0414800786,847.166199 C-0.734396633,833.248186 9.46335329,820.633075 23.1453644,818.110052 C24.9090471,817.782527 26.6368096,817.652957 28.3250598,817.68175 C32.8438233,817.760932 37.1865776,815.97934 39.9452504,812.390962 L207.997991,593.52148 C210.878792,589.771139 211.53254,584.901454 210.282517,580.337699 C209.639545,578.001834 209.294711,575.543596 209.294711,572.998979 C209.294711,570.457961 209.639545,567.996125 210.282517,565.66026 C211.53254,561.100104 210.8752,556.230419 207.994399,552.483677 L40.7319032,334.704745 C37.6715006,330.724057 32.9408079,328.391791 27.9263454,328.398989 L27.850913,328.398989 C13.0050868,328.398989 0.871237117,316.762854 0.0450721004,302.096212 C-0.741580677,288.178199 9.44539318,275.55229 23.1274043,273.01847 C24.894679,272.694545 26.6260335,272.557776 28.3142838,272.590169 C32.8402313,272.66935 37.1901697,270.884159 39.9524344,267.292182 L190.914335,70.6764039 C201.101309,57.4098417 207.739365,41.6598482 209.445576,25.0100608 C209.499456,24.4953787 209.56052,23.9770973 209.646729,23.458816 C211.546908,11.3331926 221.561465,1.65500878 233.727643,0.204540918 C251.673384,-1.93696871 266.7491,13.039202 264.834552,30.9810935 C263.728209,41.3503191 256.508245,50.2078909 246.802603,53.9690296 C246.698434,54.0086206 246.601449,54.0518107 246.497281,54.0878024 C231.087507,59.8644796 217.915563,70.4028665 207.883046,83.471474 L57.003762,279.972078 C54.1229605,283.722419 53.4656205,288.592104 54.7156441,293.15226 C55.358616,295.491724 55.7034501,297.949961 55.7034501,300.49098 C55.7034501,303.035597 55.358616,305.493834 54.7192361,307.829699 C53.4656205,312.389855 54.1265525,317.255941 57.003762,321.006282 L225.056502,539.810979 C227.807991,543.395758 232.154338,545.17735 236.665917,545.098168 C238.354167,545.065775 240.08193,545.195346 241.845612,545.519272 C255.527624,548.042294 265.725373,560.653806 264.953089,574.571819 C264.144884,589.252857 252.00385,600.906989 237.147248,600.906989 L237.071815,600.906989 C232.060945,600.89979 227.333844,603.228457 224.277034,607.205546 L57.003762,825.06366 C54.1229605,828.814001 53.4656205,833.683686 54.7156441,838.243842 C55.358616,840.583306 55.7034501,843.037944 55.7034501,845.582561 C55.7034501,848.127179 55.358616,850.585416 54.7156441,852.921281 C53.4656205,857.485036 54.1121844,862.336725 56.9893939,866.083467 C78.9258711,894.642927 166.898077,1009.1831 208.224288,1062.98718 C218.066428,1075.79665 230.904314,1086.32424 246.094974,1091.75899 C246.31768,1091.83817 246.540385,1091.92455 246.76309,1092.00733 C256.479509,1095.75408 263.710249,1104.60085 264.83096,1114.97367 C264.980203,1116.35298 265.029002,1117.71482 264.983769,1119.05276 C265.022431,1120.34214 264.97379,1121.6535 264.832125,1122.98109 C263.725782,1133.35032 256.505818,1142.20789 246.800175,1145.96903 C246.696007,1146.00862 246.599022,1146.05181 246.494853,1146.0878 C231.08508,1151.86448 217.913136,1162.40287 207.880619,1175.47147 L57.0013346,1371.97208 C54.1205331,1375.72242 53.4631931,1380.5921 54.7132167,1385.15226 C55.3561886,1387.49172 55.7010227,1389.94996 55.7010227,1392.49098 C55.7010227,1395.0356 55.3561886,1397.49383 54.7168087,1399.8297 C54.1357503,1401.94336 51.9975726,1408 46.4975726,1413 C40.9975726,1418 30.6141468,1420.39513 27.923918,1420.39899 L27.8484855,1420.39899 C13.0026594,1420.39899 0.868809709,1408.76285 0.0426446924,1394.09621 C-0.744008085,1380.1782 9.44296578,1367.55229 23.1249769,1365.01847 C24.8922516,1364.69454 26.6236061,1364.55778 28.3118564,1364.59017 C32.8378038,1364.66935 37.1877423,1362.88416 39.950007,1359.29218 L190.911908,1162.6764 C200.742287,1149.87424 207.267859,1134.75946 209.2459,1118.75516 Z" id="path-4"></path>
        <linearGradient x1="50%" y1="0%" x2="50%" y2="100%" id="linearGradient-5">
            <stop stop-color="#940E6E" offset="0%"></stop>
            <stop stop-color="#B0065F" offset="100%"></stop>
        </linearGradient>
        <circle id="path-6" cx="237" cy="28" r="19"></circle>
    </defs>
    <g id="Page-1" stroke="none" stroke-width="1" fill="none" fill-rule="evenodd">
        <g id="Desktop-HD-Copy-9" transform="translate(-585.000000, -276.000000)">
            <g id="Group-3" transform="translate(585.000000, 276.000000)">
                <mask id="mask-2" fill="white">
                    <use xlink:href="#path-1"></use>
                </mask>
                <g id="Clip-2"></g>
                <g id="Combined-Shape" mask="url(#mask-2)">
                    <use fill="#565656" xlink:href="#path-4"></use>
                    <use fill="url(#linearGradient-3)" xlink:href="#path-4"></use>
                </g>
                <g id="Oval" mask="url(#mask-2)">
                    <use fill="#940E6E" xlink:href="#path-6"></use>
                    <use fill="url(#linearGradient-5)" xlink:href="#path-6"></use>
                </g>
                <circle id="Oval-Copy" fill="#930D6E" mask="url(#mask-2)" cx="29" cy="300" r="19"></circle>
                <circle id="Oval-Copy-2" fill="#7B147B" mask="url(#mask-2)" cx="237" cy="573" r="19"></circle>
                <circle id="Oval-Copy-3" fill="#621C8A" mask="url(#mask-2)" cx="27" cy="844" r="19"></circle>
                <circle id="Oval-Copy-4" fill="#3727A0" mask="url(#mask-2)" cx="237" cy="1118" r="19"></circle>
                <circle id="Oval-Copy" fill="#1E2FAF" mask="url(#mask-2)" cx="27" cy="1393" r="19"></circle>
            </g>
        </g>
    </g>
</svg>