<?xml version="1.0" encoding="UTF-8"?>
<svg width="32px" height="23px" viewBox="0 0 32 23" version="1.1" xmlns="http://www.w3.org/2000/svg" xmlns:xlink="http://www.w3.org/1999/xlink">
    <!-- Generator: Sketch 52.2 (67145) - http://www.bohemiancoding.com/sketch -->
    <title>Shape</title>
    <desc>Created with Sketch.</desc>
    <g id="-Main-ppage" stroke="none" stroke-width="1" fill="none" fill-rule="evenodd">
        <g id="Desktop-HD-Copy-10" transform="translate(-385.000000, -995.000000)" fill="#15275F" fill-rule="nonzero">
            <g id="HEAD-#1" transform="translate(-12.000000, -7.000000)">
                <path d="M418.221,1023.808 C417.777,1024.252 417.078,1024.252 416.634,1023.808 C416.205,1023.379 416.205,1022.665 416.634,1022.237 L424.681,1014.19 L398.127,1014.19 C397.508,1014.19 397,1013.698 397,1013.079 C397,1012.46 397.508,1011.952 398.127,1011.952 L424.681,1011.952 L416.634,1003.92 C416.205,1003.476 416.205,1002.761 416.634,1002.333 C417.078,1001.889 417.777,1001.889 418.221,1002.333 L428.173,1012.285 C428.602,1012.714 428.602,1013.428 428.173,1013.856 L418.221,1023.808 Z" id="Shape"></path>
            </g>
        </g>
    </g>
</svg>