<?xml version="1.0" encoding="UTF-8"?>
<svg width="32px" height="23px" viewBox="0 0 32 23" version="1.1" xmlns="http://www.w3.org/2000/svg" xmlns:xlink="http://www.w3.org/1999/xlink">
    <!-- Generator: Sketch 52.2 (67145) - http://www.bohemiancoding.com/sketch -->
    <title>Shape</title>
    <desc>Created with Sketch.</desc>
    <g id="-Main-page" stroke="none" stroke-width="1" fill="none" fill-rule="evenodd">
        <g id="Desktop-HD-cosul" transform="translate(-387.000000, -989.000000)" fill="#1C1F6A" fill-rule="nonzero">
            <g id="HEAD-#1" transform="translate(-14.000000, -13.000000)">
                <path d="M422.727,1023.991 C422.283,1024.435 421.584,1024.435 421.14,1023.991 C420.711,1023.562 420.711,1022.848 421.14,1022.42 L429.187,1014.373 L402.633,1014.373 C402.014,1014.373 401.506,1013.881 401.506,1013.262 C401.506,1012.643 402.014,1012.135 402.633,1012.135 L429.187,1012.135 L421.14,1004.103 C420.711,1003.659 420.711,1002.944 421.14,1002.516 C421.584,1002.072 422.283,1002.072 422.727,1002.516 L432.679,1012.468 C433.108,1012.897 433.108,1013.611 432.679,1014.039 L422.727,1023.991 Z" id="Shape"></path>
            </g>
        </g>
    </g>
</svg>