<?xml version="1.0" encoding="UTF-8"?>
<svg width="24px" height="15px" viewBox="0 0 24 15" version="1.1" xmlns="http://www.w3.org/2000/svg" xmlns:xlink="http://www.w3.org/1999/xlink">
    <!-- Generator: Sketch 52.2 (67145) - http://www.bohemiancoding.com/sketch -->
    <title>Path</title>
    <desc>Created with Sketch.</desc>
    <g id="Symbols" stroke="none" stroke-width="1" fill="none" fill-rule="evenodd">
        <g id="Button-Vezi-Produs" transform="translate(-176.000000, -12.000000)" fill="#B3522B">
            <g id="Group-2">
                <g id="noun_Arrow_1569918" transform="translate(176.000000, 12.000000)">
                    <g id="Group">
                        <path d="M23.99996,7.447 C23.99996,7.269 23.888,7.03265385 23.774404,6.91796154 L17.374524,0.379376923 C17.075724,0.0823384615 16.591644,0.0479153846 16.243284,0.349376923 C15.931844,0.618876923 15.924084,1.14449231 16.212084,1.43714615 L21.349484,6.67761538 L0.80004,6.67761538 C0.3582,6.67761538 4e-05,7.022 4e-05,7.44684615 C4e-05,7.87169231 0.3582,8.21611538 0.80004,8.21611538 L21.349484,8.21611538 L16.212084,13.4565769 C15.924124,13.7491923 15.944564,14.2618846 16.243284,14.5443077 C16.558684,14.8424615 17.080284,14.8159231 17.374524,14.5143077 L23.774404,7.97576923 C23.962444,7.79842308 23.996804,7.62761538 23.99996,7.447 Z" id="Path"></path>
                    </g>
                </g>
            </g>
        </g>
    </g>
</svg>