<?xml version="1.0" encoding="UTF-8"?>
<svg width="26px" height="33px" viewBox="0 0 26 33" version="1.1" xmlns="http://www.w3.org/2000/svg" xmlns:xlink="http://www.w3.org/1999/xlink">
    <!-- Generator: Sketch 52.2 (67145) - http://www.bohemiancoding.com/sketch -->
    <title>Shape</title>
    <desc>Created with Sketch.</desc>
    <g id="Page-1" stroke="none" stroke-width="1" fill="none" fill-rule="evenodd">
        <g id="Desktop-HD-Copy-9" transform="translate(-802.000000, -1383.000000)" fill="#000000" fill-rule="nonzero">
            <g id="Group-3" transform="translate(756.000000, 1372.000000)">
                <g id="Shape-2" transform="translate(46.000000, 11.000000)">
                    <path d="M13,0 C9.32285714,0 6.31428571,2.98346196 6.31428571,6.62183021 L6.31428571,9.35060639 L1.11428571,9.35060639 C0.482857143,9.35060639 0,9.82359427 0,10.4421169 L0,27.5424476 C0,30.5622933 2.48857143,33 5.57142857,33 L20.4285714,33 C23.5114286,33 26,30.5622933 26,27.5424476 L26,10.4421169 C26,9.82359427 25.5171429,9.35060639 24.8857143,9.35060639 L19.6857143,9.35060639 L19.6857143,6.62183021 C19.6857143,2.98346196 16.6771429,0 13,0 Z M8.54285714,6.62183021 C8.54285714,4.18412348 10.5485714,2.18302095 13,2.18302095 C15.4514286,2.18302095 17.4571429,4.18412348 17.4571429,6.62183021 L17.4571429,9.35060639 L8.54285714,9.35060639 L8.54285714,6.62183021 Z M23.92,12.375 L23.92,27.7155276 C23.92,29.4587693 22.4240394,30.8533627 20.5540887,30.8533627 L5.59448276,30.8533627 C3.72453202,30.8533627 2.22857143,29.4587693 2.22857143,27.7155276 L2.22857143,12.375 L6.34246305,12.375 L6.34246305,14.1879714 C6.34246305,14.7806736 6.82865025,15.2339165 7.4644335,15.2339165 C8.10021675,15.2339165 8.58640394,14.7806736 8.58640394,14.1879714 L8.58640394,12.375 L17.5621675,12.375 L17.5621675,14.1879714 C17.5621675,14.7806736 18.0483547,15.2339165 18.6841379,15.2339165 C19.3199212,15.2339165 19.8061084,14.7806736 19.8061084,14.1879714 L19.8061084,12.375 L23.92,12.375 Z" id="Shape"></path>
                </g>
            </g>
        </g>
    </g>
</svg>