<?xml version="1.0" encoding="UTF-8"?>
<svg width="17px" height="22px" viewBox="0 0 17 22" version="1.1" xmlns="http://www.w3.org/2000/svg" xmlns:xlink="http://www.w3.org/1999/xlink">
    <!-- Generator: Sketch 52.2 (67145) - http://www.bohemiancoding.com/sketch -->
    <title>Shape</title>
    <desc>Created with Sketch.</desc>
    <g id="Symbols" stroke="none" stroke-width="1" fill="none" fill-rule="evenodd">
        <g id="Menu.icons-activ" transform="translate(-1202.000000, -31.000000)" fill="#161746" fill-rule="nonzero">
            <g id="icons-menu" transform="translate(1102.000000, 25.000000)">
                <path d="M108.5,6 C110.904286,6 112.871429,7.98897464 112.871429,10.4145535 L112.871429,12.2337376 L116.271429,12.2337376 C116.684286,12.2337376 117,12.5490628 117,12.9614112 L117,24.3616318 C117,26.3748622 115.372857,28 113.357143,28 L103.642857,28 C101.627143,28 100,26.3748622 100,24.3616318 L100,12.9614112 C100,12.5490628 100.315714,12.2337376 100.728571,12.2337376 L104.128571,12.2337376 L104.128571,10.4145535 C104.128571,7.98897464 106.095714,6 108.5,6 Z M105.585714,10.4145535 L105.585714,12.2337376 L111.414286,12.2337376 L111.414286,10.4145535 C111.414286,8.78941566 110.102857,7.4553473 108.5,7.4553473 C106.897143,7.4553473 105.585714,8.78941566 105.585714,10.4145535 Z" id="Shape"></path>
            </g>
        </g>
    </g>
</svg>