<?xml version="1.0" encoding="UTF-8"?>
<svg width="60px" height="57px" viewBox="0 0 60 57" version="1.1" xmlns="http://www.w3.org/2000/svg" xmlns:xlink="http://www.w3.org/1999/xlink">
    <!-- Generator: Sketch 52.2 (67145) - http://www.bohemiancoding.com/sketch -->
    <title>noun_online shopping_358287</title>
    <desc>Created with Sketch.</desc>
    <g id="-Main-page" stroke="none" stroke-width="1" fill="none" fill-rule="evenodd">
        <g id="Desktop-HD-Copy-10" transform="translate(-528.000000, -3200.000000)" fill="#0A072C">
            <g id="noun_online-shopping_358287" transform="translate(528.000000, 3200.000000)">
                <g id="Group">
                    <g transform="translate(0.000000, 2.458333)">
                        <path d="M46.25,54.3125 C42.8025,54.3125 40,51.55425 40,48.1666667 C40,44.7790833 42.8025,42.0208333 46.25,42.0208333 C49.6975,42.0208333 52.5,44.7790833 52.5,48.1666667 C52.5,51.55425 49.6975,54.3125 46.25,54.3125 Z M46.25,44.4791667 C44.1825,44.4791667 42.5,46.133625 42.5,48.1666667 C42.5,50.1997083 44.1825,51.8541667 46.25,51.8541667 C48.3175,51.8541667 50,50.1997083 50,48.1666667 C50,46.133625 48.3175,44.4791667 46.25,44.4791667 Z" id="Shape" fill-rule="nonzero"></path>
                        <path d="M21.25,54.3125 C17.8025,54.3125 15,51.55425 15,48.1666667 C15,44.7790833 17.8025,42.0208333 21.25,42.0208333 C24.6975,42.0208333 27.5,44.7790833 27.5,48.1666667 C27.5,51.55425 24.6975,54.3125 21.25,54.3125 Z M21.25,44.4791667 C19.1825,44.4791667 17.5,46.133625 17.5,48.1666667 C17.5,50.1997083 19.1825,51.8541667 21.25,51.8541667 C23.3175,51.8541667 25,50.1997083 25,48.1666667 C25,46.133625 23.3175,44.4791667 21.25,44.4791667 Z" id="Shape" fill-rule="nonzero"></path>
                        <path d="M51.25,39.5625 L22.3975,39.5625 C18.24,39.5625 14.635,36.6542917 13.8175,32.6472083 L7.725,2.6875 L1.25,2.6875 C0.56,2.6875 0,2.13683333 0,1.45833333 C0,0.779833333 0.56,0.229166667 1.25,0.229166667 L8.75,0.229166667 C9.345,0.229166667 9.8575,0.642166667 9.975,1.21741667 L16.27,32.1629167 C16.85,35.026875 19.43,37.1041667 22.3975,37.1041667 L51.25,37.1041667 C51.94,37.1041667 52.5,37.6548333 52.5,38.3333333 C52.5,39.0118333 51.94,39.5625 51.25,39.5625 Z" id="Path"></path>
                        <path d="M16.2475,34.6458333 C15.6325,34.6458333 15.095,34.1959583 15.01,33.5789167 C14.92,32.9077917 15.4,32.2882917 16.085,32.1973333 L52.67,27.401125 L53.7675,20.9234167 C53.8825,20.25475 54.535,19.7975 55.205,19.9130417 C55.885,20.0236667 56.3475,20.6579167 56.2325,21.3265833 L54.9825,28.7015833 C54.8925,29.2350417 54.46,29.6480417 53.915,29.7193333 L16.415,34.636 C16.36,34.643375 16.3025,34.6458333 16.2475,34.6458333 Z" id="Path"></path>
                        <path d="M33.75,10.0625 L11.25,10.0625 C10.56,10.0625 10,9.51183333 10,8.83333333 C10,8.15483333 10.56,7.60416667 11.25,7.60416667 L33.75,7.60416667 C34.44,7.60416667 35,8.15483333 35,8.83333333 C35,9.51183333 34.44,10.0625 33.75,10.0625 Z" id="Path"></path>
                    </g>
                    <path d="M48.75,22.3541667 C42.5475,22.3541667 37.5,17.3907917 37.5,11.2916667 C37.5,5.19254167 42.5475,0.229166667 48.75,0.229166667 C54.9525,0.229166667 60,5.19254167 60,11.2916667 C60,17.3907917 54.9525,22.3541667 48.75,22.3541667 Z M48.75,2.6875 C43.925,2.6875 40,6.54708333 40,11.2916667 C40,16.03625 43.925,19.8958333 48.75,19.8958333 C53.575,19.8958333 57.5,16.03625 57.5,11.2916667 C57.5,6.54708333 53.575,2.6875 48.75,2.6875 Z" id="Shape" fill-rule="nonzero"></path>
                    <path d="M48.75,22.3541667 C45.4675,22.3541667 43.75,16.7885 43.75,11.2916667 C43.75,5.79483333 45.4675,0.229166667 48.75,0.229166667 C52.0325,0.229166667 53.75,5.79483333 53.75,11.2916667 C53.75,16.7885 52.0325,22.3541667 48.75,22.3541667 Z M48.75,2.6875 C48.025,2.6875 46.25,5.703875 46.25,11.2916667 C46.25,16.8794583 48.025,19.8958333 48.75,19.8958333 C49.475,19.8958333 51.25,16.8794583 51.25,11.2916667 C51.25,5.703875 49.475,2.6875 48.75,2.6875 Z" id="Shape" fill-rule="nonzero"></path>
                    <path d="M57.5,10.0625 L40,10.0625 C39.31,10.0625 38.75,9.51183333 38.75,8.83333333 C38.75,8.15483333 39.31,7.60416667 40,7.60416667 L57.5,7.60416667 C58.19,7.60416667 58.75,8.15483333 58.75,8.83333333 C58.75,9.51183333 58.19,10.0625 57.5,10.0625 Z" id="Path"></path>
                    <path d="M57.5,14.9791667 L40,14.9791667 C39.31,14.9791667 38.75,14.4285 38.75,13.75 C38.75,13.0715 39.31,12.5208333 40,12.5208333 L57.5,12.5208333 C58.19,12.5208333 58.75,13.0715 58.75,13.75 C58.75,14.4285 58.19,14.9791667 57.5,14.9791667 Z" id="Path"></path>
                </g>
            </g>
        </g>
    </g>
</svg>