<?xml version="1.0" encoding="UTF-8"?>
<svg width="18px" height="18px" viewBox="0 0 18 18" version="1.1" xmlns="http://www.w3.org/2000/svg" xmlns:xlink="http://www.w3.org/1999/xlink">
    <!-- Generator: Sketch 52.2 (67145) - http://www.bohemiancoding.com/sketch -->
    <title>Shape</title>
    <desc>Created with Sketch.</desc>
    <g id="Page-1" stroke="none" stroke-width="1" fill="none" fill-rule="evenodd">
        <g id="Desktop-HD-Copy-9" transform="translate(-1394.000000, -407.000000)" fill="#333333" fill-rule="nonzero">
            <g id="Social-Icon" transform="translate(1364.000000, 285.000000)">
                <g id="inst" transform="translate(1.000000, 113.000000)">
                    <path d="M44.057,9.924 L31.943,9.924 C30.803,9.924 29.924,10.803 29.924,11.943 L29.924,24.056 C29.924,25.196 30.803,26.075 31.943,26.075 L44.056,26.075 C45.196,26.075 46.075,25.196 46.075,24.056 L46.075,11.943 C46.076,10.803 45.196,9.924 44.057,9.924 Z M38.012,14.827 C39.803,14.827 41.255,16.234 41.255,17.969 C41.255,19.704 39.803,21.111 38.012,21.111 C36.222,21.111 34.77,19.703 34.77,17.969 C34.77,16.234 36.222,14.827 38.012,14.827 Z M44.057,23.552 C44.057,23.906 43.906,24.057 43.552,24.057 L32.448,24.057 C32.095,24.057 31.943,23.906 31.943,23.552 L31.943,16.486 L33.201,16.76 C33.066,17.199 32.993,17.663 32.993,18.145 C32.993,20.829 35.241,23.008 38.011,23.008 C40.783,23.008 43.03,20.83 43.03,18.145 C43.03,17.663 42.957,17.199 42.822,16.76 L44.056,16.486 L44.056,23.552 L44.057,23.552 Z M44.057,14.467 C44.057,14.746 43.831,14.972 43.552,14.972 L41.533,14.972 C41.254,14.972 41.028,14.746 41.028,14.467 L41.028,12.448 C41.028,12.169 41.254,11.943 41.533,11.943 L43.552,11.943 C43.831,11.943 44.057,12.169 44.057,12.448 L44.057,14.467 Z" id="Shape"></path>
                </g>
            </g>
        </g>
    </g>
</svg>