<?xml version="1.0" encoding="UTF-8"?>
<svg width="18px" height="16px" viewBox="0 0 18 16" version="1.1" xmlns="http://www.w3.org/2000/svg" xmlns:xlink="http://www.w3.org/1999/xlink">
    <!-- Generator: Sketch 52.2 (67145) - http://www.bohemiancoding.com/sketch -->
    <title>Shape</title>
    <desc>Created with Sketch.</desc>
    <g id="Page-1" stroke="none" stroke-width="1" fill="none" fill-rule="evenodd">
        <g id="Desktop-HD-Copy-9" transform="translate(-1393.000000, -463.000000)" fill="#333333" fill-rule="nonzero">
            <g id="Social-Icon" transform="translate(1364.000000, 285.000000)">
                <g id="in" transform="translate(0.000000, 170.000000)">
                    <path d="M46.299,23.932 L46.299,17.795 C46.299,14.507 44.544,12.977 42.203,12.977 C40.314,12.977 39.468,14.016 38.997,14.745 L38.997,13.228 L35.439,13.228 C35.486,14.233 35.439,23.932 35.439,23.932 L38.997,23.932 L38.997,17.954 C38.997,17.635 39.02,17.315 39.114,17.087 C39.371,16.448 39.956,15.786 40.939,15.786 C42.227,15.786 42.742,16.767 42.742,18.206 L42.742,23.933 L46.299,23.932 Z M31.69,11.767 C32.93,11.767 33.703,10.944 33.703,9.917 C33.68,8.867 32.93,8.068 31.713,8.068 C30.496,8.068 29.701,8.866 29.701,9.916 C29.701,10.944 30.473,11.766 31.668,11.766 L31.69,11.766 L31.69,11.767 Z M33.469,23.932 L33.469,13.228 L29.912,13.228 L29.912,23.932 L33.469,23.932 Z" id="Shape"></path>
                </g>
            </g>
        </g>
    </g>
</svg>