<?xml version="1.0" encoding="UTF-8"?>
<svg width="16px" height="16px" viewBox="0 0 16 16" version="1.1" xmlns="http://www.w3.org/2000/svg" xmlns:xlink="http://www.w3.org/1999/xlink">
    <!-- Generator: Sketch 52.2 (67145) - http://www.bohemiancoding.com/sketch -->
    <title>Shape</title>
    <desc>Created with Sketch.</desc>
    <g id="Symbols" stroke="none" stroke-width="1" fill="none" fill-rule="evenodd">
        <g id="footer" transform="translate(-1123.000000, -200.000000)" fill="#4EFF00" fill-rule="nonzero">
            <g id="Group-5" transform="translate(923.000000, 198.000000)">
                <g id="Group-2">
                    <g id="linkedin-logotype-button" transform="translate(200.000000, 2.000000)">
                        <path d="M13.0000098,0 L2.99999017,0 C1.34300587,0 0,1.34300587 0,2.99999017 L0,13.0000098 C0,14.6570256 1.34300587,16 2.99999017,16 L13.0000098,16 C14.6570256,16 16,14.6569941 16,13.0000098 L16,2.99999017 C16.0000315,1.34300587 14.6570256,0 13.0000098,0 Z M6.0000118,11.8750175 L4.00000787,11.8750175 L4.00000787,4.87501942 L6.0000118,4.87501942 L6.0000118,11.8750175 Z M5.06200948,4.4460089 C4.544019,4.4460089 4.12501401,4.02599706 4.12501401,3.50800658 C4.12501401,2.99001611 4.54502585,2.57000427 5.06200948,2.57000427 C5.57999996,2.57101111 6.0000118,2.99099149 6.0000118,3.50800658 C6.0000118,4.02599706 5.57999996,4.4460089 5.06200948,4.4460089 Z M13.0000098,11.8750175 L11.0000059,11.8750175 L11.0000059,7.54699824 C11.0000059,7.03998867 10.8550202,6.68501275 10.2320031,6.68501275 C9.19901125,6.68501275 9.00000197,7.54699824 9.00000197,7.54699824 L9.00000197,11.8750175 L6.99999803,11.8750175 L6.99999803,4.87501942 L9.00000197,4.87501942 L9.00000197,5.54400524 C9.28600898,5.32501637 9.9999882,4.8759948 11.0000059,4.8759948 C11.6480053,4.8759948 13.0000098,5.26400783 13.0000098,7.60800678 L13.0000098,11.8750175 Z" id="Shape"></path>
                    </g>
                </g>
            </g>
        </g>
    </g>
</svg>