<?xml version="1.0" encoding="UTF-8"?>
<svg width="17px" height="22px" viewBox="0 0 17 22" version="1.1" xmlns="http://www.w3.org/2000/svg" xmlns:xlink="http://www.w3.org/1999/xlink">
    <!-- Generator: Sketch 52.2 (67145) - http://www.bohemiancoding.com/sketch -->
    <title>Path</title>
    <desc>Created with Sketch.</desc>
    <g id="Symbols" stroke="none" stroke-width="1" fill="none" fill-rule="evenodd">
        <g id="Menu.icons-activ" transform="translate(-1332.000000, -33.000000)" fill="#161746">
            <g id="icons-menu" transform="translate(1102.000000, 25.000000)">
                <path d="M234.434448,23.9817076 L230.613264,26.0361039 C230.389029,26.1566146 230.187507,26.3047521 230,26.4662268 C232.228339,28.3172317 235.104254,29.4342174 238.246449,29.4342174 C241.365447,29.4342174 244.222998,28.3339031 246.444571,26.5076672 C246.239667,26.3371423 246.017364,26.1837652 245.770899,26.0627782 L241.679087,24.046488 C241.150394,23.7859374 240.816457,23.2534044 240.816457,22.670857 L240.816457,21.0885003 C240.931474,20.9594158 241.062923,20.7936542 241.203553,20.597884 C241.761242,19.8214717 242.183133,18.9674183 242.475509,18.0714481 C243.000335,17.9118787 243.386948,17.4341232 243.386948,16.866342 L243.386948,15.1772881 C243.386948,14.8057534 243.219255,14.4737538 242.958775,14.2413065 L242.958775,11.7996567 C242.958775,11.7996567 243.467654,8 238.246932,8 C233.026211,8 233.53509,11.7996567 233.53509,11.7996567 L233.53509,14.2413065 C233.274126,14.4737538 233.106916,14.8057534 233.106916,15.1772881 L233.106916,16.866342 C233.106916,17.311231 233.3442,17.7027714 233.6994,17.9290265 C234.127574,19.7662179 235.248751,21.0885003 235.248751,21.0885003 L235.248751,22.6317983 C235.247784,23.1938636 234.935594,23.7121068 234.434448,23.9817076 Z" id="Path"></path>
            </g>
        </g>
    </g>
</svg>