<?xml version="1.0" encoding="UTF-8"?>
<svg width="103px" height="20px" viewBox="0 0 103 20" version="1.1" xmlns="http://www.w3.org/2000/svg" xmlns:xlink="http://www.w3.org/1999/xlink">
    <!-- Generator: Sketch 52.2 (67145) - http://www.bohemiancoding.com/sketch -->
    <title>Page 1 Copy</title>
    <desc>Created with Sketch.</desc>
    <defs>
        <polygon id="path-1" points="0 0 8.97193744 0 8.97193744 2.75318456 0 2.75318456"></polygon>
    </defs>
    <g id="Symbols" stroke="none" stroke-width="1" fill="none" fill-rule="evenodd">
        <g id="logo">
            <g id="Page-1-Copy">
                <path d="M36.0006185,8.58840802 C36.0006185,11.964459 35.9599228,15.3409945 36.0256984,18.7158344 C36.0453364,19.7203894 35.788149,20.1145083 34.8029345,19.958508 C34.4567844,19.9037625 34.0926525,19.9214458 33.7412972,19.9563279 C33.1810215,20.0115578 33.0004935,19.8025076 33.0023863,19.2116926 C33.0217878,13.0802007 33.024627,6.94846646 33.0000203,0.816974487 C32.9974177,0.14089223 33.2451409,0.0430286569 33.8257645,0.0316435382 C36.1856419,-0.0138969363 36.1809099,-0.0327913885 37.0225065,2.2565864 C38.5871615,6.51122946 40.1572585,10.7634501 41.7238064,15.0173665 C41.790765,15.1983172 41.7829571,15.4262618 42.0921971,15.5028086 C43.7985774,10.8567112 45.5465997,6.22054558 47.1860213,1.5444109 C47.5951077,0.378041828 48.1118485,-0.0894747451 49.35567,0.0139602689 C50.9681189,0.147674854 50.9759268,0.0466622054 50.9759268,1.67110062 C50.9759268,7.39951095 50.9525031,13.127679 50.9998237,18.8556049 C51.007395,19.7761038 50.7731581,20.0011416 49.8970175,19.9727999 C47.9713064,19.9103029 47.9696502,19.9616571 47.9696502,18.0118949 L47.9696502,8.63322178 L47.7666449,8.59131486 C46.7019317,11.3789733 45.6374552,14.1663894 44.5734519,16.9542901 C44.3732858,17.4789745 44.0971702,17.9891247 43.9916453,18.533188 C43.7533862,19.7666566 43.0556442,20.0134957 41.9012586,19.999446 C40.8573665,19.9868497 40.4213073,19.6598303 40.0666396,18.6705362 C38.8521568,15.2833422 37.5224484,11.9390242 36.2365116,8.57847632 C36.1579594,8.58186763 36.0794072,8.5850167 36.0006185,8.58840802" id="Fill-1" fill="#4EFF00"></path>
                <path d="M72,18.8750072 C71.9117449,18.9064817 71.8786209,18.9273105 71.8441357,18.9291619 C69.045611,19.1015775 69.041981,19.1029661 68.0541597,16.4285573 C66.55337,12.3637151 65.0582523,8.29678999 63.5590507,4.22616204 C63.192191,4.2701338 63.2448264,4.59645055 63.1622433,4.82024368 C61.5525528,9.17252234 59.9274347,13.5190152 58.3558595,17.885874 C58.0706754,18.6778286 57.740116,19.1108347 56.8446335,18.975448 C56.2549808,18.8863473 55.6415061,18.9585536 55.0613823,18.9585536 C54.8812421,18.5257788 55.1435116,18.2362595 55.26058,17.92892 C57.4145479,12.2665143 59.6104879,6.62077159 61.7115934,0.938231435 C62.0584879,0.000475765136 62.5927827,-0.0272958737 63.3335352,0.00927011742 C64.0892617,0.0467618298 64.793714,-0.17494842 65.2034534,0.935454271 C67.3131802,6.65525471 69.533396,12.3322405 71.712774,18.0251951 C71.8198599,18.3052258 71.9053924,18.5935879 72,18.8750072" id="Fill-17" fill="#4EFF00"></path>
                <path d="M0.0182830202,9.41561153 C0.0182830202,6.60775653 0.0443200594,3.79967055 0.000615029366,0.992508511 C-0.0110086488,0.260978668 0.136379591,-0.00834997057 0.935856177,0.000196478497 C2.97604418,0.0219090788 2.97697407,-0.019668241 2.97720654,1.962184 C2.97743902,7.23049239 2.95279682,12.4988008 2.99975648,17.7661852 C3.00812553,18.6993651 2.80447868,19.1257636 1.81460625,18.9677698 C1.51285556,18.9194939 1.19087968,18.9229587 0.88773415,18.9677698 C0.150792952,19.0758708 -0.00891638676,18.7684296 0.00107997649,18.0699306 C0.0424602709,15.1856196 0.0182830202,12.3003846 0.0182830202,9.41561153" id="Fill-19" fill="#4EFF00"></path>
                <path d="M90.0146661,9.42078402 C90.0146661,6.61578674 90.0340695,3.81032781 90.0005327,1.00556136 C89.9921485,0.317699945 90.073116,-0.0153819407 90.9405218,0.000545051744 C92.9994428,0.038631338 93.0037547,-0.011919551 92.9996824,1.99418902 C92.9891422,7.29626172 92.9541681,12.5987961 92.9853095,17.9004071 C92.9905795,18.7466152 92.8070852,19.1191683 91.8857809,18.9665923 C91.5760445,18.915349 91.2435509,18.9220429 90.9311794,18.9658998 C90.1730078,19.071849 90.0053237,18.7660045 90.0156243,18.0666018 C90.0582639,15.1852012 90.0333509,12.3026464 90.0333509,9.42078402 L90.0146661,9.42078402 Z" id="Fill-21" fill="#4EFF00"></path>
                <path d="M77.9649868,9.49747694 C77.9649868,12.3459503 77.9368091,15.1948858 77.9839298,18.042666 C77.9964795,18.7975299 77.7923691,19.0121821 77.0128663,18.9994739 C75.0221981,18.967357 75.0214877,19.0068677 75.0214877,17.0983351 C75.0214877,11.7863297 75.0430353,6.47409326 75.0001769,1.16231892 C74.9930733,0.276907662 75.1969469,-0.131370439 76.148357,0.0373013289 C76.3013214,0.0643350233 76.4665987,0.0611002222 76.6205103,0.0379945006 C77.6386943,-0.115889606 78.0379172,0.178015174 77.9971898,1.2995669 C77.8979761,4.0290458 77.96475,6.76453218 77.9649868,9.49747694" id="Fill-23" fill="#4EFF00"></path>
                <path d="M14.9809068,12.0086887 C14.9809068,14.3596827 14.9506376,16.7113941 14.9989242,19.0614315 C15.0138186,19.7867458 14.8434941,20.0072337 14.0833999,19.9998203 C12.0219689,19.9792542 12.0214884,20.0203864 12.0214884,17.9479916 C12.0214884,13.6843488 12.046953,9.42022779 12.000348,5.15706332 C11.9907387,4.28515567 12.1757174,3.8805293 13.1078177,4.03070978 C13.4198791,4.08092936 13.75212,4.07423342 14.0661032,4.0314272 C14.8089007,3.93003147 15.0150197,4.21532654 14.9991644,4.95594584 C14.9494364,7.30598327 14.9809068,9.65769468 14.9809068,12.0086887" id="Fill-25" fill="#4EFF00"></path>
                <path d="M13.4382384,2.97170888 C11.3949742,2.97170888 9.35008908,2.91709518 7.30890889,2.99583435 C6.35767029,3.03242022 5.82393003,2.84896062 6.05270894,1.60026881 C6.09948357,1.34681884 6.08373765,1.06871317 6.05432984,0.808105088 C5.97999985,0.146643079 6.24698576,-0.00261668516 6.78396782,3.44651746e-05 C11.2944782,0.0201832077 15.8052201,0.0180622875 20.3157305,0.00215538545 C20.798065,0.000299580208 21.0564833,0.134978017 20.9895631,0.734403109 C20.9798377,0.82136084 20.9867844,0.910969721 20.9884053,0.998987913 C21.0319382,2.97170888 21.0319382,2.97170888 19.3369366,2.97170888 L13.4382384,2.97170888 Z" id="Fill-27" fill="#4EFF00"></path>
                <g id="Group-31" transform="translate(94.000000, 16.000000)">
                    <mask id="mask-2" fill="white">
                        <use xlink:href="#path-1"></use>
                    </mask>
                    <g id="Clip-30"></g>
                    <path d="M4.47905649,2.73274938 C3.2942333,2.73274938 2.10703047,2.68701782 0.92553878,2.74918416 C0.17856951,2.78872291 -0.0812872728,2.53934299 0.0215132129,1.81478357 C0.0652986049,1.50490461 0.05744579,1.18001997 0.0222271051,0.867759159 C-0.0439269111,0.279679866 0.122172022,0.0248216869 0.782760328,0.0312526877 C3.26996097,0.05602395 5.75811346,0.0400655406 8.24507614,0.000288609899 C8.84807713,-0.00947698388 8.99942229,0.22823186 8.94707019,0.767006814 C8.91304133,1.11975912 8.89685977,1.48465886 8.94921187,1.83240928 C9.06272074,2.58626548 8.75122575,2.78229191 8.03257421,2.74775505 C6.85060659,2.69154334 5.66387968,2.73274938 4.47905649,2.73274938" id="Fill-29" fill="#4EFF00" mask="url(#mask-2)"></path>
                </g>
                <path d="M83.4391026,18.9635173 C82.272364,18.9635173 81.1027256,18.9115966 79.9393703,18.9818731 C79.1728222,19.0282871 78.9219782,18.7401008 79.0203342,17.9450318 C79.068183,17.5592975 79.0527167,17.1580918 79.0220258,16.7678997 C78.9780435,16.2083095 79.1691972,15.9977421 79.7010927,16.0022 C82.2358733,16.0237025 84.7713787,16.0268492 87.3061593,16.0001021 C87.8595626,15.9943332 88.0127755,16.2326965 87.9678266,16.7726197 C87.9426939,17.0757529 87.9274693,17.3891129 87.9687933,17.6880504 C88.105815,18.6805756 87.8039806,19.0783723 86.8172794,18.9873799 C85.698873,18.8840629 84.5657254,18.9635173 83.4391026,18.9635173" id="Fill-32" fill="#4EFF00"></path>
            </g>
        </g>
    </g>
</svg>