<?xml version="1.0" encoding="UTF-8"?>
<svg width="138px" height="87px" viewBox="0 0 138 87" version="1.1" xmlns="http://www.w3.org/2000/svg" xmlns:xlink="http://www.w3.org/1999/xlink">
    <!-- Generator: Sketch 53 (72520) - https://sketchapp.com -->
    <title>noun_Mail_1049045</title>
    <desc>Created with Sketch.</desc>
    <g id="Page-1" stroke="none" stroke-width="1" fill="none" fill-rule="evenodd">
        <g id="Icon" transform="translate(-483.000000, -69.000000)" fill="#FFFFFF" fill-rule="nonzero">
            <g id="noun_Mail_1049045" transform="translate(483.000000, 69.000000)">
                <g id="Group">
                    <path d="M3.1591573,0.579488 C1.40906023,0.579488 0,2.054208 0,3.779488 L0,83.77952 C0,85.5048 1.40906023,86.97952 3.1591573,86.97952 L134.840843,86.97952 C136.59094,86.97952 138,85.5048 138,83.77952 L138,3.779488 C138,2.054208 136.59094,0.579488 134.840843,0.579488 L3.1591573,0.579488 L3.1591573,0.579488 Z M3.20922241,3.779488 L134.790617,3.779488 L134.790617,10.929568 L68.9999198,57.77952 L3.20922241,10.929568 L3.20922241,3.779488 Z M3.20922241,14.879488 L44.2782628,44.1296 L3.20922241,81.57952 L3.20922241,14.879488 L3.20922241,14.879488 Z M134.790698,14.879488 L134.790698,81.57952 L93.7215767,44.1296 L134.790698,14.879488 L134.790698,14.879488 Z M46.9359663,46.02944 L68.0471581,61.07952 C68.613593,61.4962158 69.3862465,61.4962158 69.9526814,61.07952 L91.0638733,46.02944 L132.483931,83.77952 L5.51590814,83.77952 L46.9359663,46.02944 L46.9359663,46.02944 Z" id="Shape"></path>
                </g>
            </g>
        </g>
    </g>
</svg>