<?xml version="1.0" encoding="UTF-8"?>
<svg width="36px" height="34px" viewBox="0 0 36 34" version="1.1" xmlns="http://www.w3.org/2000/svg" xmlns:xlink="http://www.w3.org/1999/xlink">
    <!-- Generator: Sketch 52.2 (67145) - http://www.bohemiancoding.com/sketch -->
    <title>crm</title>
    <desc>Created with Sketch.</desc>
    <g id="-Main-page" stroke="none" stroke-width="1" fill="none" fill-rule="evenodd">
        <g id="Desktop-HD-+1icon" transform="translate(-1154.000000, -433.000000)" fill="#4EFF00">
            <g id="Produs4" transform="translate(1039.000000, 380.000000)">
                <g id="crm" transform="translate(115.000000, 53.419753)">
                    <path d="M34.3454733,0 L1.65459698,0 C0.742290512,0 0,0.757087283 0,1.68773948 L0,24.6847319 C0,25.6153841 0.742290512,26.3724714 1.65459698,26.3724714 L13.5272374,26.3724714 L13.5272374,29.8960543 L11.2363813,29.8960543 C10.6347864,29.8960543 10.1454104,30.3953044 10.1454104,31.0089496 L10.1454104,32.1587813 C10.1454104,32.7724265 10.6347864,33.2716049 11.2363813,33.2716049 L24.7636187,33.2716049 C25.3652136,33.2716049 25.8545896,32.7724265 25.8545896,32.1587813 L25.8545896,31.0089496 C25.8545896,30.3953044 25.3652136,29.8960543 24.7636187,29.8960543 L22.4727626,29.8960543 L22.4727626,26.3724714 L34.345403,26.3724714 C35.2577798,26.3724714 36,25.6153124 36,24.6847319 L36,1.68773948 C36.0000703,0.757087283 35.2577798,0 34.3454733,0 Z M24.763689,30.9718698 C24.7837281,30.9718698 24.7999703,30.9884374 24.7999703,31.0089496 L24.7999703,32.1587813 C24.7999703,32.1791501 24.7837281,32.1957894 24.763689,32.1957894 L11.2364516,32.1957894 C11.2164125,32.1957894 11.2001703,32.1792218 11.2001703,32.1587813 L11.2001703,31.0089496 C11.2001703,30.9885091 11.2164125,30.9718698 11.2364516,30.9718698 L18.5636613,30.9718698 C18.8548962,30.9718698 19.091006,30.7311023 19.091006,30.433962 C19.091006,30.1368218 18.8548962,29.8960543 18.5636613,29.8960543 L14.5819269,29.8960543 L14.5819269,26.3724714 L21.4181434,26.3724714 L21.4181434,29.8960543 L20.8180953,29.8960543 C20.5268604,29.8960543 20.2907506,30.1368218 20.2907506,30.433962 C20.2907506,30.7311023 20.5268604,30.9718698 20.8180953,30.9718698 L24.763689,30.9718698 Z M34.9453808,24.6847319 C34.9453808,25.0221794 34.676224,25.2966558 34.3454733,25.2966558 L1.65459698,25.2966558 C1.32377602,25.2966558 1.05468956,25.0221794 1.05468956,24.6847319 L1.05468956,1.68773948 C1.05468956,1.35029199 1.32384634,1.07581558 1.65459698,1.07581558 L34.3454733,1.07581558 C34.6762943,1.07581558 34.9453808,1.35029199 34.9453808,1.68773948 L34.9453808,24.6847319 Z" id="Shape" fill-rule="nonzero"></path>
                    <path d="M33.4809465,2.01646091 L3.51912269,2.01646091 C3.23242853,2.01646091 3,2.26174008 3,2.56444834 L3,23.6495434 C3,23.9522517 3.23242853,24.1975309 3.51912269,24.1975309 L33.4808773,24.1975309 C33.7675715,24.1975309 34,23.9522517 34,23.6495434 L34,2.56444834 C34.0000692,2.26181315 33.7676407,2.01646091 33.4809465,2.01646091 Z M12.9158664,5.45526471 L19.0905886,5.45526471 L19.0905886,6.70204571 L12.9158664,6.70204571 L12.9158664,5.45526471 Z M11.8775518,23.1016291 L4.03824539,23.1016291 L4.03824539,5.45526471 L11.8775518,5.45526471 L11.8775518,23.1016291 Z M11.877621,4.35921678 L4.03824539,4.35921678 L4.03824539,3.11243577 L11.877621,3.11243577 L11.877621,4.35921678 Z M32.9618238,23.101556 L12.9158664,23.101556 L12.9158664,7.79802058 L32.9618238,7.79802058 L32.9618238,23.101556 Z M20.128834,6.70204571 L20.128834,5.45526471 L25.7490639,5.45526471 L25.7490639,6.70204571 L20.128834,6.70204571 Z M32.9618238,4.35928984 L31.2618008,4.35928984 C30.9751067,4.35928984 30.7426781,4.60456902 30.7426781,4.90727727 C30.7426781,5.20998553 30.9751067,5.45526471 31.2618008,5.45526471 L32.9618238,5.45526471 L32.9618238,6.70204571 L26.7873093,6.70204571 L26.7873093,5.45526471 L29.0420322,5.45526471 C29.3287263,5.45526471 29.5611549,5.20998553 29.5611549,4.90727727 C29.5611549,4.60456902 29.3287263,4.35928984 29.0420322,4.35928984 L12.9158664,4.35928984 L12.9158664,3.11243577 L32.9618238,3.11243577 L32.9618238,4.35928984 Z" id="Shape" fill-rule="nonzero"></path>
                    <path d="M6.34827946,7.05761317 L5.65172054,7.05761317 C5.29179701,7.05761317 5,7.28325514 5,7.5617284 C5,7.84020165 5.29179701,8.06584362 5.65172054,8.06584362 L6.34827946,8.06584362 C6.70820299,8.06584362 7,7.84020165 7,7.5617284 C7,7.28325514 6.70820299,7.05761317 6.34827946,7.05761317 Z" id="Path"></path>
                    <path d="M9.61586724,7.05761317 L8.38413276,7.05761317 C8.17198904,7.05761317 8,7.28325514 8,7.5617284 C8,7.84020165 8.17198904,8.06584362 8.38413276,8.06584362 L9.61586724,8.06584362 C9.82801096,8.06584362 10,7.84020165 10,7.5617284 C10,7.28325514 9.82801096,7.05761317 9.61586724,7.05761317 Z" id="Path"></path>
                    <path d="M6.34827946,9.07407407 L5.65172054,9.07407407 C5.29179701,9.07407407 5,9.29971605 5,9.5781893 C5,9.85666255 5.29179701,10.0823045 5.65172054,10.0823045 L6.34827946,10.0823045 C6.70820299,10.0823045 7,9.85666255 7,9.5781893 C7,9.29971605 6.70820299,9.07407407 6.34827946,9.07407407 Z" id="Path"></path>
                    <path d="M9.61586724,9.07407407 L8.38413276,9.07407407 C8.17198904,9.07407407 8,9.29971605 8,9.5781893 C8,9.85666255 8.17198904,10.0823045 8.38413276,10.0823045 L9.61586724,10.0823045 C9.82801096,10.0823045 10,9.85666255 10,9.5781893 C10,9.29971605 9.82801096,9.07407407 9.61586724,9.07407407 Z" id="Path"></path>
                    <path d="M6.34827946,12.0987654 L5.65172054,12.0987654 C5.29179701,12.0987654 5,12.3244074 5,12.6028807 C5,12.8813539 5.29179701,13.1069959 5.65172054,13.1069959 L6.34827946,13.1069959 C6.70820299,13.1069959 7,12.8813539 7,12.6028807 C7,12.3244074 6.70820299,12.0987654 6.34827946,12.0987654 Z" id="Path"></path>
                    <path d="M9.61586724,12.0987654 L8.38413276,12.0987654 C8.17198904,12.0987654 8,12.3244074 8,12.6028807 C8,12.8813539 8.17198904,13.1069959 8.38413276,13.1069959 L9.61586724,13.1069959 C9.82801096,13.1069959 10,12.8813539 10,12.6028807 C10,12.3244074 9.82801096,12.0987654 9.61586724,12.0987654 Z" id="Path"></path>
                    <path d="M6.34827946,13.1069959 L5.65172054,13.1069959 C5.29179701,13.1069959 5,13.3326379 5,13.6111111 C5,13.8895844 5.29179701,14.1152263 5.65172054,14.1152263 L6.34827946,14.1152263 C6.70820299,14.1152263 7,13.8895844 7,13.6111111 C7,13.3326379 6.70820299,13.1069959 6.34827946,13.1069959 Z" id="Path"></path>
                    <path d="M9.61586724,13.1069959 L8.38413276,13.1069959 C8.17198904,13.1069959 8,13.3326379 8,13.6111111 C8,13.8895844 8.17198904,14.1152263 8.38413276,14.1152263 L9.61586724,14.1152263 C9.82801096,14.1152263 10,13.8895844 10,13.6111111 C10,13.3326379 9.82801096,13.1069959 9.61586724,13.1069959 Z" id="Path"></path>
                    <path d="M6.34827946,16.1316872 L5.65172054,16.1316872 C5.29179701,16.1316872 5,16.3573292 5,16.6358025 C5,16.9142757 5.29179701,17.1399177 5.65172054,17.1399177 L6.34827946,17.1399177 C6.70820299,17.1399177 7,16.9142757 7,16.6358025 C7,16.3573292 6.70820299,16.1316872 6.34827946,16.1316872 Z" id="Path"></path>
                    <path d="M9.61586724,16.1316872 L8.38413276,16.1316872 C8.17198904,16.1316872 8,16.3573292 8,16.6358025 C8,16.9142757 8.17198904,17.1399177 8.38413276,17.1399177 L9.61586724,17.1399177 C9.82801096,17.1399177 10,16.9142757 10,16.6358025 C10,16.3573292 9.82801096,16.1316872 9.61586724,16.1316872 Z" id="Path"></path>
                    <path d="M30.4834697,12.0987654 L29.9870443,12.0987654 C29.7692643,12.0987654 29.574963,12.2458315 29.5011533,12.4665418 L28.0000344,16.9578041 L26.4990533,12.4666901 C26.4253124,12.2459798 26.2309422,12.0988396 26.0131623,12.0988396 L25.5163926,12.0988396 C25.2312062,12.0988396 25,12.3478062 25,12.6550652 L25,18.6000788 C25,18.9073378 25.2312062,19.1563044 25.5163926,19.1563044 C25.801579,19.1563044 26.0327852,18.9073378 26.0327852,18.6000788 L26.0327852,14.355929 L27.4894943,18.7144388 C27.5016811,18.7809634 27.529704,18.8464497 27.5776253,18.9199456 C27.6772546,19.0727223 27.8369232,19.1563786 28.0004475,19.1563786 C28.0809359,19.1563786 28.1624571,19.1360578 28.2381947,19.0936364 C28.3584797,19.0263701 28.4448206,18.914235 28.4871648,18.7851165 C28.5127778,18.7079866 29.3872715,16.0915754 29.9672148,14.3565965 L29.9672148,18.6000788 C29.9672148,18.9073378 30.198421,19.1563044 30.4836074,19.1563044 C30.7687938,19.1563044 31,18.9073378 31,18.6000788 L31,12.6549911 C30.9998623,12.347732 30.7686561,12.0987654 30.4834697,12.0987654 Z" id="Path"></path>
                    <path d="M23.5637445,16.627581 C24.40207,16.2934042 25,15.4383831 25,14.4385225 C25,13.1483892 24.0049499,12.0987654 22.781809,12.0987654 L20.5273372,12.0987654 C20.2361064,12.0987654 20,12.3477294 20,12.6549852 L20,18.6000105 C20,18.9072663 20.2361064,19.1562303 20.5273372,19.1562303 C20.8185679,19.1562303 21.0546743,18.9072663 21.0546743,18.6000105 L21.0546743,16.7782053 L22.4559146,16.7782053 L23.4374648,18.8488261 C23.5298543,19.0437256 23.7160395,19.1563786 23.9095371,19.1563786 C23.9887783,19.1563786 24.0692148,19.137393 24.1449404,19.0974935 C24.4054449,18.9600701 24.511053,18.6260416 24.3807656,18.3511949 L23.5637445,16.627581 Z M22.781809,15.6656916 L21.0546743,15.6656916 L21.0546743,13.2111308 L22.781809,13.2111308 C23.4234025,13.2111308 23.9453257,13.7617142 23.9453257,14.4384483 C23.9453257,15.1151824 23.4234025,15.6656916 22.781809,15.6656916 Z" id="Shape" fill-rule="nonzero"></path>
                    <path d="M18.8213209,17.37768 C18.6029561,17.174468 18.2697142,17.196495 18.0770808,17.4267772 C17.7490414,17.8189616 17.2768081,18.043904 16.7815151,18.043904 C15.8292448,18.043904 15.0545629,17.226606 15.0545629,16.2221155 L15.0545629,15.0330285 C15.0544926,14.0284639 15.8292448,13.2112401 16.7815151,13.2112401 C17.2769487,13.2112401 17.7492523,13.4362566 18.0772917,13.8285893 C18.2699955,14.0589457 18.6030967,14.0808985 18.8215319,13.8778348 C19.0398967,13.6746228 19.060777,13.323155 18.8681435,13.0927244 C18.3399481,12.4609872 17.5793974,12.0987654 16.7815151,12.0987654 C15.2477588,12.0987654 14,13.4150454 14,15.0330285 L14,16.2221155 C14,17.8400986 15.2478291,19.1563786 16.7815151,19.1563786 C17.5792568,19.1563786 18.3397372,18.794231 18.8678623,18.1627904 C19.0604958,17.9325082 19.0396858,17.580892 18.8213209,17.37768 Z" id="Path"></path>
                </g>
            </g>
        </g>
    </g>
</svg>