<?xml version="1.0" encoding="UTF-8"?>
<svg width="38px" height="37px" viewBox="0 0 38 37" version="1.1" xmlns="http://www.w3.org/2000/svg" xmlns:xlink="http://www.w3.org/1999/xlink">
    <!-- Generator: Sketch 52.2 (67145) - http://www.bohemiancoding.com/sketch -->
    <title>shopping-cart</title>
    <desc>Created with Sketch.</desc>
    <g id="-Main-page" stroke="none" stroke-width="1" fill="none" fill-rule="evenodd">
        <g id="Desktop-HD-+1icon" transform="translate(-858.000000, -430.000000)" fill="#4EFF00">
            <g id="Produs-2" transform="translate(746.000000, 380.000000)">
                <g id="shopping-cart" transform="translate(112.000000, 50.000000)">
                    <path d="M13.5,30 C11.5700993,30 10,31.5700993 10,33.5 C10,35.4299007 11.5700993,37 13.5,37 C15.4299007,37 17,35.4299007 17,33.5 C16.9999223,31.5700993 15.429823,30 13.5,30 Z M13.5,35.045615 C12.6476382,35.045615 11.9542295,34.3521286 11.9542295,33.4998445 C11.9542295,32.6474827 12.6477159,31.954074 13.5,31.954074 C14.3522841,31.954074 15.0457705,32.6475605 15.0457705,33.4998445 C15.0457705,34.3522841 14.3522841,35.045615 13.5,35.045615 Z" id="Shape" fill-rule="nonzero"></path>
                    <path d="M24.5,30 C22.5700993,30 21,31.5700993 21,33.5 C21,35.4299007 22.5700993,37 24.5,37 C26.4299007,37 28,35.4299007 28,33.5 C27.9999223,31.5700993 26.429823,30 24.5,30 Z M24.5,35.045615 C23.6476382,35.045615 22.9542295,34.3521286 22.9542295,33.4998445 C22.9542295,32.6474827 23.6477159,31.954074 24.5,31.954074 C25.3523618,31.954074 26.0457705,32.6475605 26.0457705,33.4998445 C26.0457705,34.3522841 25.3522841,35.045615 24.5,35.045615 Z" id="Shape" fill-rule="nonzero"></path>
                    <path d="M28.0814746,12 L14.9185254,12 C14.4112211,12 14,12.4476971 14,13 C14,13.5523029 14.4112942,14 14.9185254,14 L28.0814746,14 C28.5887789,14 29,13.5523029 29,13 C29,12.4476175 28.5887789,12 28.0814746,12 Z" id="Path"></path>
                    <path d="M27.0522353,17 L14.9478401,17 C14.4243452,17 14,17.4476971 14,18 C14,18.5523029 14.4243452,19 14.9478401,19 L27.0521599,19 C27.5756548,19 28,18.5523029 28,18 C28,17.4477766 27.5756548,17 27.0522353,17 Z" id="Path"></path>
                    <path d="M37.5800557,6.98333847 C37.2242508,6.5299571 36.6970004,6.2699794 36.1336055,6.2699794 L7.0714524,6.2699794 L6.48453011,3.31198186 C6.36199487,2.69493937 5.95661177,2.17683326 5.39989654,1.9258708 L1.30472571,0.0804452536 C0.831951945,-0.132761113 0.282510155,0.0924655619 0.0774436056,0.583140712 C-0.1278456,1.07396997 0.0890959575,1.6444723 0.561647069,1.85737045 L4.65689212,3.70287304 L9.17132496,26.4536952 C9.34915321,27.3496705 10.1177631,28 10.998963,28 L33.3511426,28 C33.8664438,28 34.2841472,27.5663443 34.2841472,27.0313635 C34.2841472,26.4963827 33.8664438,26.062727 33.3511426,26.062727 L10.9990372,26.062727 L10.4498923,23.2952821 L33.523924,23.2952821 C34.4050496,23.2952821 35.1737337,22.6449526 35.3514878,21.7489773 L37.9612435,8.59791245 C38.0748725,8.02525263 37.9359349,7.43664279 37.5800557,6.98333847 Z M33.523924,21.3581632 L10.0655131,21.3581632 L7.45590579,8.20717538 L36.1335313,8.20717538 L33.523924,21.3581632 Z" id="Shape" fill-rule="nonzero"></path>
                </g>
            </g>
        </g>
    </g>
</svg>