<?xml version="1.0" encoding="UTF-8"?>
<svg width="33px" height="32px" viewBox="0 0 33 32" version="1.1" xmlns="http://www.w3.org/2000/svg" xmlns:xlink="http://www.w3.org/1999/xlink">
    <!-- Generator: Sketch 52.2 (67145) - http://www.bohemiancoding.com/sketch -->
    <title>business-affiliate-network</title>
    <desc>Created with Sketch.</desc>
    <g id="-Main-page" stroke="none" stroke-width="1" fill="none" fill-rule="evenodd">
        <g id="Desktop-HD-+1icon" transform="translate(-1156.000000, -157.000000)" fill="#4EFF00">
            <g id="business-affiliate-network" transform="translate(1156.000000, 157.000000)">
                <path d="M13,9.96579572 L10.8828103,8.16874109 C11.1294085,7.7663658 11.2819587,7.31078385 11.2819587,6.81928741 C11.2819587,5.26166271 9.87716375,4 8.14209016,4 C6.40701657,4 5,5.26099762 5,6.81928741 C5,8.3775772 6.40701657,9.63990499 8.14209016,9.63990499 C8.7537721,9.63990499 9.31954087,9.47629454 9.80236971,9.20494062 L11.9165972,11 C12.2365084,10.6202375 12.5971489,10.272399 13,9.96579572 Z" id="Path"></path>
                <path d="M20.3264511,10 L23.0786018,5.64776363 C23.3495427,5.72060726 23.6306257,5.77302744 23.9254732,5.77302744 C25.6257358,5.77302744 27,4.48090408 27,2.88583294 C27,1.29144258 25.6257358,0 23.9254732,0 C22.2281083,0 20.8545685,1.29076179 20.8545685,2.88583294 C20.8545685,3.67758186 21.1943313,4.39308326 21.7434574,4.9152427 L19,9.255225 C19.471611,9.45605555 19.9164176,9.70658316 20.3264511,10 Z" id="Path"></path>
                <path d="M29.9045358,14 C28.5722738,14 27.4437952,14.8203374 27.0062815,15.9641383 L23.1511942,15.5953757 C23.1511942,15.6236876 23.1555767,15.6505839 23.1555767,15.678188 C23.1555767,16.1651528 23.1000657,16.6407927 23,17.1001534 L26.8536265,17.4689159 C27.0866263,18.9014982 28.3597254,20 29.9045358,20 C31.6151486,20 33,18.6580158 33,17.0003539 C33,15.3433998 31.6151486,14 29.9045358,14 Z" id="Path"></path>
                <path d="M20.0916152,25.7853315 L19.2568084,22 C18.7856377,22.1703252 18.2953656,22.2921959 17.7838695,22.3531312 L18.6200913,26.1391968 C17.6614783,26.6597166 17,27.6882755 17,28.889362 C17,30.6087659 18.3413507,32 20.0017674,32 C21.6586467,32 22.9999974,30.6080317 22.9999974,28.889362 C23.0021198,27.2015271 21.7060468,25.8352544 20.0916152,25.7853315 Z" id="Path"></path>
                <path d="M10.4983713,17 L5.69414346,18.5082229 C5.13986572,17.7147099 4.18560128,17.1884422 3.09971415,17.1884422 C1.38642558,17.1884422 0,18.4883508 0,20.0931932 C0,21.7000914 1.38642558,23 3.09971415,23 C4.81154025,23 6.20162202,21.7000914 6.20162202,20.0931932 C6.20162202,20.0260393 6.18626604,19.9643673 6.18041614,19.8985838 L11,18.3862494 C10.7828226,17.9470078 10.6102506,17.4844678 10.4983713,17 Z" id="Path"></path>
                <circle id="Oval" cx="17" cy="15" r="5"></circle>
            </g>
        </g>
    </g>
</svg>