<?xml version="1.0" encoding="UTF-8"?>
<svg width="28px" height="39px" viewBox="0 0 28 39" version="1.1" xmlns="http://www.w3.org/2000/svg" xmlns:xlink="http://www.w3.org/1999/xlink">
    <!-- Generator: Sketch 52.2 (67145) - http://www.bohemiancoding.com/sketch -->
    <title>book</title>
    <desc>Created with Sketch.</desc>
    <g id="-Main-page" stroke="none" stroke-width="1" fill="none" fill-rule="evenodd">
        <g id="Desktop-HD-+1icon" transform="translate(-866.000000, -154.000000)" fill="#4EFF00">
            <g id="book" transform="translate(866.000000, 154.000000)">
                <path d="M27.3913043,32.7096774 L28,32.7096774 L28,0 L3.65217391,0 C1.638,0 0,1.69272581 0,3.77419355 L0,35.2258065 C0,37.3072742 1.638,39 3.65217391,39 L28,39 L28,37.7419355 L27.3913043,37.7419355 C26.0485217,37.7419355 24.9565217,36.6134516 24.9565217,35.2258065 C24.9565217,33.8381613 26.0485217,32.7096774 27.3913043,32.7096774 Z M24.6716522,37.7419355 L3.65217391,37.7419355 C2.3093913,37.7419355 1.2173913,36.6134516 1.2173913,35.2258065 C1.2173913,33.8381613 2.3093913,32.7096774 3.65217391,32.7096774 L24.6716522,32.7096774 C24.0921739,33.3783387 23.7391304,34.2602419 23.7391304,35.2258065 C23.7391304,36.191371 24.0921739,37.0739032 24.6716522,37.7419355 Z M3.65217391,31.4516129 C2.71782609,31.4516129 1.86382609,31.8164516 1.2173913,32.4146613 L1.2173913,3.77419355 C1.2173913,2.38654839 2.3093913,1.25806452 3.65217391,1.25806452 L26.7826087,1.25806452 L26.7826087,31.4516129 L3.65217391,31.4516129 Z" id="Shape" fill-rule="nonzero"></path>
                <rect id="Rectangle" x="2" y="35" width="18" height="1"></rect>
                <rect id="Rectangle" x="21" y="35" width="1" height="1"></rect>
                <path d="M3,19 L25,19 L25,3 L3,3 L3,19 Z M4.22222222,4.23076923 L23.7777778,4.23076923 L23.7777778,17.7692308 L4.22222222,17.7692308 L4.22222222,4.23076923 Z" id="Shape" fill-rule="nonzero"></path>
                <polygon id="Path" points="15.1936494 10.4199048 12.781234 8 5 14.5028413 5.78412688 15.4464752 12.7052718 9.66241745 16.5983392 13.5659653 17.4645543 12.6972815 16.0598645 11.2885885 17.008168 10.3381969 22.0896777 16 23 15.1780065 17.0547255 8.55291046"></polygon>
                <rect id="Rectangle" x="24" y="21" width="1" height="1"></rect>
                <rect id="Rectangle" x="21" y="21" width="1" height="1"></rect>
                <rect id="Rectangle" x="19" y="21" width="1" height="1"></rect>
            </g>
        </g>
    </g>
</svg>