<?xml version="1.0" encoding="UTF-8"?>
<svg width="16px" height="22px" viewBox="0 0 16 22" version="1.1" xmlns="http://www.w3.org/2000/svg" xmlns:xlink="http://www.w3.org/1999/xlink">
    <!-- Generator: Sketch 52.2 (67145) - http://www.bohemiancoding.com/sketch -->
    <title>Shape</title>
    <desc>Created with Sketch.</desc>
    <g id="Page-1" stroke="none" stroke-width="1" fill="none" fill-rule="evenodd">
        <g id="Desktop-HD-Copy-9" transform="translate(-1395.000000, -292.000000)" fill="#333333" fill-rule="nonzero">
            <g id="Social-Icon" transform="translate(1364.000000, 285.000000)">
                <g id="Pintertest" transform="translate(1.000000, 0.000000)">
                    <path d="M46.002,14.466 C46.002,19.124 43.412,22.605 39.595,22.605 C38.312,22.605 37.107,21.912 36.694,21.124 C36.694,21.124 36.004,23.86 35.859,24.388 C35.345,26.254 33.832,28.121 33.715,28.274 C33.633,28.38 33.452,28.347 33.433,28.206 C33.4,27.968 33.015,25.614 33.469,23.693 C33.697,22.729 34.996,17.222 34.996,17.222 C34.996,17.222 34.617,16.464 34.617,15.343 C34.617,13.583 35.637,12.269 36.907,12.269 C37.987,12.269 38.508,13.079 38.508,14.051 C38.508,15.137 37.817,16.761 37.46,18.265 C37.162,19.525 38.092,20.553 39.334,20.553 C41.584,20.553 43.099,17.663 43.099,14.239 C43.099,11.637 41.347,9.688 38.158,9.688 C34.557,9.688 32.312,12.374 32.312,15.375 C32.312,16.41 32.618,17.14 33.096,17.704 C33.315,17.964 33.346,18.068 33.266,18.366 C33.208,18.585 33.079,19.11 33.023,19.319 C32.944,19.62 32.7,19.727 32.429,19.616 C30.77,18.939 29.997,17.121 29.997,15.079 C29.997,11.706 32.842,7.661 38.484,7.661 C43.019,7.663 46.002,10.943 46.002,14.466 Z" id="Shape"></path>
                </g>
            </g>
        </g>
    </g>
</svg>