<?xml version="1.0" encoding="UTF-8"?>
<svg width="15px" height="19px" viewBox="0 0 15 19" version="1.1" xmlns="http://www.w3.org/2000/svg" xmlns:xlink="http://www.w3.org/1999/xlink">
    <!-- Generator: Sketch 52.2 (67145) - http://www.bohemiancoding.com/sketch -->
    <title>Shape</title>
    <desc>Created with Sketch.</desc>
    <g id="Symbols" stroke="none" stroke-width="1" fill="none" fill-rule="evenodd">
        <g id="footer" transform="translate(-923.000000, -198.000000)" fill="#4EFF00" fill-rule="nonzero">
            <g id="Group-5" transform="translate(923.000000, 198.000000)">
                <g id="Group-2">
                    <g id="pinterest-social-logo">
                        <path d="M7.95408258,0 C2.66617293,0 0,3.71746749 0,6.81769143 C0,8.69471099 0.72466739,10.3643616 2.27874468,10.9868575 C2.53385616,11.0889857 2.76238527,10.9905536 2.83657788,10.713932 C2.88775888,10.5223199 3.00936335,10.0393021 3.06351998,9.83796356 C3.13810934,9.5642599 3.10894808,9.46835664 2.90343058,9.22986291 C2.45529928,8.71144057 2.16884439,8.04031222 2.16884439,7.08964431 C2.16884439,4.33159857 4.2732166,1.86262435 7.64878197,1.86262435 C10.6371175,1.86262435 12.2792737,3.65346714 12.2792737,6.04501844 C12.2792737,9.19173504 10.8591002,11.847458 8.75095882,11.847458 C7.58649192,11.847458 6.71522469,10.9032096 6.99453805,9.74517277 C7.32899992,8.36264836 7.97669744,6.87040905 7.97669744,5.8726649 C7.97669744,4.97938333 7.48809744,4.23413906 6.47598328,4.23413906 C5.28572751,4.23413906 4.32975375,5.44158651 4.32975375,7.05890858 C4.32975375,8.08913923 4.68464835,8.78594554 4.68464835,8.78594554 C4.68464835,8.78594554 3.46642156,13.8466424 3.25336578,14.7329209 C2.82784934,16.4976967 3.18948872,18.6614534 3.22003862,18.8799105 C3.23769408,19.0094675 3.40730553,19.0402032 3.4842754,18.9425492 C3.59437406,18.801904 5.01177031,17.0859553 5.49362552,15.3711737 C5.62990981,14.8856269 6.27602031,12.3715217 6.27602031,12.3715217 C6.66285344,13.0945896 7.7930013,13.7316752 8.99496125,13.7316752 C12.5724734,13.7316752 15,10.5334082 15,6.25199831 C15.0001984,3.01482529 12.2036924,0 7.95408258,0 Z" id="Shape"></path>
                    </g>
                </g>
            </g>
        </g>
    </g>
</svg>