<?xml version="1.0" encoding="UTF-8"?>
<svg width="20px" height="20px" viewBox="0 0 20 20" version="1.1" xmlns="http://www.w3.org/2000/svg" xmlns:xlink="http://www.w3.org/1999/xlink">
    <!-- Generator: Sketch 52.2 (67145) - http://www.bohemiancoding.com/sketch -->
    <title>Shape Copy</title>
    <desc>Created with Sketch.</desc>
    <g id="Conect" stroke="none" stroke-width="1" fill="none" fill-rule="evenodd">
        <g id="Blog-One-Item-Copy" transform="translate(-1292.000000, -497.000000)" fill="#4EFF00" fill-rule="nonzero">
            <g id="Navigare-Copy" transform="translate(1016.000000, 226.000000)">
                <g id="Group">
                    <path d="M286,271 C285.6318,271 285.333333,271.298476 285.333333,271.666666 L285.333333,280.33334 L276.666667,280.33334 C276.298467,280.33334 276,280.631807 276,281.000007 C276,281.368206 276.298467,281.666673 276.666667,281.666673 L285.333333,281.666673 L285.333333,290.333334 C285.333333,290.701534 285.6318,291 286,291 C286.3682,291 286.666667,290.701534 286.666667,290.333334 L286.666667,281.666673 L295.333333,281.666673 C295.701533,281.666673 296,281.368206 296,281.000007 C296,280.631807 295.701533,280.33334 295.333333,280.33334 L286.666667,280.33334 L286.666667,271.666666 C286.666667,271.298476 286.3682,271 286,271 Z" id="Shape-Copy"></path>
                </g>
            </g>
        </g>
    </g>
</svg>