<?xml version="1.0" encoding="UTF-8"?>
<svg width="21px" height="28px" viewBox="0 0 21 28" version="1.1" xmlns="http://www.w3.org/2000/svg" xmlns:xlink="http://www.w3.org/1999/xlink">
    <!-- Generator: Sketch 52.2 (67145) - http://www.bohemiancoding.com/sketch -->
    <title>Path</title>
    <desc>Created with Sketch.</desc>
    <g id="Symbols" stroke="none" stroke-width="1" fill="none" fill-rule="evenodd">
        <g id="menu" transform="translate(-1319.000000, -29.000000)" stroke="#161746">
            <g id="Icon-Copy" transform="translate(1161.000000, 25.000000)">
                <g id="profile" transform="translate(130.000000, 0.000000)">
                    <g id="user-(1)" transform="translate(28.000000, 5.000000)">
                        <g id="Group">
                            <path d="M5.51308885,19.7097905 L0.762435675,22.2434197 C0.483656988,22.392042 0.23311666,22.5747359 0,22.7738781 C2.7703632,25.0566703 6.34582001,26.4342174 10.2523265,26.4342174 C14.1299939,26.4342174 17.6826197,25.0772307 20.4445714,22.8249854 C20.1898254,22.6146818 19.91345,22.4255261 19.6070337,22.2763163 L14.5199235,19.7896823 C13.8626307,19.4683526 13.4474667,18.8115946 13.4474667,18.0931553 L13.4474667,16.1416793 C13.590461,15.982483 13.753883,15.7780538 13.9287204,15.536616 C14.6220623,14.5790886 15.1465748,13.5258085 15.5100685,12.4208336 C16.1625548,12.2240412 16.6432077,11.6348388 16.6432077,10.9346102 L16.6432077,8.85154754 C16.6432077,8.39334425 16.4347245,7.9838985 16.1108846,7.69722773 L16.1108846,4.68600974 C16.1108846,4.68600974 16.743544,0 10.2529273,0 C3.76231063,0 4.39497002,4.68600974 4.39497002,4.68600974 L4.39497002,7.69722773 C4.07052931,7.9838985 3.86264693,8.39334425 3.86264693,8.85154754 L3.86264693,10.9346102 C3.86264693,11.4832792 4.15764765,11.966155 4.59924751,12.245189 C5.13157061,14.5109455 6.52546404,16.1416793 6.52546404,16.1416793 L6.52546404,18.0449852 C6.52426241,18.7381645 6.13613518,19.3772994 5.51308885,19.7097905 Z" id="Path"></path>
                        </g>
                    </g>
                </g>
            </g>
        </g>
    </g>
</svg>