<?xml version="1.0" encoding="UTF-8"?>
<svg width="20px" height="20px" viewBox="0 0 20 20" version="1.1" xmlns="http://www.w3.org/2000/svg" xmlns:xlink="http://www.w3.org/1999/xlink">
    <!-- Generator: Sketch 52.2 (67145) - http://www.bohemiancoding.com/sketch -->
    <title>Path 2</title>
    <desc>Created with Sketch.</desc>
    <g id="Symbols" stroke="none" stroke-width="1" fill="none" fill-rule="evenodd">
        <g id="Menu.icons-activ" transform="translate(-1128.000000, -33.000000)" fill="#161746" fill-rule="nonzero">
            <path d="M1147.82701,51.9800443 C1148.05766,52.210643 1148.05766,52.5920177 1147.82701,52.8226164 C1147.71169,52.9423503 1147.55644,53 1147.40563,53 C1147.25482,53 1147.09958,52.9379157 1146.98425,52.8226164 L1142.12287,47.962306 C1140.62364,49.2660754 1138.66755,50.0554324 1136.52961,50.0554324 C1131.8279,50.0554324 1128,46.2283814 1128,41.5277162 C1128,36.827051 1131.82346,33 1136.52961,33 C1141.23132,33 1145.05921,36.8226164 1145.05921,41.5277162 C1145.05921,43.6651885 1144.26968,45.6208426 1142.96562,47.1197339 L1147.82701,51.9800443 Z M1129,41.4977321 C1129,45.6344119 1132.36661,49 1136.5,49 C1140.63793,49 1144,45.629876 1144,41.4977321 C1144,37.3655881 1140.63793,34 1136.5,34 C1132.36661,34 1129,37.3610523 1129,41.4977321 Z" id="Path-2"></path>
        </g>
    </g>
</svg>