<?xml version="1.0" encoding="UTF-8"?>
<svg width="38px" height="37px" viewBox="0 0 38 37" version="1.1" xmlns="http://www.w3.org/2000/svg" xmlns:xlink="http://www.w3.org/1999/xlink">
    <!-- Generator: Sketch 52.2 (67145) - http://www.bohemiancoding.com/sketch -->
    <title>comercio-global</title>
    <desc>Created with Sketch.</desc>
    <g id="-Main-page" stroke="none" stroke-width="1" fill="none" fill-rule="evenodd">
        <g id="Desktop-HD-+1icon" transform="translate(-414.000000, -235.000000)" fill="#4EFF00">
            <g id="Produs3" transform="translate(-59.000000, 97.000000)">
                <g id="comercio-global" transform="translate(473.000000, 138.000000)">
                    <path d="M16.5003324,33 C17.4430787,33 18.365439,32.9175692 19.2649757,32.7652275 L19.0789525,32.173809 L18.6415377,30.7806849 L18.4542958,30.1831727 C18.1501662,30.3587813 17.838835,30.4905154 17.5221857,30.5850227 L17.5221857,27.2146685 L16.0186,22.4264831 L15.6124291,21.1337385 L15.4783683,21.1337385 L12.6859157,21.1337385 C12.0046433,21.1337385 11.3929495,20.8423502 10.9581937,20.3826658 L9.58822562,20.3826658 C9.40364277,19.1419943 9.29883163,17.8416048 9.29883163,16.5 C9.29883163,15.1593923 9.40364277,13.8587813 9.58822562,12.6183314 L15.4791439,12.6183314 L15.4791439,16.3646097 L17.3643042,16.3646097 C17.4181501,16.3646097 17.4697801,16.3732516 17.5229612,16.3775726 L17.5229612,12.6183314 L23.4132147,12.6183314 C23.5981299,13.8587813 23.7024979,15.1593923 23.7024979,16.5 C23.7024979,17.2188316 23.6652711,17.9220413 23.6100957,18.6150579 L25.6698674,18.6150579 C25.7183952,17.9234816 25.7463153,17.2188316 25.7463153,16.5 C25.7463153,15.1575088 25.6564613,13.8587813 25.4901595,12.6183314 L30.4120732,12.6183314 C30.7580829,13.8554574 30.9562934,15.1540742 30.9562934,16.5 C30.9562934,17.2201612 30.8870472,17.9234816 30.7846735,18.6150579 L32.8609535,18.6150579 C32.9494779,17.9221521 33,17.2176129 33,16.5 C33,7.38752392 25.6125869,0 16.5004432,0 C7.3878563,0.000110794024 0,7.38763472 0,16.5001108 C0,25.6139164 7.3878563,33 16.5003324,33 Z M15.4784791,22.4265939 L15.4784791,30.5851335 C13.0661608,29.8706228 11.0033977,26.6944905 9.98353869,22.4265939 L15.4784791,22.4265939 Z M7.50950814,20.3827766 L2.58903475,20.3827766 C2.24280342,19.1460937 2.04381736,17.8470337 2.04381736,16.5001108 C2.04381736,15.1542958 2.24269263,13.8555682 2.58903475,12.6184422 L7.51050529,12.6184422 C7.34420346,13.8588921 7.25412792,15.1575088 7.25412792,16.5001108 C7.25335236,17.8430452 7.34353869,19.1419943 7.50950814,20.3827766 Z M9.98276314,10.5746248 C11.0027329,6.30650663 13.0653853,3.13037435 15.4778143,2.41641766 L15.4778143,10.5746248 L9.98276314,10.5746248 Z M17.5221857,10.5746248 L17.5221857,2.41641766 C19.9348363,3.13026356 21.9979318,6.3070606 23.0179016,10.5752896 L17.5221857,10.5752896 L17.5221857,10.5746248 Z M29.6720799,10.5746248 L25.1361726,10.5746248 C24.4722948,7.49399698 23.3019775,4.88934027 21.7930737,3.0607957 C25.2958268,4.44594259 28.1273896,7.15541044 29.6720799,10.5746248 Z M11.2075911,3.0607957 C9.69868726,4.88934027 8.5281484,7.49399698 7.86449219,10.5746248 L3.32814168,10.5746248 C4.87327514,7.15541044 7.70450562,4.44594259 11.2075911,3.0607957 Z M7.86449219,22.4265939 C8.5281484,25.5076649 9.69868726,28.1115461 11.2075911,29.9397583 C7.70439483,28.5552761 4.87327514,25.8454759 3.32880645,22.4265939 L7.86449219,22.4265939 Z" id="Shape" fill-rule="nonzero"></path>
                    <path d="M30.9061262,20.1854119 L25.9181808,20.1854119 L23.8378703,20.1854119 L19.1975878,20.1854119 C19.1905879,20.1854119 19.184588,20.1873477 19.177588,20.1873477 L18.69326,18.695026 C18.5758168,18.3325113 18.2532648,18.083773 17.8749356,18.0251642 C17.8216029,18.0164535 17.771159,18 17.7158263,18 L15.8252914,18 L13.0247666,18 C12.458995,18 12,18.4435993 12,18.9922643 C12,19.539854 12.458995,19.9842061 13.0247666,19.9842061 L15.8252914,19.9842061 L16.9635012,19.9842061 L17.1559435,20.5776075 L17.7997142,22.5613834 L17.8754912,22.7945284 L19.962135,29.2254811 L20.3471308,30.4111009 L20.6340165,31.295826 L20.9609018,32.3051891 C20.9629018,32.3121792 20.968124,32.3174486 20.9709017,32.3245462 C21.1029003,32.701041 21.4533409,32.956124 21.8602253,32.9870953 C22.2833318,32.7417983 22.7716598,32.5925339 23.2994318,32.5925339 C23.836537,32.5925339 24.3341982,32.7468527 24.7625268,33 L30.8433491,33 C31.2711222,32.7468527 31.7694501,32.5925339 32.3058886,32.5925339 C32.8436605,32.5925339 33.3413217,32.7468527 33.7689837,33 L34.4168655,33 C34.9826371,33 35.4417432,32.555648 35.4417432,32.0080583 C35.4417432,31.4598233 34.9826371,31.0162241 34.4168655,31.0162241 L24.4884187,31.0162241 L22.6903273,31.0162241 L22.2979983,29.8046873 L22.2706653,29.7194087 L21.971113,28.7986579 L22.9586577,28.7986579 L24.345087,28.7986579 L27.81716,28.7986579 L34.8666384,28.7986579 C35.764073,28.7986579 36.5866195,28.1580468 36.7788396,27.3095624 L37.95916,22.09961 C38.0684922,21.6179418 37.9558267,21.1310043 37.6509412,20.7628975 C37.3460556,20.3960813 36.8776163,20.185627 36.3678441,20.185627 L33.0278807,20.185627 L30.9061262,20.185627 L30.9061262,20.1854119 Z M34.8038613,26.8147745 L29.7665831,26.8160649 L26.9957246,26.8160649 L24.0819787,26.8173554 L21.770893,26.8173554 L21.4820072,26.8173554 C21.4693407,26.814882 21.4486743,26.8013321 21.4400077,26.8013321 C21.437341,26.8013321 21.4360077,26.8026225 21.437341,26.8064939 L20.9876793,25.4839767 L22.426108,25.4839767 L24.6451948,25.4839767 L28.2240445,25.4839767 L30.7573501,25.4839767 L35.1015247,25.4839767 L34.8038613,26.8147745 Z M35.8447388,22.1691879 L35.5464087,23.4993404 L31.8842266,23.4993404 L29.5910295,23.4993404 L25.2816323,23.4993404 L23.135878,23.4993404 L20.3142422,23.4993404 L19.9953568,22.5610608 L19.8623583,22.1690803 L23.4868742,22.1690803 L25.5951844,22.1690803 L30.2435779,22.1690803 L32.1170018,22.1690803 L32.4458871,22.1690803 L35.8447388,22.1690803 L35.8447388,22.1691879 Z" id="Shape" fill-rule="nonzero"></path>
                    <path d="M22.4458577,34.4340703 C22.1707345,34.7058082 22,35.0827128 22,35.499599 C22,36.32856 22.6714793,37 23.5000573,37 C24.3284061,37 25,36.3286745 25,35.499599 C25,35.0827128 24.8293801,34.7058082 24.5541423,34.4340703 C24.2830297,34.1657693 23.9114243,34 23.5000573,34 C23.0884611,34 22.7169703,34.1657693 22.4458577,34.4340703 Z" id="Path"></path>
                    <path d="M31.4459723,34.4340703 C31.1707345,34.7058082 31,35.0827128 31,35.499599 C31,36.32856 31.6707918,37 32.5000573,37 C33.3284061,37 34,36.3286745 34,35.499599 C34,35.0827128 33.8294947,34.7058082 33.5541423,34.4340703 C33.2823422,34.1657693 32.9115389,34 32.5000573,34 C32.0885757,34 31.7169703,34.1657693 31.4459723,34.4340703 Z" id="Path"></path>
                </g>
            </g>
        </g>
    </g>
</svg>