<?xml version="1.0" encoding="UTF-8"?>
<svg width="84px" height="85px" viewBox="0 0 84 85" version="1.1" xmlns="http://www.w3.org/2000/svg" xmlns:xlink="http://www.w3.org/1999/xlink">
    <!-- Generator: Sketch 53 (72520) - https://sketchapp.com -->
    <title>noun_Telephone_1485616</title>
    <desc>Created with Sketch.</desc>
    <g id="Page-1" stroke="none" stroke-width="1" fill="none" fill-rule="evenodd">
        <g id="Icon" transform="translate(-271.000000, -69.000000)" fill="#FFFFFF" fill-rule="nonzero">
            <g id="noun_Telephone_1485616" transform="translate(271.000000, 69.000000)">
                <g id="Group">
                    <path d="M45.3076923,0.399809091 L45.3076923,4.81539351 C64.2106224,4.81539351 79.4871795,20.1104039 79.4871795,39.0361727 L83.8974359,39.0361727 C83.8974359,17.7240455 66.5940992,0.399809091 45.3076923,0.399809091 Z M16.6410256,6.09177338 L15.0905449,7.64412727 L0.757211538,21.9947766 L0.0336538462,22.7192084 L0.102564103,23.754111 C1.11796059,36.539524 8.33195482,51.4842019 20.6033654,63.7703448 C32.8747043,76.0565981 47.8013274,83.2447279 60.5713141,84.2614162 L61.5705128,84.3649065 L62.2940705,83.6404747 L76.6274038,69.2898253 L78.2123397,67.7374714 L76.6274038,66.1506208 L62.2940705,51.7999714 L60.7435897,50.2476175 L59.193109,51.7999714 L50.5104167,60.4931532 C45.1871501,57.4546792 40.2351444,53.9309877 35.3157051,49.0057344 C30.3956176,44.0795981 26.8772208,39.1578773 23.8421474,33.827163 L32.5248397,25.1339812 L34.1097756,23.5816273 L32.5248397,21.9947766 L18.1915064,7.64412727 L16.6410256,6.09177338 Z M45.3076923,11.4387701 L45.3076923,15.8543545 C58.1213461,15.8543545 68.4615385,26.2070013 68.4615385,39.0361727 L72.8717949,39.0361727 C72.8717949,23.8206429 60.5048096,11.4387701 45.3076923,11.4387701 Z M16.6410256,12.3356857 L27.8733974,23.5816273 L19.5008013,31.9298416 L18.3293269,33.1027312 L19.1217949,34.5515948 C22.4889859,40.7412506 26.5591201,46.4822831 32.2147436,52.144939 C37.8705413,57.807374 43.5702387,61.8824065 49.7524038,65.2537052 L51.1995192,66.0471305 L52.3709936,64.8742409 L60.7435897,56.4915299 L71.9759615,67.7374714 L59.9855769,79.7078448 C48.7657424,78.534624 35.0115904,71.9520364 23.7043269,60.6311403 C12.3873609,49.3005299 5.84846777,35.5446266 4.68509615,24.3060591 L16.6410256,12.3356857 Z M45.3076923,22.4777312 L45.3076923,26.8933156 C52.0320268,26.8933156 57.4358974,32.3037091 57.4358974,39.0361727 L61.8461538,39.0361727 C61.8461538,29.9173506 54.4155433,22.4777312 45.3076923,22.4777312 Z" id="Shape"></path>
                </g>
            </g>
        </g>
    </g>
</svg>