<?xml version="1.0" encoding="UTF-8"?>
<svg width="88px" height="88px" viewBox="0 0 88 88" version="1.1" xmlns="http://www.w3.org/2000/svg" xmlns:xlink="http://www.w3.org/1999/xlink">
    <!-- Generator: Sketch 53 (72520) - https://sketchapp.com -->
    <title>noun_whatsapp_988426</title>
    <desc>Created with Sketch.</desc>
    <g id="Page-1" stroke="none" stroke-width="1" fill="none" fill-rule="evenodd">
        <g id="Icon" transform="translate(-749.000000, -69.000000)" fill="#FFFFFF">
            <g id="noun_whatsapp_988426" transform="translate(749.000000, 68.000000)">
                <g id="Group" transform="translate(0.000000, 0.637820)">
                    <path d="M28.341252,17.36968 C28.1923615,17.3845488 28.0456099,17.4160795 27.903752,17.46368 C23.449442,18.83168 20.294862,21.25098 18.591252,24.40118 C16.887642,27.55138 16.672382,31.24378 17.403752,34.99488 C18.866472,42.4971 24.057122,50.5606 30.622502,57.2761 C37.187882,63.9917 45.104492,69.3669 52.653752,70.9324 C56.428392,71.7151 60.186892,71.5081 63.434998,69.8074 C66.683108,68.1066 69.267298,64.935 70.872498,60.4011 C71.1773477,59.5259763 70.8411002,58.5560523 70.059998,58.0574 L55.810002,49.1199 L55.778752,49.0889 C55.7085348,49.0426774 55.6354732,49.0009279 55.560002,48.9639 C55.3504043,48.8280603 55.1172169,48.7326824 54.872502,48.6827 C54.8516699,48.6823745 54.8308341,48.6823745 54.810002,48.6827 C54.758351,48.6702958 54.7062263,48.6599543 54.653752,48.6517 C54.6433355,48.6516186 54.6329185,48.6516186 54.622502,48.6517 C54.2889937,48.6323114 53.9559412,48.6967732 53.653752,48.8392 C53.5440963,48.8920595 53.4394955,48.95482 53.341252,49.0267 C53.2764524,49.0648097 53.2138531,49.1065426 53.153752,49.1517 C53.1320384,49.1824391 53.1111968,49.2137849 53.091252,49.2457 C53.0127988,49.3128435 52.9396635,49.3859622 52.872502,49.4644 L49.747502,52.6207 C44.081612,49.7687 39.724882,44.9872 35.810002,38.52698 L38.685002,35.68318 C38.7399236,35.6340321 38.7920865,35.5818858 38.841252,35.52698 C38.8847406,35.487176 38.926448,35.4454686 38.966252,35.40198 C38.9663321,35.3916468 38.9663321,35.3813132 38.966252,35.37098 C39.0097406,35.331176 39.051448,35.2894686 39.091252,35.24598 C39.0913321,35.2356468 39.0913321,35.2253132 39.091252,35.21498 C39.1129656,35.1842409 39.1338072,35.1528951 39.153752,35.12098 C39.1750377,35.1007744 39.1958761,35.0801027 39.216252,35.05898 C39.2392696,35.0077802 39.2601214,34.955634 39.278752,34.90268 C39.2788321,34.8923468 39.2788321,34.8820132 39.278752,34.87168 C39.2895266,34.8511957 39.2999449,34.8305259 39.310002,34.80968 C39.3322852,34.7687542 39.3531312,34.7270621 39.372502,34.68468 C39.3849888,34.633049 39.3954138,34.580941 39.403752,34.52848 C39.4038321,34.5181468 39.4038321,34.5078132 39.403752,34.49748 C39.4171345,34.4355106 39.427563,34.37294 39.435002,34.30998 C39.4350821,34.2996468 39.4350821,34.2893132 39.435002,34.27898 C39.4370386,34.2268999 39.4370386,34.1747601 39.435002,34.12268 C39.4350821,34.1123468 39.4350821,34.1020132 39.435002,34.09168 C39.437036,34.0396332 39.437036,33.9875268 39.435002,33.93548 C39.4353224,33.9148146 39.4353224,33.8941454 39.435002,33.87348 C39.4266664,33.8209854 39.4162414,33.7688441 39.403752,33.71718 C39.4038321,33.7068468 39.4038321,33.6965132 39.403752,33.68618 C39.3726697,33.5680362 39.3308281,33.4529886 39.278752,33.34248 C39.2788321,33.3321468 39.2788321,33.3218132 39.278752,33.31148 C39.2429665,33.2253335 39.2011979,33.1417963 39.153752,33.06148 L39.122502,32.99948 C39.1121994,32.9890323 39.1017821,32.9786984 39.091252,32.96848 L30.185002,18.34348 C29.8339829,17.759508 29.2098162,17.3944105 28.528752,17.37468 C28.4662864,17.3717487 28.4037176,17.3717487 28.341252,17.37468 L28.341252,17.36968 Z M27.622502,21.77588 L34.903752,33.80718 L31.872502,36.80718 C31.2381343,37.4472455 31.1101756,38.4325072 31.560002,39.21338 C36.185822,47.224 41.666682,53.456 49.341252,56.8384 C50.0939248,57.1727516 50.9746007,57.0115209 51.560002,56.4322 L54.778752,53.2134 L66.528748,60.5572 C65.227658,63.4853 63.531498,65.2287 61.591248,66.2447 C59.343822,67.4215 56.598812,67.6443 53.466252,66.9947 C47.201142,65.6955 39.633372,60.7716 33.466252,54.4634 C27.299132,48.1552 22.526652,40.48468 21.310002,34.24468 C20.701682,31.12468 20.970422,28.43748 22.122502,26.30718 C23.114482,24.47288 24.799482,22.90248 27.622502,21.77588 L27.622502,21.77588 Z" id="Shape"></path>
                    <path d="M44.000002,0.36248 C19.729182,0.36248 0.000312,20.08118 0.000312,44.3622 C0.000312,53.1856 2.614952,61.4326 7.225002,68.5075 L2.304382,84.9281 C2.08918216,85.646774 2.29426713,86.4254409 2.83555827,86.9448706 C3.37684941,87.4643003 4.163305,87.6371282 4.872502,87.3925 L20.945002,81.8456 C27.637472,85.9762 35.551532,88.3619 44.000002,88.3619 C68.280348,88.3619 87.999688,68.6425 87.999688,44.3622 C87.999688,20.08178 68.280348,0.36248 44.000002,0.36248 L44.000002,0.36248 Z M44.000002,4.36188 C66.119648,4.36188 84.000318,22.24248 84.000318,44.3622 C84.000318,66.4818 66.119648,84.3625 44.000002,84.3625 C35.981562,84.3625 28.523982,82.0106 22.288442,77.9647 C21.7718365,77.6295282 21.1296295,77.5510294 20.547502,77.7519 L7.255622,82.3391 L11.325622,68.7562 C11.4986405,68.1787427 11.4019699,67.5540505 11.062502,67.0559 C6.543862,60.426 3.999692,52.7038 3.999692,44.3622 C3.999692,22.24308 21.890822,4.36188 44.000002,4.36188 L44.000002,4.36188 Z" id="Shape"></path>
                </g>
            </g>
        </g>
    </g>
</svg>