<?xml version="1.0" encoding="UTF-8"?>
<svg width="21px" height="11px" viewBox="0 0 21 11" version="1.1" xmlns="http://www.w3.org/2000/svg" xmlns:xlink="http://www.w3.org/1999/xlink">
    <!-- Generator: Sketch 52.2 (67145) - http://www.bohemiancoding.com/sketch -->
    <title>Shape</title>
    <desc>Created with Sketch.</desc>
    <g id="-Main-page" stroke="none" stroke-width="1" fill="none" fill-rule="evenodd">
        <g id="Desktop-HD--.Submenu" transform="translate(-1167.000000, -744.000000)" fill="#161746" fill-rule="nonzero">
            <g id="HEAD-#1" transform="translate(-12.000000, -7.000000)">
                <g id="right-arrow-(1)" transform="translate(1179.000000, 751.000000)">
                    <path d="M6.23993559,15.7827586 C6.09822866,15.9275862 5.92109501,16 5.72624799,16 C5.53140097,16 5.35426731,15.9275862 5.21256039,15.7827586 C4.92914654,15.4931034 4.92914654,15.0224138 5.21256039,14.7327586 L14.2463768,5.5 L5.21256039,-3.73275862 C4.92914654,-4.02241379 4.92914654,-4.49310345 5.21256039,-4.78275862 C5.49597424,-5.07241379 5.95652174,-5.07241379 6.23993559,-4.78275862 L15.7874396,4.975 C16.0708535,5.26465517 16.0708535,5.73534483 15.7874396,6.025 L6.23993559,15.7827586 Z" id="Shape" transform="translate(10.500000, 5.500000) scale(1, -1) rotate(90.000000) translate(-10.500000, -5.500000) "></path>
                </g>
            </g>
        </g>
    </g>
</svg>