<?xml version="1.0" encoding="UTF-8"?>
<svg width="18px" height="16px" viewBox="0 0 18 16" version="1.1" xmlns="http://www.w3.org/2000/svg" xmlns:xlink="http://www.w3.org/1999/xlink">
    <!-- Generator: Sketch 52.2 (67145) - http://www.bohemiancoding.com/sketch -->
    <title>Shape</title>
    <desc>Created with Sketch.</desc>
    <g id="Page-1" stroke="none" stroke-width="1" fill="none" fill-rule="evenodd">
        <g id="Desktop-HD-Copy-9" transform="translate(-1394.000000, -520.000000)" fill="#333333" fill-rule="nonzero">
            <g id="Social-Icon" transform="translate(1364.000000, 285.000000)">
                <g id="in" transform="translate(0.000000, 170.000000)">
                    <g id="twiter" transform="translate(0.000000, 55.000000)">
                        <path d="M41.226,10.886 C39.636,11.465 38.631,12.957 38.745,14.59 L38.783,15.22 L38.147,15.143 C35.832,14.847 33.809,13.844 32.091,12.159 L31.251,11.323 L31.036,11.94 C30.578,13.316 30.871,14.77 31.825,15.748 C32.334,16.288 32.219,16.365 31.342,16.044 C31.037,15.941 30.769,15.864 30.744,15.903 C30.655,15.993 30.96,17.163 31.202,17.627 C31.533,18.271 32.207,18.9 32.945,19.274 L33.569,19.57 L32.83,19.581 C32.118,19.581 32.092,19.594 32.169,19.865 C32.423,20.701 33.428,21.589 34.548,21.975 L35.337,22.245 L34.65,22.657 C33.632,23.25 32.436,23.584 31.24,23.608 C30.667,23.621 30.196,23.672 30.196,23.711 C30.196,23.839 31.749,24.559 32.651,24.843 C35.361,25.679 38.58,25.318 40.997,23.891 C42.715,22.875 44.432,20.855 45.234,18.899 C45.667,17.858 46.099,15.954 46.099,15.041 C46.099,14.449 46.137,14.372 46.849,13.665 C47.269,13.253 47.663,12.803 47.74,12.675 C47.868,12.43 47.854,12.43 47.206,12.649 C46.125,13.035 45.972,12.984 46.507,12.405 C46.901,11.993 47.372,11.247 47.372,11.029 C47.372,10.991 47.181,11.055 46.965,11.17 C46.736,11.299 46.227,11.492 45.845,11.607 L45.158,11.826 L44.535,11.4 C44.191,11.169 43.709,10.911 43.454,10.834 C42.804,10.654 41.812,10.68 41.226,10.886 Z" id="Shape"></path>
                    </g>
                </g>
            </g>
        </g>
    </g>
</svg>