<?xml version="1.0" encoding="UTF-8"?>
<svg width="16px" height="16px" viewBox="0 0 16 16" version="1.1" xmlns="http://www.w3.org/2000/svg" xmlns:xlink="http://www.w3.org/1999/xlink">
    <!-- Generator: Sketch 52.2 (67145) - http://www.bohemiancoding.com/sketch -->
    <title>Shape</title>
    <desc>Created with Sketch.</desc>
    <g id="Symbols" stroke="none" stroke-width="1" fill="none" fill-rule="evenodd">
        <g id="footer" transform="translate(-1072.000000, -200.000000)" fill="#4EFF00" fill-rule="nonzero">
            <g id="Group-5" transform="translate(923.000000, 198.000000)">
                <g id="Group-2">
                    <g id="twitter-logo-button" transform="translate(149.000000, 2.000000)">
                        <path d="M8,0 C3.58881817,0 0,3.58881817 0,8 C0,12.4108596 3.58881817,16 8,16 C12.4108596,16 16,12.4108596 16,8 C16,3.58881817 12.4115041,0 8,0 Z M11.5688391,6.16901635 C11.5723838,6.24828809 11.5743172,6.3282043 11.5743172,6.40812052 C11.5743172,8.84137598 9.72271006,11.6461774 6.3349714,11.6461774 C5.29509385,11.6461774 4.32707645,11.3423024 3.51244663,10.8196246 C3.65648916,10.8367035 3.80310964,10.845404 3.95166358,10.845404 C4.81462982,10.845404 5.60831386,10.5508741 6.2386208,10.0571981 C5.43301378,10.0423749 4.7527592,9.51002981 4.51848868,8.77821639 C4.63062918,8.79948441 4.74631435,8.8114074 4.86457746,8.8114074 C5.03246596,8.8114074 5.19552082,8.78949488 5.34987513,8.74728108 C4.50753243,8.57842584 3.87303633,7.8343672 3.87303633,6.94175461 C3.87303633,6.93402078 3.87303633,6.92596471 3.87335858,6.91855313 C4.12148554,7.05615081 4.40538145,7.13928945 4.70700073,7.1486345 C4.21332474,6.8189801 3.88818174,6.25505518 3.88818174,5.61636993 C3.88818174,5.27865947 3.97873197,4.96221703 4.13727544,4.6902441 C5.04503343,5.80455974 6.40232015,6.53733989 7.93232901,6.61467816 C7.90074921,6.47965842 7.88495932,6.3394828 7.88495932,6.19479578 C7.88495932,5.17811971 8.70925642,4.35350036 9.72593249,4.35350036 C10.2556997,4.35350036 10.7335858,4.57713687 11.0700073,4.93482639 C11.4898896,4.85233223 11.8830259,4.69958914 12.2397487,4.48787561 C12.1011842,4.91806977 11.810199,5.27865947 11.4289857,5.50680738 C11.8018207,5.46233787 12.1575767,5.36373157 12.4865866,5.21711109 C12.2410376,5.58575687 11.9287843,5.91025538 11.5688391,6.16901635 Z" id="Shape"></path>
                    </g>
                </g>
            </g>
        </g>
    </g>
</svg>