<?xml version="1.0" encoding="UTF-8"?>
<svg width="37px" height="33px" viewBox="0 0 37 33" version="1.1" xmlns="http://www.w3.org/2000/svg" xmlns:xlink="http://www.w3.org/1999/xlink">
    <!-- Generator: Sketch 52.2 (67145) - http://www.bohemiancoding.com/sketch -->
    <title>Shape</title>
    <desc>Created with Sketch.</desc>
    <g id="Page-1" stroke="none" stroke-width="1" fill="none" fill-rule="evenodd">
        <g id="Desktop-HD-Copy-9" transform="translate(-935.000000, -1386.000000)" fill="#000000" fill-rule="nonzero">
            <g id="Group-3-Copy" transform="translate(895.000000, 1372.000000)">
                <path d="M74.3004453,17.2417228 C72.4755215,15.1512442 69.9438398,14 67.171875,14 C63.2732891,14 60.8050566,16.3506394 59.4210254,18.3226376 C59.0619375,18.8343503 58.7564707,19.3474492 58.5,19.8302714 C58.2435293,19.3474492 57.9381348,18.8343503 57.5789746,18.3226376 C56.1949434,16.3506394 53.7267109,14 49.828125,14 C47.0561602,14 44.5244785,15.1513172 42.6994824,17.2417958 C40.958748,19.2359726 40,21.9067425 40,24.7620908 C40,27.8702313 41.2019941,30.7611092 43.7827441,33.8596925 C46.0892461,36.6290988 49.4074668,39.4837176 53.2499023,42.7892768 C54.6817012,44.0210644 56.1623516,45.2948745 57.7386816,46.687238 L57.7860156,46.7291147 C57.9903828,46.9097535 58.2451914,47 58.5,47 C58.7548086,47 59.0096172,46.9096806 59.2139844,46.7291147 L59.2613184,46.687238 C60.8376484,45.2948745 62.3182988,44.0211373 63.7503145,42.7891309 C67.5925332,39.4837905 70.9107539,36.6291718 73.2172559,33.8596925 C75.7980059,30.7610362 77,27.8702313 77,24.7620908 C77,21.9067425 76.041252,19.2359726 74.3004453,17.2417228 Z M62.3835597,40.7010614 C61.1365686,41.7529115 59.853219,42.8354774 58.5,44 C57.146854,42.835622 55.8634314,41.7529838 54.6162212,40.7009168 C47.0189934,34.2923206 42,30.0585405 42,24.4930722 C42,22.1926468 42.7742588,20.0559903 44.1801903,18.4767696 C45.6022566,16.8796254 47.5763429,16 49.7389381,16 C52.741719,16 54.6828053,17.831234 55.7823186,19.3674527 C56.7685951,20.7452507 57.2832345,22.1341786 57.4587478,22.6673309 C57.6055686,23.113612 58.0258805,23.4156376 58.5,23.4156376 C58.9741195,23.4156376 59.3944314,23.113612 59.5412522,22.6673309 C59.7167655,22.1341786 60.2314049,20.7452507 61.2176814,19.3673804 C62.3171947,17.831234 64.258281,16 67.2610619,16 C69.4236571,16 71.3977434,16.8796254 72.8197367,18.4767696 C74.2257412,20.0559903 75,22.1926468 75,24.4930722 C75,30.0585405 69.9810066,34.2923206 62.3835597,40.7010614 Z" id="Shape"></path>
            </g>
        </g>
    </g>
</svg>