<?xml version="1.0" encoding="UTF-8"?>
<svg width="22px" height="21px" viewBox="0 0 22 21" version="1.1" xmlns="http://www.w3.org/2000/svg" xmlns:xlink="http://www.w3.org/1999/xlink">
    <!-- Generator: Sketch 52.2 (67145) - http://www.bohemiancoding.com/sketch -->
    <title>Shape</title>
    <desc>Created with Sketch.</desc>
    <g id="Symbols" stroke="none" stroke-width="1" fill="none" fill-rule="evenodd">
        <g id="Menu.icons-activ" transform="translate(-1264.000000, -34.000000)" fill="#161746" fill-rule="nonzero">
            <g id="icons-menu" transform="translate(1102.000000, 25.000000)">
                <path d="M182.394859,11.0629145 C181.30977,9.73260996 179.804445,9 178.15625,9 C175.838172,9 174.370574,10.4958614 173.547637,11.7507694 C173.334125,12.0764047 173.152496,12.4029222 173,12.7101727 C172.847504,12.4029222 172.665918,12.0764047 172.452363,11.7507694 C171.629426,10.4958614 170.161828,9 167.84375,9 C166.195555,9 164.69023,9.73265639 163.605098,11.0629609 C162.570066,12.3319825 162,14.0315634 162,15.8486032 C162,17.8265109 162.714699,19.6661604 164.249199,21.6379862 C165.620633,23.4003356 167.593629,25.2169112 169.87832,27.3204489 C170.72966,28.1043137 171.610047,28.9149201 172.547324,29.8009697 L172.575469,29.8276185 C172.696984,29.9425704 172.848492,30 173,30 C173.151508,30 173.303016,29.942524 173.424531,29.8276185 L173.452676,29.8009697 C174.389953,28.9149201 175.27034,28.1043601 176.121809,27.320356 C178.406371,25.2169576 180.379367,23.400382 181.750801,21.6379862 C183.285301,19.666114 184,17.8265109 184,15.8486032 C184,14.0315634 183.429934,12.3319825 182.394859,11.0629145 Z" id="Shape"></path>
            </g>
        </g>
    </g>
</svg>