<?xml version="1.0" encoding="UTF-8"?>
<svg width="15px" height="11px" viewBox="0 0 15 11" version="1.1" xmlns="http://www.w3.org/2000/svg" xmlns:xlink="http://www.w3.org/1999/xlink">
    <!-- Generator: Sketch 52.2 (67145) - http://www.bohemiancoding.com/sketch -->
    <title>Shape</title>
    <desc>Created with Sketch.</desc>
    <g id="Symbols" stroke="none" stroke-width="1" fill="none" fill-rule="evenodd">
        <g id="footer" transform="translate(-973.000000, -202.000000)" fill="#4EFF00" fill-rule="nonzero">
            <g id="Group-5" transform="translate(923.000000, 198.000000)">
                <g id="Group-2">
                    <g id="youtube-symbol" transform="translate(50.000000, 4.000000)">
                        <path d="M14.7407994,1.76948157 C14.5571607,0.930178045 13.9046704,0.310963624 13.1191737,0.218594622 C11.2590963,0.000134601353 9.37641254,-0.0010057567 7.50239971,0.000134601353 C5.6280772,-0.0010057567 3.74508373,0.000134601353 1.88500638,0.218594622 C1.09997415,0.310963624 0.44794837,0.930178045 0.264309667,1.76948157 C0.00294193537,2.96473971 0,4.26947223 0,5.50008147 C0,6.73069072 0,8.03526033 0.261367732,9.23035556 C0.444696757,10.0694962 1.09687738,10.6887106 1.88237412,10.7812425 C3.74229663,10.9998654 5.62513527,11.0010058 7.49945778,10.9998654 C9.37408996,11.0010058 11.2564641,10.9998654 13.1162318,10.7812425 C13.901264,10.6888735 14.5539091,10.0696591 14.7375478,9.23035556 C14.9990704,8.03509742 14.9999994,6.73052781 14.9999994,5.50008147 C14.9999994,4.26947223 15.0021672,2.96473971 14.7407994,1.76948157 Z M5.56428366,7.94957056 C5.56428366,6.2038453 5.56428366,4.47636576 5.56428366,2.73047759 C7.15401263,3.60317731 8.73321257,4.47001234 10.3330061,5.34808804 C8.73816741,6.21834414 7.15819327,7.0799661 5.56428366,7.94957056 Z" id="Shape"></path>
                    </g>
                </g>
            </g>
        </g>
    </g>
</svg>