<?xml version="1.0" encoding="UTF-8"?>
<svg width="32px" height="20px" viewBox="0 0 32 20" version="1.1" xmlns="http://www.w3.org/2000/svg" xmlns:xlink="http://www.w3.org/1999/xlink">
    <!-- Generator: Sketch 53 (72520) - https://sketchapp.com -->
    <title>Path</title>
    <desc>Created with Sketch.</desc>
    <g id="Symbols" stroke="none" stroke-width="1" fill="none" fill-rule="evenodd">
        <g id="Buton-Clic-Pentru-Detalii" transform="translate(-230.000000, -16.000000)" fill="#4EFF00">
            <g id="Rectangle-Copy-8">
                <path d="M261.538409,25.613122 C261.538409,25.3786829 261.392,25.0673977 261.243451,24.9163396 L252.874378,16.3045452 C252.483639,15.9133238 251.850611,15.8679861 251.395064,16.265033 C250.987796,16.6199842 250.977648,17.3122582 251.354264,17.6977047 L258.072402,24.5997861 L231.200052,24.5997861 C230.622262,24.5997861 230.153898,25.0533659 230.153898,25.6129193 C230.153898,26.1724728 230.622262,26.6261032 231.200052,26.6261032 L258.072402,26.6261032 L251.354264,33.5281745 C250.977701,33.9135704 251.00443,34.5888236 251.395064,34.9607955 C251.80751,35.3534859 252.489602,35.3185328 252.874378,34.9212833 L261.243451,26.3095497 C261.48935,26.0759719 261.534282,25.8510056 261.538409,25.613122 Z" id="Path"></path>
            </g>
        </g>
    </g>
</svg>