<?xml version="1.0" encoding="UTF-8"?>
<svg width="108px" height="163px" viewBox="0 0 108 163" version="1.1" xmlns="http://www.w3.org/2000/svg" xmlns:xlink="http://www.w3.org/1999/xlink">
    <!-- Generator: Sketch 53 (72520) - https://sketchapp.com -->
    <title>right-arrow-6 copy</title>
    <desc>Created with Sketch.</desc>
    <defs>
        <filter x="-4.8%" y="-56.4%" width="109.6%" height="212.8%" filterUnits="objectBoundingBox" id="filter-1">
            <feOffset dx="0" dy="9" in="SourceAlpha" result="shadowOffsetOuter1"></feOffset>
            <feGaussianBlur stdDeviation="12.5" in="shadowOffsetOuter1" result="shadowBlurOuter1"></feGaussianBlur>
            <feColorMatrix values="0 0 0 0 0.545098039   0 0 0 0 0.560784314   0 0 0 0 0.992156863  0 0 0 1 0" type="matrix" in="shadowBlurOuter1" result="shadowMatrixOuter1"></feColorMatrix>
            <feMerge>
                <feMergeNode in="shadowMatrixOuter1"></feMergeNode>
                <feMergeNode in="SourceGraphic"></feMergeNode>
            </feMerge>
        </filter>
    </defs>
    <g id="Page-1" stroke="none" stroke-width="1" fill="none" fill-rule="evenodd">
        <g id="PArtea-9-Copy-3" transform="translate(-7.000000, -4199.000000)" fill="#4EFF00" fill-rule="nonzero">
            <g id="ShopOnline" transform="translate(-259.000000, 3792.000000)">
                <g id="Arrow" filter="url(#filter-1)" transform="translate(288.000000, 421.000000)">
                    <g id="right-arrow-6-copy" transform="translate(31.500000, 58.500000) scale(-1, 1) translate(-31.500000, -58.500000) ">
                        <path d="M7.4,115.3 C6.6,116.1 5.6,116.5 4.5,116.5 C3.4,116.5 2.4,116.1 1.6,115.3 C0,113.7 0,111.1 1.6,109.5 L52.6,58.5 L1.6,7.5 C-7.10542736e-15,5.9 -7.10542736e-15,3.3 1.6,1.7 C3.2,0.1 5.8,0.1 7.4,1.7 L61.3,55.6 C62.9,57.2 62.9,59.8 61.3,61.4 L7.4,115.3 L7.4,115.3 Z" id="Path"></path>
                    </g>
                </g>
            </g>
        </g>
    </g>
</svg>