<?xml version="1.0" encoding="UTF-8"?>
<svg width="81px" height="86px" viewBox="0 0 81 86" version="1.1" xmlns="http://www.w3.org/2000/svg" xmlns:xlink="http://www.w3.org/1999/xlink">
    <!-- Generator: Sketch 53 (72520) - https://sketchapp.com -->
    <title>Figura3</title>
    <desc>Created with Sketch.</desc>
    <g id="Page-1" stroke="none" stroke-width="1" fill="none" fill-rule="evenodd">
        <g id="Mobile" transform="translate(-138.000000, -712.000000)">
            <g id="Group-4" transform="translate(16.000000, 712.000000)">
                <g id="Figura3" transform="translate(122.000000, 0.000000)">
                    <path d="M4.29592524,35 C4.00235882,35 3.70502873,34.959824 3.40958048,34.8756457 C1.65665022,34.379185 0.632931427,32.5320452 1.12220879,30.7518653 C6.09213773,12.6458772 22.4913977,0 41.0011369,0 C59.5089941,0 75.9063723,12.643964 80.8781831,30.7470825 C81.3665195,32.5282189 80.3428007,34.3753587 78.5917523,34.8718194 C76.8369402,35.3701932 75.0228503,34.3284867 74.5335729,32.5483069 C70.3540151,17.3263822 56.5658026,6.69600153 41.0011369,6.69600153 C25.4345893,6.69600153 11.6454358,17.3273388 7.46587802,32.55022 C7.06034236,34.0309929 5.73647072,35 4.29592524,35" id="Fill-13" fill="#14A0C0"></path>
                    <path d="M3.29592524,86 C3.00235882,86 2.70502873,85.959824 2.40958048,85.8756457 C0.656650223,85.379185 -0.367068573,83.5320452 0.122208793,81.7518653 C5.09213773,63.6458772 21.4913977,51 40.0011369,51 C58.5089941,51 74.9063723,63.643964 79.8781831,81.7470825 C80.3665195,83.5282189 79.3428007,85.3753587 77.5917523,85.8718194 C75.8369402,86.3701932 74.0228503,85.3284867 73.5335729,83.5483069 C69.3540151,68.3263822 55.5658026,57.6960015 40.0011369,57.6960015 C24.4345893,57.6960015 10.6454358,68.3273388 6.46587802,83.55022 C6.06034236,85.0309929 4.73647072,86 3.29592524,86" id="Fill-13-Copy" fill="#14A0C0" transform="translate(40.000000, 68.500000) scale(1, -1) translate(-40.000000, -68.500000) "></path>
                    <path d="M70,42 C70,58.5681818 57.0166296,72 41.0004642,72 C24.9833704,72 12,58.5681818 12,42 C12,25.4318182 24.9833704,12 41.0004642,12 C57.0166296,12 70,25.4318182 70,42" id="Fill-31" fill="#4F7BAC"></path>
                    <path d="M22.6149188,60.5310301 C27.3037792,65.1297115 33.774139,67.980219 40.9249857,67.9999035 C47.8091809,68.0186507 54.5165642,65.3049975 59.384148,60.5310301 C64.0529379,55.9529707 66.9536088,49.6417352 66.9994843,42.6659125 C67.0434483,35.8831856 64.2746696,29.2644965 59.384148,24.4689699 C54.5165642,19.6950025 47.8091809,16.9813493 40.9249857,17.0000965 C33.774139,17.019781 27.3037792,19.8702885 22.6149188,24.4689699 C17.7243972,29.2644965 14.9556184,35.8831856 15.0005382,42.6659125 C15.045458,49.6417352 17.9470846,55.9529707 22.6149188,60.5310301" id="Fill-33"></path>
                    <path d="M44.0148684,45.0904491 C44.0148684,44.6529133 43.8254806,44.311147 43.4467049,44.0670283 C43.0679292,43.8219707 42.5402078,43.5966303 41.8635409,43.3910073 L41.8635409,46.5007042 C43.2967728,46.4622085 44.0148684,45.9918105 44.0148684,45.0904491 M39.0838797,38.8128423 C39.0838797,39.2513171 39.2426893,39.5827552 39.5603085,39.8080956 C39.8789141,40.0334359 40.3622477,40.2362422 41.0112956,40.4165145 L41.0112956,37.2871003 C39.7260229,37.3650305 39.0838797,37.8729852 39.0838797,38.8128423 M44.2397665,38.0006781 C43.5049022,37.6532784 42.6556161,37.3847478 41.8635409,37.3068176 L41.8635409,40.6484273 L42.3705479,40.7639142 C43.0738476,40.9441865 43.7130315,41.1376037 44.2880998,41.3432267 C45.3169098,41.7122216 46.198747,42.2830838 46.6722166,43.2266966 C47.1180671,44.1149132 47.1229991,45.6444108 46.6011961,46.6359084 C45.7598012,48.2395806 43.9280656,48.8029315 42.0470103,48.8761671 L42.0470103,50.4216264 C42.0470103,50.7417975 41.7747653,51 41.4384046,51 C41.1020439,51 40.8297989,50.7417975 40.8297989,50.4216264 L40.8297989,48.8573888 C39.3571111,48.7559856 37.9376887,48.3569454 36.7214636,47.7579156 C35.1313949,46.97298 36.450205,44.7787283 37.9741853,45.5373742 C38.8244578,45.9598873 39.973608,46.3523551 41.0112956,46.4622085 L41.0112956,43.1393772 C40.6039144,43.0548746 39.3452744,42.7178029 38.4861243,42.3572584 C36.7885385,41.6464973 36.2026199,40.6118095 36.2026199,39.2391112 C36.2026199,37.3622138 37.281736,35.9810652 39.0029953,35.3557457 C39.5711588,35.1501226 40.1797646,35.0214908 40.8297989,34.9698503 L40.8297989,33.5793125 C40.8297989,33.2591414 41.1020439,33 41.4384046,33 C41.7747653,33 42.0470103,33.2591414 42.0470103,33.5793125 L42.0470103,34.950133 C43.107385,35.0271243 44.1914331,35.2693652 45.3455153,35.8176934 C45.9925904,36.1256585 46.2460939,36.8852433 45.8988829,37.4899066 C45.5763317,38.0541964 44.8434402,38.2870481 44.2397665,38.0006781" id="Fill-53" fill="#FFFFFF"></path>
                    <path d="M55.0892343,39.6062641 L53.490402,39.6062641 C51.8953031,33.7033219 46.2503891,29.4521934 39.7402577,30.0573596 C33.4961316,30.6382068 28.5082975,35.731143 28.037888,41.9979331 C27.4638765,49.6162921 33.4877314,56 40.9722825,56 C45.7519791,56 49.9333968,53.3941377 52.1827756,49.5264993 C52.467448,49.0373156 52.2695773,48.4078305 51.7525002,48.1768011 C51.7441,48.1730597 51.7366332,48.1693184 51.7291664,48.1665123 C51.2923576,47.9700906 50.7715471,48.1290987 50.5316756,48.5443904 C48.4941678,52.059405 44.5834221,54.3566044 40.1761331,54.0451356 C34.7393567,53.6616455 30.3386012,49.2552502 29.9503267,43.8068842 C29.4911174,37.3380602 34.6133541,31.9271078 40.9722825,31.9271078 C45.8835817,31.9271078 50.0528659,35.1559078 51.4874282,39.6062641 L49.7999275,39.6062641 C49.0812463,39.6062641 48.6463042,40.405046 49.0373787,41.0111475 L51.6563649,45.0780137 C52.0129055,45.6308007 52.8193218,45.6345421 53.1805291,45.0836257 L55.8489829,41.0176949 C56.246591,40.4115934 55.8125822,39.6062641 55.0892343,39.6062641" id="Fill-54" fill="#FFFFFF"></path>
                </g>
            </g>
        </g>
    </g>
</svg>