<?xml version="1.0" encoding="UTF-8"?>
<svg width="82px" height="85px" viewBox="0 0 82 85" version="1.1" xmlns="http://www.w3.org/2000/svg" xmlns:xlink="http://www.w3.org/1999/xlink">
    <!-- Generator: Sketch 53 (72520) - https://sketchapp.com -->
    <title>Figura 2 Copy</title>
    <desc>Created with Sketch.</desc>
    <defs>
        <path d="M7.76615748,45.0671985 C3.12698024,40.3721579 0.243167357,33.8996542 0.197573478,26.7455813 C0.153879343,19.7895384 2.90565995,13.0017248 7.76615748,8.08366016 C12.4262319,3.36747075 18.8578185,0.44412546 25.9638146,0.423937939 C32.8047963,0.404711729 39.4719513,3.18770568 44.3096519,8.08366016 C49.1701495,13.0017248 51.9219301,19.7895384 51.8782359,26.7455813 C51.832642,33.8996542 48.949779,40.3721579 44.3096519,45.0671985 C39.4719513,49.9631529 32.8047963,52.7461469 25.9638146,52.7269207" id="path-1"></path>
    </defs>
    <g id="Page-1" stroke="none" stroke-width="1" fill="none" fill-rule="evenodd">
        <g id="Mobile" transform="translate(-140.000000, -434.000000)">
            <g id="Group-3" transform="translate(18.000000, 434.000000)">
                <g id="Figura-2-Copy" transform="translate(122.000000, 0.000000)">
                    <g id="Group-10" fill="#01CC9B">
                        <path d="M3.35912028,35.4455784 C3.05992553,35.4455784 2.75689494,35.4048909 2.45482331,35.3196409 C0.669244343,34.8168599 -0.374101477,32.9462045 0.124556451,31.1423928 C5.19072921,12.8068694 21.9044004,0 40.7680545,0 C59.6307496,0 76.3425029,12.804932 81.4105936,31.1385178 C81.9082925,32.9423295 80.8649467,34.8129849 79.0803267,35.3157659 C77.2957067,35.8204845 75.4430007,34.7655162 74.9443428,32.9626732 C70.6846533,17.5469611 56.6301714,6.78124706 40.7680545,6.78124706 C24.9040197,6.78124706 10.8504967,17.5479299 6.58984829,32.9655795 C6.17653758,34.4642351 4.8272843,35.4455784 3.35912028,35.4455784" id="Fill-8"></path>
                        <path d="M3.35912028,84.4455784 C3.05992553,84.4455784 2.75689494,84.4048909 2.45482331,84.3196409 C0.669244343,83.8168599 -0.374101477,81.9462045 0.124556451,80.1423928 C5.19072921,61.8068694 21.9044004,49 40.7680545,49 C59.6307496,49 76.3425029,61.804932 81.4105936,80.1385178 C81.9082925,81.9423295 80.8649467,83.8129849 79.0803267,84.3157659 C77.2957067,84.8204845 75.4430007,83.7655162 74.9443428,81.9626732 C70.6846533,66.5469611 56.6301714,55.7812471 40.7680545,55.7812471 C24.9040197,55.7812471 10.8504967,66.5479299 6.58984829,81.9655795 C6.17653758,83.4642351 4.8272843,84.4455784 3.35912028,84.4455784" id="Fill-8-Copy" transform="translate(40.767373, 66.722789) scale(1, -1) translate(-40.767373, -66.722789) "></path>
                    </g>
                    <path d="M71,41.5 C71,58.3443182 57.5679668,72 40.9995198,72 C24.4310728,72 11,58.3443182 11,41.5 C11,24.6556818 24.4310728,11 40.9995198,11 C57.5679668,11 71,24.6556818 71,41.5" id="Fill-26" fill="#4F7BAC"></path>
                    <g id="Group-30" transform="translate(15.000000, 15.000000)">
                        <mask id="mask-2" fill="white">
                            <use xlink:href="#path-1"></use>
                        </mask>
                        <g id="Clip-29"></g>
                        <path d="M7.76615748,45.0671985 C12.4262319,49.7833879 18.8578185,52.7067332 25.9638146,52.7269207 C32.8047963,52.7461469 39.4719513,49.9631529 44.3096519,45.0671985 C48.949779,40.3721579 51.832642,33.8996542 51.8782359,26.7455813 C51.9219301,19.7895384 49.1701495,13.0017248 44.3096519,8.08366016 C39.4719513,3.18770568 32.8047963,0.404711729 25.9638146,0.423937939 C18.8578185,0.44412546 12.4262319,3.36747075 7.76615748,8.08366016 C2.90565995,13.0017248 0.153879343,19.7895384 0.197573478,26.7455813 C0.243167357,33.8996542 3.12698024,40.3721579 7.76615748,45.0671985" id="Fill-28" mask="url(#mask-2)"></path>
                    </g>
                    <path d="M43.2612215,37.4405998 C43.6949049,37.4405998 43.9672618,37.1261429 43.9672618,36.7078199 C43.9672618,36.2732976 43.6778232,35.9674167 43.2612215,35.9674167 C42.8522116,35.9674167 42.5551812,36.2732976 42.5551812,36.7078199 C42.5551812,37.1185197 42.8275382,37.4405998 43.2612215,37.4405998 L43.2612215,37.4405998 Z M42.6358444,31.1590844 L42.7962219,35.3956769 L43.7262212,35.3956769 L43.8875476,31.1590844 L42.6358444,31.1590844 Z M33.9346571,45.0447401 C33.4981268,45.0447401 33.2371576,44.7178955 33.2371576,44.3195834 C33.2371576,43.8812495 33.5379839,43.5791802 33.9346571,43.5791802 C34.3474629,43.5791802 34.6331055,43.8812495 34.6331055,44.3195834 C34.6331055,44.7340948 34.3635955,45.0447401 33.9346571,45.0447401 L33.9346571,45.0447401 Z M34.4584934,43.0531795 L33.443086,43.0531795 C33.3462902,41.4970942 34.4499526,41.1340394 34.4499526,40.2888173 C34.4499526,39.4960046 33.4279024,39.587483 32.9666986,39.9143276 L32.7209131,39.0538591 C33.7391674,38.4401917 35.6399721,38.5926556 35.6399721,40.1049076 C35.6399721,41.3817933 34.4584934,41.4637427 34.4584934,43.0531795 L34.4584934,43.0531795 Z M29.2846606,43.3695423 C30.1567722,47.3316996 34.3816261,49.6615396 38.2003172,48.1788275 C37.2437464,45.9842993 37.5113585,43.448633 38.8987656,41.5056703 C37.037818,39.9943712 36.1201554,37.6283211 36.4617878,35.2575064 C33.1935046,34.928756 30.166262,37.0480051 29.3415993,40.2497484 C29.3283136,40.3002521 29.2913034,40.3393209 29.2400586,40.3526615 L25.1063066,41.4904239 C24.9706026,41.5285399 24.9630108,41.7191198 25.0939698,41.7677177 L29.1935586,43.2647233 C29.2410075,43.2818755 29.2742218,43.3199915 29.2846606,43.3695423 L29.2846606,43.3695423 Z M43.5013132,48.4084763 C43.9302516,48.4084763 44.1997616,48.097831 44.1997616,47.6842725 C44.1997616,47.2459386 43.914119,46.9429165 43.5013132,46.9429165 C43.10464,46.9429165 42.8028647,47.2459386 42.8028647,47.6842725 C42.8028647,48.0816317 43.0647829,48.4084763 43.5013132,48.4084763 L43.5013132,48.4084763 Z M45.4951178,48.382748 C45.9231073,48.382748 46.1926173,48.0721027 46.1926173,47.6585442 C46.1926173,47.2202103 45.9069746,46.9171882 45.4951178,46.9171882 C45.0984446,46.9171882 44.7966693,47.2202103 44.7966693,47.6585442 C44.7966693,48.0568563 45.0585875,48.382748 45.4951178,48.382748 L45.4951178,48.382748 Z M47.4879735,48.3579726 C47.9159629,48.3579726 48.1854729,48.0463744 48.1854729,47.6328159 C48.1854729,47.194482 47.8998303,46.8914599 47.4879735,46.8914599 C47.0913003,46.8914599 46.789525,47.194482 46.789525,47.6328159 C46.789525,48.031128 47.0514432,48.3579726 47.4879735,48.3579726 L47.4879735,48.3579726 Z M48.8345745,50.3838376 C48.7966153,50.4190949 48.7804827,50.465787 48.7899725,50.5162907 L49.5472576,54.830068 C49.5719311,54.9682385 49.4030128,55.0568581 49.30337,54.9577566 L46.2543009,51.9322997 C46.2172907,51.8932309 46.1660459,51.8808432 46.113852,51.8941838 C42.9442626,52.7784748 39.599112,51.2042843 38.2487151,48.1988384 C40.4655297,47.3107358 42.0465286,45.3315629 42.4185283,42.9559838 C44.7966693,43.1923029 47.105535,42.1622182 48.5233094,40.2259259 C51.7194703,42.8120959 51.821011,47.6394862 48.8345745,50.3838376 L48.8345745,50.3838376 Z M41.8984878,39.1986999 C40.7084683,39.6656208 39.6816732,40.4593863 38.9300819,41.5009058 C39.9274587,42.3022945 41.127917,42.7987553 42.3995487,42.9312084 C42.5921914,41.6628988 42.4194773,40.3707666 41.8984878,39.1986999 L41.8984878,39.1986999 Z M45.1088834,29.8774342 C45.1582303,29.8926806 45.2066282,29.8821987 45.2455364,29.8498001 L48.586891,27.0349341 C48.6941256,26.9434558 48.855452,27.045416 48.8193908,27.1816807 L47.73281,31.3458528 C47.7204733,31.3982623 47.733759,31.4487659 47.7717181,31.485929 C50.1081041,33.7909936 50.4250631,37.5092086 48.5176155,40.1744693 C46.6433822,38.6908043 44.1437719,38.3067857 41.9108246,39.1701129 C40.9257845,36.9851137 38.882633,35.4909668 36.5035429,35.2260607 C37.1355629,31.1543199 41.2484373,28.6520051 45.1088834,29.8774342 L45.1088834,29.8774342 Z" id="Fill-43" fill="#FFFFFF"></path>
                </g>
            </g>
        </g>
    </g>
</svg>