<?xml version="1.0" encoding="UTF-8"?>
<svg width="83px" height="86px" viewBox="0 0 83 86" version="1.1" xmlns="http://www.w3.org/2000/svg" xmlns:xlink="http://www.w3.org/1999/xlink">
    <!-- Generator: Sketch 53 (72520) - https://sketchapp.com -->
    <title>Group Copy</title>
    <desc>Created with Sketch.</desc>
    <g id="Page-1" stroke="none" stroke-width="1" fill="none" fill-rule="evenodd">
        <g id="Mobile" transform="translate(-141.000000, -156.000000)">
            <g id="Group-2" transform="translate(17.000000, 156.000000)">
                <g id="Group-Copy" transform="translate(124.000000, 0.000000)">
                    <path d="M72,42.5 C72,59.3443182 58.3450759,73 41.4995118,73 C24.6549241,73 11,59.3443182 11,42.5 C11,25.6556818 24.6549241,12 41.4995118,12 C58.3450759,12 72,25.6556818 72,42.5" id="Fill-21" fill="#4F7BAC"></path>
                    <path d="M22.7611783,61.2381294 C27.5410995,66.0171511 34.1367478,68.9794432 41.4230348,68.9998997 C48.4394954,69.0193821 55.2767211,66.1993111 60.2378253,61.2381294 C64.9963162,56.4805382 67.9527175,49.9218033 67.9994744,42.6724188 C68.0442831,35.6237027 65.222308,28.7454571 60.2378253,23.7618706 C55.2767211,18.8006889 48.4394954,15.9806179 41.4230348,16.0001003 C34.1367478,16.0205568 27.5410995,18.9828489 22.7611783,23.7618706 C17.7776697,28.7454571 14.9566687,35.6237027 15.0005033,42.6724188 C15.0472603,49.9218033 18.0036615,56.4805382 22.7611783,61.2381294" id="Fill-23"></path>
                    <path d="M36.5445043,43.9240409 C36.2865358,46.9295912 38.5050651,49.5744755 41.4984733,49.8334904 C44.4918816,50.0915279 47.1270543,47.8649771 47.3850228,44.8594268 C47.6410444,41.8538765 45.4234886,39.2080148 42.4300804,38.9499773 C39.4376456,38.6909624 36.8024728,40.9184906 36.5445043,43.9240409 L36.5445043,43.9240409 Z M34.6666882,42.6709952 L33.4995024,42.8410654 C33.438174,42.8498621 33.3914476,42.8987329 33.3865803,42.9612874 L33.2736582,44.277865 C33.2687909,44.3404196 33.3048091,44.3961322 33.3641906,44.4156805 L34.4778358,44.7802562 C34.5089867,45.3979823 34.6150945,45.998115 34.787398,46.57088 L33.8879153,47.2834154 C33.839242,47.322512 33.8236666,47.3870213 33.8499502,47.4446888 L34.4077462,48.6410444 C34.4340298,48.6977345 34.4943847,48.7280343 34.5557131,48.7143505 L35.6713052,48.4787936 C36.0042306,48.995846 36.4014048,49.471847 36.8501727,49.8931127 L36.4364496,50.9350368 C36.4130864,50.9936817 36.4325557,51.0581911 36.4841494,51.093378 L37.5627499,51.849897 C37.6143436,51.8860614 37.6805393,51.8821517 37.7272656,51.8401229 L38.5537384,51.0953328 C39.0998528,51.3758509 39.6878264,51.5908821 40.3050039,51.7306524 L40.4617319,52.8194924 C40.4714666,52.8810696 40.5201399,52.9270081 40.5814682,52.9328726 L41.8937005,53.0452752 C41.9560024,53.0511397 42.0114899,53.013998 42.0309593,52.9543757 L42.3706989,51.9075645 C43.0083192,51.873355 43.6254967,51.7589975 44.2144437,51.5723112 L44.8861353,52.4285265 C44.925074,52.4783747 44.9902962,52.4940133 45.0467572,52.4666457 L46.2392532,51.9065871 C46.2957142,51.8801969 46.3258917,51.8195972 46.3122632,51.7589975 L46.0854456,50.6779768 C46.6062499,50.3329493 47.0832483,49.92439 47.5037857,49.4610954 L48.5239781,49.8696548 C48.5823861,49.8931127 48.6466349,49.8735644 48.6826531,49.8227389 L49.4351424,48.7387859 C49.4711607,48.6879603 49.4662933,48.6205187 49.4254078,48.5736028 L48.6797327,47.739868 C48.9503563,47.1925158 49.1577046,46.606067 49.290096,45.9893183 L50.3998473,45.8280448 C50.4621492,45.8182707 50.5079021,45.7703774 50.5137429,45.7068454 L50.6256915,44.3912452 C50.6315323,44.3286906 50.5945405,44.2720006 50.5351591,44.2524523 L49.4448771,43.8956959 C49.404965,43.2760149 49.2891225,42.6749049 49.1061109,42.1021398 L50.0114343,41.3847174 C50.0610811,41.3465982 50.0756831,41.2811115 50.050373,41.2244214 L49.4916035,40.0280658 C49.4653199,39.9703983 49.404965,39.9410759 49.3436366,39.9537822 L48.1891058,40.1981359 C47.8552069,39.7006318 47.464847,39.2441791 47.0238669,38.838552 L47.4629001,37.733096 C47.4862633,37.6744511 47.4677674,37.6109191 47.4161737,37.5747548 L46.3365998,36.8182358 C46.2850061,36.7820714 46.2188104,36.7859811 46.1720841,36.8280099 L45.2745483,37.6373093 C44.7537439,37.3792718 44.1959479,37.1798792 43.6108947,37.0479282 L43.4376178,35.8496178 C43.4278831,35.7880406 43.3792098,35.7411247 43.3178814,35.7362377 L42.0056491,35.6228575 C41.9443208,35.6169931 41.8878597,35.6551122 41.8683904,35.7147345 L41.4897121,36.8798129 C40.8949243,36.9169547 40.3166855,37.0244703 39.7637567,37.1955179 L39.0122409,36.2396062 C38.9742757,36.1907355 38.9090535,36.1750969 38.8525924,36.2014871 L37.6600965,36.7615457 C37.6036354,36.7879359 37.5744315,36.8485356 37.5861131,36.9101128 L37.8392142,38.1084232 C37.3476139,38.4339023 36.8959256,38.8160715 36.4938841,39.2471114 L35.3753715,38.798478 C35.3169636,38.7750201 35.2527148,38.7945684 35.21767,38.8463713 L34.4642073,39.9293469 C34.428189,39.9811499 34.4320829,40.0485915 34.4739419,40.09453 L35.276078,40.9917967 C35.0103218,41.5166684 34.8039469,42.0786819 34.6666882,42.6709952 L34.6666882,42.6709952 Z M40.4617319,44.2456104 C40.3935893,45.0431808 40.9825363,45.7439872 41.7759111,45.8133836 C42.569286,45.8808252 43.2682347,45.2904667 43.3373508,44.4938737 C43.4045199,43.6972807 42.8165464,42.9954969 42.0231715,42.9261005 C41.2288232,42.8576814 40.530848,43.4490173 40.4617319,44.2456104 L40.4617319,44.2456104 Z M38.3619655,28 L45.5899513,28 C45.7807507,28 45.9355318,28.1563864 45.9355318,28.3469822 L45.9355318,30.3135407 C45.9355318,30.505114 45.7807507,30.6605229 45.5899513,30.6605229 L38.3619655,30.6605229 C38.1711662,30.6605229 38.0163851,30.505114 38.0163851,30.3135407 L38.0163851,28.3469822 C38.0163851,28.1563864 38.1711662,28 38.3619655,28 L38.3619655,28 Z M30.0855568,35.1233986 L32.0149666,33.0297762 C32.1366498,32.8978253 32.3439981,32.8900059 32.475416,33.0121828 L33.5014493,33.9661396 C33.6328672,34.0883164 33.6416284,34.2955283 33.5199452,34.4274793 L31.5905353,36.5211017 C31.4688521,36.6530527 31.2615038,36.660872 31.1300859,36.5386952 L30.1040526,35.5857158 C29.9726347,35.4635389 29.964847,35.2553496 30.0855568,35.1233986 L30.0855568,35.1233986 Z M53.9140599,35.0510699 C54.0357432,35.1830209 54.026982,35.3912102 53.8955641,35.5133871 L52.8705043,36.4663665 C52.7381129,36.5885433 52.5307646,36.580724 52.4090814,36.448773 L50.480645,34.3551506 C50.3589617,34.2231996 50.3667495,34.0150103 50.4981674,33.8928335 L51.5251741,32.9398541 C51.6556186,32.8176772 51.8629669,32.826474 51.9846501,32.9574476 L53.9140599,35.0510699 Z M41.8693639,33.927043 C36.0869753,33.927043 31.4007095,38.6332949 31.4007095,44.4391385 C31.4007095,50.244982 36.0869753,54.9502566 41.8693639,54.9502566 C47.6517525,54.9502566 52.3389918,50.244982 52.3389918,44.4391385 C52.3389918,38.6332949 47.6517525,33.927043 41.8693639,33.927043 L41.8693639,33.927043 Z M51.9359768,36.3021608 L50.5750712,34.8184452 C50.553655,34.7940098 50.5156898,34.792055 50.4913531,34.8145356 L49.4711607,35.7577408 C47.9798106,34.4392083 46.1467739,33.5038224 44.1229379,33.1001501 L44.1229379,31.0944951 C44.1229379,31.0163019 44.0596626,30.9527699 43.9827588,30.9527699 L39.9973886,30.9527699 C39.9204848,30.9527699 39.856236,31.0163019 39.856236,31.0944951 L39.856236,33.0542116 C37.7798328,33.422697 35.894229,34.3492861 34.3610199,35.6746605 L33.5082636,34.8868642 C33.4839269,34.8643837 33.4469352,34.8663385 33.4245455,34.8897965 L32.0646133,36.3735121 C32.0422236,36.3979474 32.0441705,36.4360666 32.0675337,36.4575697 L32.8832983,37.2111565 C31.3014159,39.1913988 30.3561803,41.704332 30.3561803,44.4391385 C30.3561803,50.824589 35.5106833,56 41.8693639,56 C48.2290179,56 53.3835209,50.824589 53.3835209,44.4391385 C53.3835209,41.7483157 52.4684628,39.2725242 50.9333067,37.308898 L51.932083,36.385241 C51.9564196,36.3637379 51.9573931,36.3256187 51.9359768,36.3021608 L51.9359768,36.3021608 Z M37.4060218,44.0178727 C37.6231048,41.4775718 39.8503952,39.595071 42.3794601,39.8140119 C44.9094985,40.0319754 46.7843942,42.2683003 46.5663378,44.8076238 C46.3482814,47.3479247 44.1219644,49.2294481 41.5928995,49.0114846 C39.0628611,48.7925437 37.1879654,46.5571962 37.4060218,44.0178727 L37.4060218,44.0178727 Z" id="Fill-41" fill="#FFFFFF"></path>
                    <path d="M4.37828811,36 C4.07738609,36 3.77262635,35.9586761 3.46883103,35.8720927 C1.67306319,35.3614474 0.623763823,33.4615322 1.1252672,31.6295061 C6.22034858,13.007188 23.0293914,0 42.0006854,0 C60.9710149,0 77.7781289,13.0052201 82.8751391,31.6255705 C83.3756781,33.4575965 82.3263787,35.3575118 80.5315753,35.8681571 C78.7367719,36.3797863 76.873494,35.3093006 76.3719906,33.4782585 C72.0879945,17.8214217 57.9533148,6.88731586 42.0006854,6.88731586 C26.0461271,6.88731586 11.9124119,17.8224056 7.62745131,33.4812102 C7.21178217,35.003307 5.85482977,36 4.37828811,36" id="Fill-55" fill="#7DE314"></path>
                    <path d="M3.37828811,86 C3.07738609,86 2.77262635,85.9586761 2.46883103,85.8720927 C0.673063188,85.3614474 -0.376236177,83.4615322 0.125267196,81.6295061 C5.22034858,63.007188 22.0293914,50 41.0006854,50 C59.9710149,50 76.7781289,63.0052201 81.8751391,81.6255705 C82.3756781,83.4575965 81.3263787,85.3575118 79.5315753,85.8681571 C77.7367719,86.3797863 75.873494,85.3093006 75.3719906,83.4782585 C71.0879945,67.8214217 56.9533148,56.8873159 41.0006854,56.8873159 C25.0461271,56.8873159 10.9124119,67.8224056 6.62745131,83.4812102 C6.21178217,85.003307 4.85482977,86 3.37828811,86" id="Fill-55-Copy" fill="#7DE314" transform="translate(41.000000, 68.000000) scale(1, -1) translate(-41.000000, -68.000000) "></path>
                </g>
            </g>
        </g>
    </g>
</svg>