<?xml version="1.0" encoding="UTF-8"?>
<svg width="81px" height="86px" viewBox="0 0 81 86" version="1.1" xmlns="http://www.w3.org/2000/svg" xmlns:xlink="http://www.w3.org/1999/xlink">
    <!-- Generator: Sketch 53 (72520) - https://sketchapp.com -->
    <title>Figura3 Copy</title>
    <desc>Created with Sketch.</desc>
    <g id="Page-1" stroke="none" stroke-width="1" fill="none" fill-rule="evenodd">
        <g id="Mobile" transform="translate(-139.000000, -939.000000)">
            <g id="Group-5" transform="translate(17.000000, 939.000000)">
                <g id="Figura3-Copy" transform="translate(122.000000, 0.000000)">
                    <path d="M4.29592524,35 C4.00235882,35 3.70502873,34.959824 3.40958048,34.8756457 C1.65665022,34.379185 0.632931427,32.5320452 1.12220879,30.7518653 C6.09213773,12.6458772 22.4913977,0 41.0011369,0 C59.5089941,0 75.9063723,12.643964 80.8781831,30.7470825 C81.3665195,32.5282189 80.3428007,34.3753587 78.5917523,34.8718194 C76.8369402,35.3701932 75.0228503,34.3284867 74.5335729,32.5483069 C70.3540151,17.3263822 56.5658026,6.69600153 41.0011369,6.69600153 C25.4345893,6.69600153 11.6454358,17.3273388 7.46587802,32.55022 C7.06034236,34.0309929 5.73647072,35 4.29592524,35" id="Fill-13" fill="#5059AB"></path>
                    <path d="M3.29592524,86 C3.00235882,86 2.70502873,85.959824 2.40958048,85.8756457 C0.656650223,85.379185 -0.367068573,83.5320452 0.122208793,81.7518653 C5.09213773,63.6458772 21.4913977,51 40.0011369,51 C58.5089941,51 74.9063723,63.643964 79.8781831,81.7470825 C80.3665195,83.5282189 79.3428007,85.3753587 77.5917523,85.8718194 C75.8369402,86.3701932 74.0228503,85.3284867 73.5335729,83.5483069 C69.3540151,68.3263822 55.5658026,57.6960015 40.0011369,57.6960015 C24.4345893,57.6960015 10.6454358,68.3273388 6.46587802,83.55022 C6.06034236,85.0309929 4.73647072,86 3.29592524,86" id="Fill-13-Copy" fill="#5059AB" transform="translate(40.000000, 68.500000) scale(1, -1) translate(-40.000000, -68.500000) "></path>
                    <path d="M70,42 C70,58.5681818 57.0166296,72 41.0004642,72 C24.9833704,72 12,58.5681818 12,42 C12,25.4318182 24.9833704,12 41.0004642,12 C57.0166296,12 70,25.4318182 70,42" id="Fill-31" fill="#4F7BAC"></path>
                    <path d="M22.6149188,60.5310301 C27.3037792,65.1297115 33.774139,67.980219 40.9249857,67.9999035 C47.8091809,68.0186507 54.5165642,65.3049975 59.384148,60.5310301 C64.0529379,55.9529707 66.9536088,49.6417352 66.9994843,42.6659125 C67.0434483,35.8831856 64.2746696,29.2644965 59.384148,24.4689699 C54.5165642,19.6950025 47.8091809,16.9813493 40.9249857,17.0000965 C33.774139,17.019781 27.3037792,19.8702885 22.6149188,24.4689699 C17.7243972,29.2644965 14.9556184,35.8831856 15.0005382,42.6659125 C15.045458,49.6417352 17.9470846,55.9529707 22.6149188,60.5310301" id="Fill-33"></path>
                    <g id="Group-11" transform="translate(25.000000, 30.000000)" fill="#FFFFFF">
                        <g id="Group">
                            <polygon id="Fill-45" points="1.92753906 21.9216964 31.4846743 21.9216964 31.4846743 20.4758345 1.92753906 20.4758345"></polygon>
                            <polygon id="Fill-47" points="29.2452003 1.02108238 29.7414263 1.73549389 19.794187 8.70070191 13.8430619 0.155755991 0.381585733 9.7023385 0.383977184 11.2467818 13.5584792 1.90831576 19.5036257 10.3972771 30.4576658 2.76512276 30.9562833 3.48440249 32.6661705 0.397950015"></polygon>
                            <polygon id="Fill-48" points="2.14755252 19.2923699 7.07394102 19.2923699 7.07394102 7.55508767 2.14755252 11.1454011"></polygon>
                            <polygon id="Fill-49" points="30.1980738 4.42384755 25.7930216 7.5930598 25.7930216 19.2926133 30.7206058 19.2926133 30.7206058 5.17598778"></polygon>
                            <polygon id="Fill-50" points="19.8826707 11.4932355 19.8826707 19.2921265 24.8078635 19.2921265 24.8078635 7.94795315 19.8970194 11.4834991"></polygon>
                            <polygon id="Fill-51" points="8.05969701 7.19666485 8.05969701 19.2917614 12.9848898 19.2917614 12.9848898 3.60270028"></polygon>
                            <polygon id="Fill-52" points="13.9705262 4.33062111 13.9705262 19.2918831 18.8969147 19.2918831 18.8969147 11.6159147"></polygon>
                        </g>
                    </g>
                </g>
            </g>
        </g>
    </g>
</svg>